<svg xmlns="http://www.w3.org/2000/svg" xmlns:xlink="http://www.w3.org/1999/xlink" width="375" zoomAndPan="magnify" viewBox="0 0 281.25 281.249989" height="375" preserveAspectRatio="xMidYMid meet" version="1.0"><defs><clipPath id="id1"><path d="M 5 5 L 275 5 L 275 275 L 5 275 Z M 5 5 " clip-rule="nonzero"/></clipPath><clipPath id="id2"><path d="M 44.792969 5.628906 L 235.710938 5.628906 C 236.992188 5.628906 238.273438 5.691406 239.546875 5.816406 C 240.824219 5.945312 242.09375 6.132812 243.351562 6.382812 C 244.609375 6.632812 245.851562 6.945312 247.078125 7.316406 C 248.304688 7.6875 249.511719 8.121094 250.695312 8.609375 C 251.882812 9.101562 253.039062 9.648438 254.171875 10.253906 C 255.300781 10.859375 256.402344 11.515625 257.46875 12.230469 C 258.535156 12.941406 259.5625 13.707031 260.554688 14.519531 C 261.546875 15.332031 262.496094 16.191406 263.402344 17.101562 C 264.308594 18.007812 265.167969 18.957031 265.984375 19.949219 C 266.796875 20.9375 267.558594 21.96875 268.273438 23.035156 C 268.984375 24.101562 269.644531 25.199219 270.246094 26.332031 C 270.851562 27.460938 271.398438 28.621094 271.890625 29.804688 C 272.382812 30.992188 272.8125 32.195312 273.1875 33.425781 C 273.558594 34.652344 273.871094 35.894531 274.121094 37.152344 C 274.371094 38.410156 274.558594 39.675781 274.683594 40.953125 C 274.808594 42.230469 274.871094 43.507812 274.871094 44.792969 L 274.871094 235.710938 C 274.871094 236.992188 274.808594 238.273438 274.683594 239.546875 C 274.558594 240.824219 274.371094 242.09375 274.121094 243.351562 C 273.871094 244.609375 273.558594 245.851562 273.1875 247.078125 C 272.8125 248.304688 272.382812 249.511719 271.890625 250.695312 C 271.398438 251.882812 270.851562 253.039062 270.25 254.171875 C 269.644531 255.300781 268.984375 256.402344 268.273438 257.46875 C 267.558594 258.535156 266.796875 259.5625 265.984375 260.554688 C 265.167969 261.546875 264.308594 262.496094 263.402344 263.402344 C 262.496094 264.308594 261.546875 265.167969 260.554688 265.984375 C 259.5625 266.796875 258.535156 267.558594 257.46875 268.273438 C 256.402344 268.984375 255.300781 269.644531 254.171875 270.246094 C 253.039062 270.851562 251.882812 271.398438 250.695312 271.890625 C 249.511719 272.382812 248.304688 272.8125 247.078125 273.1875 C 245.851562 273.558594 244.609375 273.871094 243.351562 274.121094 C 242.09375 274.371094 240.824219 274.558594 239.546875 274.683594 C 238.273438 274.808594 236.992188 274.871094 235.710938 274.871094 L 44.792969 274.871094 C 43.507812 274.871094 42.230469 274.808594 40.953125 274.683594 C 39.675781 274.558594 38.410156 274.371094 37.152344 274.121094 C 35.894531 273.871094 34.652344 273.558594 33.425781 273.1875 C 32.195312 272.8125 30.992188 272.382812 29.804688 271.890625 C 28.621094 271.398438 27.460938 270.851562 26.332031 270.25 C 25.199219 269.644531 24.101562 268.984375 23.035156 268.273438 C 21.96875 267.558594 20.9375 266.796875 19.949219 265.984375 C 18.957031 265.167969 18.007812 264.308594 17.101562 263.402344 C 16.191406 262.496094 15.332031 261.546875 14.519531 260.554688 C 13.707031 259.5625 12.941406 258.535156 12.230469 257.46875 C 11.515625 256.402344 10.859375 255.300781 10.253906 254.171875 C 9.648438 253.039062 9.101562 251.882812 8.609375 250.695312 C 8.121094 249.511719 7.6875 248.304688 7.316406 247.078125 C 6.945312 245.851562 6.632812 244.609375 6.382812 243.351562 C 6.132812 242.09375 5.945312 240.824219 5.816406 239.546875 C 5.691406 238.273438 5.628906 236.992188 5.628906 235.710938 L 5.628906 44.792969 C 5.628906 43.507812 5.691406 42.230469 5.816406 40.953125 C 5.945312 39.675781 6.132812 38.410156 6.382812 37.152344 C 6.632812 35.894531 6.945312 34.652344 7.316406 33.425781 C 7.6875 32.195312 8.121094 30.992188 8.609375 29.804688 C 9.101562 28.621094 9.648438 27.460938 10.253906 26.332031 C 10.859375 25.199219 11.515625 24.101562 12.230469 23.035156 C 12.941406 21.96875 13.707031 20.9375 14.519531 19.949219 C 15.332031 18.957031 16.191406 18.007812 17.101562 17.101562 C 18.007812 16.191406 18.957031 15.332031 19.949219 14.519531 C 20.9375 13.707031 21.96875 12.941406 23.035156 12.230469 C 24.101562 11.515625 25.199219 10.859375 26.332031 10.253906 C 27.460938 9.648438 28.621094 9.101562 29.804688 8.609375 C 30.992188 8.121094 32.195312 7.6875 33.425781 7.316406 C 34.652344 6.945312 35.894531 6.632812 37.152344 6.382812 C 38.410156 6.132812 39.675781 5.945312 40.953125 5.816406 C 42.230469 5.691406 43.507812 5.628906 44.792969 5.628906 Z M 44.792969 5.628906 " clip-rule="nonzero"/></clipPath><linearGradient x1="286.5" gradientTransform="matrix(0.489532, 0, 0, 0.489532, 0.00000575, 0)" y1="11.5" x2="286.5" gradientUnits="userSpaceOnUse" y2="561.499999" id="id3"><stop stop-opacity="1" stop-color="rgb(65.499878%, 66.299438%, 67.498779%)" offset="0"/><stop stop-opacity="1" stop-color="rgb(65.79895%, 66.598511%, 67.797852%)" offset="0.00390625"/><stop stop-opacity="1" stop-color="rgb(66.098022%, 66.897583%, 68.09845%)" offset="0.0078125"/><stop stop-opacity="1" stop-color="rgb(66.397095%, 67.196655%, 68.397522%)" offset="0.0117188"/><stop stop-opacity="1" stop-color="rgb(66.697693%, 67.497253%, 68.696594%)" offset="0.015625"/><stop stop-opacity="1" stop-color="rgb(66.996765%, 67.796326%, 68.995667%)" offset="0.0195312"/><stop stop-opacity="1" stop-color="rgb(67.295837%, 68.095398%, 69.296265%)" offset="0.0234375"/><stop stop-opacity="1" stop-color="rgb(67.593384%, 68.391418%, 69.590759%)" offset="0.0273437"/><stop stop-opacity="1" stop-color="rgb(67.89093%, 68.688965%, 69.885254%)" offset="0.03125"/><stop stop-opacity="1" stop-color="rgb(68.179321%, 68.966675%, 70.153809%)" offset="0.0351562"/><stop stop-opacity="1" stop-color="rgb(68.467712%, 69.244385%, 70.422363%)" offset="0.0390625"/><stop stop-opacity="1" stop-color="rgb(68.756104%, 69.522095%, 70.690918%)" offset="0.0429687"/><stop stop-opacity="1" stop-color="rgb(69.044495%, 69.801331%, 70.959473%)" offset="0.046875"/><stop stop-opacity="1" stop-color="rgb(69.33136%, 70.079041%, 71.228027%)" offset="0.0507812"/><stop stop-opacity="1" stop-color="rgb(69.619751%, 70.358276%, 71.496582%)" offset="0.0546875"/><stop stop-opacity="1" stop-color="rgb(69.908142%, 70.635986%, 71.765137%)" offset="0.0585937"/><stop stop-opacity="1" stop-color="rgb(70.196533%, 70.915222%, 72.033691%)" offset="0.0625"/><stop stop-opacity="1" stop-color="rgb(70.483398%, 71.192932%, 72.302246%)" offset="0.0664062"/><stop stop-opacity="1" stop-color="rgb(70.77179%, 71.472168%, 72.570801%)" offset="0.0703125"/><stop stop-opacity="1" stop-color="rgb(71.060181%, 71.749878%, 72.839355%)" offset="0.0742187"/><stop stop-opacity="1" stop-color="rgb(71.348572%, 72.027588%, 73.10791%)" offset="0.078125"/><stop stop-opacity="1" stop-color="rgb(71.636963%, 72.305298%, 73.376465%)" offset="0.0820312"/><stop stop-opacity="1" stop-color="rgb(71.925354%, 72.584534%, 73.64502%)" offset="0.0859375"/><stop stop-opacity="1" stop-color="rgb(72.212219%, 72.862244%, 73.913574%)" offset="0.0898438"/><stop stop-opacity="1" stop-color="rgb(72.50061%, 73.141479%, 74.182129%)" offset="0.09375"/><stop stop-opacity="1" stop-color="rgb(72.789001%, 73.419189%, 74.450684%)" offset="0.0976562"/><stop stop-opacity="1" stop-color="rgb(73.077393%, 73.698425%, 74.719238%)" offset="0.101562"/><stop stop-opacity="1" stop-color="rgb(73.364258%, 73.976135%, 74.987793%)" offset="0.105469"/><stop stop-opacity="1" stop-color="rgb(73.652649%, 74.255371%, 75.256348%)" offset="0.109375"/><stop stop-opacity="1" stop-color="rgb(73.94104%, 74.533081%, 75.524902%)" offset="0.113281"/><stop stop-opacity="1" stop-color="rgb(74.229431%, 74.810791%, 75.793457%)" offset="0.117187"/><stop stop-opacity="1" stop-color="rgb(74.517822%, 75.088501%, 76.062012%)" offset="0.121094"/><stop stop-opacity="1" stop-color="rgb(74.806213%, 75.367737%, 76.330566%)" offset="0.125"/><stop stop-opacity="1" stop-color="rgb(75.093079%, 75.645447%, 76.599121%)" offset="0.128906"/><stop stop-opacity="1" stop-color="rgb(75.38147%, 75.924683%, 76.867676%)" offset="0.132812"/><stop stop-opacity="1" stop-color="rgb(75.669861%, 76.202393%, 77.13623%)" offset="0.136719"/><stop stop-opacity="1" stop-color="rgb(75.958252%, 76.481628%, 77.404785%)" offset="0.140625"/><stop stop-opacity="1" stop-color="rgb(76.245117%, 76.759338%, 77.67334%)" offset="0.144531"/><stop stop-opacity="1" stop-color="rgb(76.533508%, 77.038574%, 77.941895%)" offset="0.148437"/><stop stop-opacity="1" stop-color="rgb(76.821899%, 77.316284%, 78.210449%)" offset="0.152344"/><stop stop-opacity="1" stop-color="rgb(77.110291%, 77.593994%, 78.479004%)" offset="0.15625"/><stop stop-opacity="1" stop-color="rgb(77.398682%, 77.871704%, 78.747559%)" offset="0.160156"/><stop stop-opacity="1" stop-color="rgb(77.687073%, 78.15094%, 79.016113%)" offset="0.164062"/><stop stop-opacity="1" stop-color="rgb(77.973938%, 78.42865%, 79.284668%)" offset="0.167969"/><stop stop-opacity="1" stop-color="rgb(78.262329%, 78.707886%, 79.553223%)" offset="0.171875"/><stop stop-opacity="1" stop-color="rgb(78.55072%, 78.985596%, 79.821777%)" offset="0.175781"/><stop stop-opacity="1" stop-color="rgb(78.839111%, 79.264832%, 80.090332%)" offset="0.179688"/><stop stop-opacity="1" stop-color="rgb(79.125977%, 79.542542%, 80.358887%)" offset="0.183594"/><stop stop-opacity="1" stop-color="rgb(79.414368%, 79.821777%, 80.627441%)" offset="0.1875"/><stop stop-opacity="1" stop-color="rgb(79.646301%, 80.050659%, 80.847168%)" offset="0.191406"/><stop stop-opacity="1" stop-color="rgb(79.879761%, 80.281067%, 81.06842%)" offset="0.195312"/><stop stop-opacity="1" stop-color="rgb(80.08728%, 80.487061%, 81.265259%)" offset="0.199219"/><stop stop-opacity="1" stop-color="rgb(80.2948%, 80.69458%, 81.463623%)" offset="0.203125"/><stop stop-opacity="1" stop-color="rgb(80.500793%, 80.900574%, 81.660461%)" offset="0.207031"/><stop stop-opacity="1" stop-color="rgb(80.708313%, 81.108093%, 81.858826%)" offset="0.210937"/><stop stop-opacity="1" stop-color="rgb(80.914307%, 81.314087%, 82.055664%)" offset="0.214844"/><stop stop-opacity="1" stop-color="rgb(81.121826%, 81.521606%, 82.254028%)" offset="0.21875"/><stop stop-opacity="1" stop-color="rgb(81.32782%, 81.7276%, 82.450867%)" offset="0.222656"/><stop stop-opacity="1" stop-color="rgb(81.535339%, 81.93512%, 82.649231%)" offset="0.226562"/><stop stop-opacity="1" stop-color="rgb(81.741333%, 82.141113%, 82.846069%)" offset="0.230469"/><stop stop-opacity="1" stop-color="rgb(81.948853%, 82.348633%, 83.044434%)" offset="0.234375"/><stop stop-opacity="1" stop-color="rgb(82.154846%, 82.554626%, 83.241272%)" offset="0.238281"/><stop stop-opacity="1" stop-color="rgb(82.362366%, 82.762146%, 83.439636%)" offset="0.242187"/><stop stop-opacity="1" stop-color="rgb(82.568359%, 82.96814%, 83.636475%)" offset="0.246094"/><stop stop-opacity="1" stop-color="rgb(82.775879%, 83.175659%, 83.834839%)" offset="0.25"/><stop stop-opacity="1" stop-color="rgb(82.981873%, 83.381653%, 84.031677%)" offset="0.253906"/><stop stop-opacity="1" stop-color="rgb(83.189392%, 83.589172%, 84.230042%)" offset="0.257812"/><stop stop-opacity="1" stop-color="rgb(83.395386%, 83.795166%, 84.42688%)" offset="0.261719"/><stop stop-opacity="1" stop-color="rgb(83.602905%, 84.002686%, 84.625244%)" offset="0.265625"/><stop stop-opacity="1" stop-color="rgb(83.808899%, 84.208679%, 84.822083%)" offset="0.269531"/><stop stop-opacity="1" stop-color="rgb(84.016418%, 84.416199%, 85.020447%)" offset="0.273437"/><stop stop-opacity="1" stop-color="rgb(84.222412%, 84.622192%, 85.217285%)" offset="0.277344"/><stop stop-opacity="1" stop-color="rgb(84.429932%, 84.829712%, 85.415649%)" offset="0.28125"/><stop stop-opacity="1" stop-color="rgb(84.635925%, 85.035706%, 85.612488%)" offset="0.285156"/><stop stop-opacity="1" stop-color="rgb(84.843445%, 85.243225%, 85.810852%)" offset="0.289062"/><stop stop-opacity="1" stop-color="rgb(85.049438%, 85.449219%, 86.00769%)" offset="0.292969"/><stop stop-opacity="1" stop-color="rgb(85.256958%, 85.656738%, 86.206055%)" offset="0.296875"/><stop stop-opacity="1" stop-color="rgb(85.462952%, 85.862732%, 86.402893%)" offset="0.300781"/><stop stop-opacity="1" stop-color="rgb(85.670471%, 86.070251%, 86.601257%)" offset="0.304687"/><stop stop-opacity="1" stop-color="rgb(85.876465%, 86.277771%, 86.798096%)" offset="0.308594"/><stop stop-opacity="1" stop-color="rgb(86.083984%, 86.485291%, 86.99646%)" offset="0.3125"/><stop stop-opacity="1" stop-color="rgb(86.289978%, 86.691284%, 87.193298%)" offset="0.316406"/><stop stop-opacity="1" stop-color="rgb(86.497498%, 86.898804%, 87.391663%)" offset="0.320312"/><stop stop-opacity="1" stop-color="rgb(86.703491%, 87.104797%, 87.588501%)" offset="0.324219"/><stop stop-opacity="1" stop-color="rgb(86.911011%, 87.312317%, 87.786865%)" offset="0.328125"/><stop stop-opacity="1" stop-color="rgb(87.11853%, 87.518311%, 87.983704%)" offset="0.332031"/><stop stop-opacity="1" stop-color="rgb(87.32605%, 87.72583%, 88.182068%)" offset="0.335938"/><stop stop-opacity="1" stop-color="rgb(87.532043%, 87.931824%, 88.378906%)" offset="0.339844"/><stop stop-opacity="1" stop-color="rgb(87.739563%, 88.139343%, 88.577271%)" offset="0.34375"/><stop stop-opacity="1" stop-color="rgb(87.945557%, 88.345337%, 88.774109%)" offset="0.347656"/><stop stop-opacity="1" stop-color="rgb(88.153076%, 88.552856%, 88.972473%)" offset="0.351562"/><stop stop-opacity="1" stop-color="rgb(88.35907%, 88.75885%, 89.169312%)" offset="0.355469"/><stop stop-opacity="1" stop-color="rgb(88.566589%, 88.96637%, 89.367676%)" offset="0.359375"/><stop stop-opacity="1" stop-color="rgb(88.708496%, 89.108276%, 89.500427%)" offset="0.367187"/><stop stop-opacity="1" stop-color="rgb(88.986206%, 89.387512%, 89.762878%)" offset="0.375"/><stop stop-opacity="1" stop-color="rgb(89.260864%, 89.660645%, 90.019226%)" offset="0.382812"/><stop stop-opacity="1" stop-color="rgb(89.533997%, 89.933777%, 90.275574%)" offset="0.390625"/><stop stop-opacity="1" stop-color="rgb(89.807129%, 90.206909%, 90.530396%)" offset="0.398438"/><stop stop-opacity="1" stop-color="rgb(90.080261%, 90.480042%, 90.786743%)" offset="0.40625"/><stop stop-opacity="1" stop-color="rgb(90.353394%, 90.7547%, 91.043091%)" offset="0.414062"/><stop stop-opacity="1" stop-color="rgb(90.628052%, 91.027832%, 91.299438%)" offset="0.421875"/><stop stop-opacity="1" stop-color="rgb(90.901184%, 91.300964%, 91.555786%)" offset="0.429687"/><stop stop-opacity="1" stop-color="rgb(91.174316%, 91.574097%, 91.810608%)" offset="0.4375"/><stop stop-opacity="1" stop-color="rgb(91.447449%, 91.847229%, 92.066956%)" offset="0.445312"/><stop stop-opacity="1" stop-color="rgb(91.720581%, 92.121887%, 92.323303%)" offset="0.453125"/><stop stop-opacity="1" stop-color="rgb(91.995239%, 92.39502%, 92.579651%)" offset="0.460937"/><stop stop-opacity="1" stop-color="rgb(92.268372%, 92.668152%, 92.835999%)" offset="0.46875"/><stop stop-opacity="1" stop-color="rgb(92.541504%, 92.941284%, 93.092346%)" offset="0.476562"/><stop stop-opacity="1" stop-color="rgb(92.814636%, 93.214417%, 93.347168%)" offset="0.484375"/><stop stop-opacity="1" stop-color="rgb(93.087769%, 93.489075%, 93.603516%)" offset="0.492188"/><stop stop-opacity="1" stop-color="rgb(93.362427%, 93.762207%, 93.859863%)" offset="0.5"/><stop stop-opacity="1" stop-color="rgb(93.635559%, 94.035339%, 94.116211%)" offset="0.507812"/><stop stop-opacity="1" stop-color="rgb(93.908691%, 94.308472%, 94.372559%)" offset="0.515625"/><stop stop-opacity="1" stop-color="rgb(94.181824%, 94.581604%, 94.628906%)" offset="0.523438"/><stop stop-opacity="1" stop-color="rgb(94.454956%, 94.856262%, 94.883728%)" offset="0.53125"/><stop stop-opacity="1" stop-color="rgb(94.729614%, 95.129395%, 95.140076%)" offset="0.539062"/><stop stop-opacity="1" stop-color="rgb(94.949341%, 95.343018%, 95.343018%)" offset="0.546875"/><stop stop-opacity="1" stop-color="rgb(95.185852%, 95.555115%, 95.555115%)" offset="0.5625"/><stop stop-opacity="1" stop-color="rgb(95.489502%, 95.829773%, 95.829773%)" offset="0.578125"/><stop stop-opacity="1" stop-color="rgb(95.794678%, 96.102905%, 96.102905%)" offset="0.59375"/><stop stop-opacity="1" stop-color="rgb(96.099854%, 96.376038%, 96.376038%)" offset="0.609375"/><stop stop-opacity="1" stop-color="rgb(96.403503%, 96.64917%, 96.64917%)" offset="0.625"/><stop stop-opacity="1" stop-color="rgb(96.708679%, 96.922302%, 96.922302%)" offset="0.640625"/><stop stop-opacity="1" stop-color="rgb(97.013855%, 97.19696%, 97.19696%)" offset="0.65625"/><stop stop-opacity="1" stop-color="rgb(97.317505%, 97.470093%, 97.470093%)" offset="0.671875"/><stop stop-opacity="1" stop-color="rgb(97.622681%, 97.743225%, 97.743225%)" offset="0.6875"/><stop stop-opacity="1" stop-color="rgb(97.927856%, 98.016357%, 98.016357%)" offset="0.703125"/><stop stop-opacity="1" stop-color="rgb(98.233032%, 98.28949%, 98.28949%)" offset="0.71875"/><stop stop-opacity="1" stop-color="rgb(98.536682%, 98.564148%, 98.564148%)" offset="0.734375"/><stop stop-opacity="1" stop-color="rgb(98.76709%, 98.773193%, 98.773193%)" offset="0.75"/><stop stop-opacity="1" stop-color="rgb(98.988342%, 98.988342%, 98.988342%)" offset="0.8125"/><stop stop-opacity="1" stop-color="rgb(99.276733%, 99.276733%, 99.276733%)" offset="0.875"/><stop stop-opacity="1" stop-color="rgb(99.565125%, 99.565125%, 99.565125%)" offset="0.9375"/><stop stop-opacity="1" stop-color="rgb(99.853516%, 99.853516%, 99.853516%)" offset="1"/></linearGradient><clipPath id="id4"><path d="M 0 0 L 280.503906 0 L 280.503906 280.503906 L 0 280.503906 Z M 0 0 " clip-rule="nonzero"/></clipPath><clipPath id="id5"><path d="M 22 22 L 258 22 L 258 258 L 22 258 Z M 22 22 " clip-rule="nonzero"/></clipPath><clipPath id="id6"><path d="M 47.238281 22.761719 L 233.261719 22.761719 C 234.0625 22.761719 234.863281 22.800781 235.660156 22.882812 C 236.460938 22.960938 237.25 23.078125 238.039062 23.234375 C 238.824219 23.390625 239.601562 23.585938 240.367188 23.816406 C 241.132812 24.050781 241.886719 24.320312 242.628906 24.625 C 243.371094 24.933594 244.09375 25.277344 244.800781 25.652344 C 245.507812 26.03125 246.195312 26.441406 246.859375 26.886719 C 247.527344 27.332031 248.171875 27.8125 248.789062 28.320312 C 249.410156 28.828125 250.003906 29.367188 250.570312 29.933594 C 251.136719 30.5 251.675781 31.09375 252.183594 31.710938 C 252.691406 32.332031 253.167969 32.976562 253.613281 33.640625 C 254.058594 34.308594 254.46875 34.996094 254.847656 35.703125 C 255.226562 36.410156 255.570312 37.132812 255.875 37.875 C 256.183594 38.613281 256.453125 39.367188 256.683594 40.132812 C 256.917969 40.902344 257.113281 41.679688 257.269531 42.464844 C 257.425781 43.25 257.542969 44.042969 257.621094 44.839844 C 257.699219 45.636719 257.738281 46.4375 257.738281 47.238281 L 257.738281 233.261719 C 257.738281 234.0625 257.699219 234.863281 257.621094 235.660156 C 257.542969 236.460938 257.425781 237.25 257.269531 238.039062 C 257.113281 238.824219 256.917969 239.601562 256.683594 240.367188 C 256.453125 241.132812 256.183594 241.886719 255.875 242.628906 C 255.570312 243.371094 255.226562 244.09375 254.847656 244.800781 C 254.46875 245.507812 254.058594 246.195312 253.613281 246.859375 C 253.167969 247.527344 252.691406 248.171875 252.183594 248.789062 C 251.675781 249.410156 251.136719 250.003906 250.570312 250.570312 C 250.003906 251.136719 249.410156 251.675781 248.789062 252.183594 C 248.171875 252.691406 247.527344 253.167969 246.859375 253.613281 C 246.195312 254.058594 245.507812 254.46875 244.800781 254.847656 C 244.09375 255.226562 243.371094 255.570312 242.628906 255.875 C 241.886719 256.183594 241.132812 256.453125 240.367188 256.683594 C 239.601562 256.917969 238.824219 257.113281 238.039062 257.269531 C 237.25 257.425781 236.460938 257.542969 235.660156 257.621094 C 234.863281 257.699219 234.0625 257.738281 233.261719 257.738281 L 47.238281 257.738281 C 46.4375 257.738281 45.636719 257.699219 44.839844 257.621094 C 44.042969 257.542969 43.25 257.425781 42.464844 257.269531 C 41.679688 257.113281 40.902344 256.917969 40.132812 256.683594 C 39.367188 256.453125 38.613281 256.183594 37.875 255.875 C 37.132812 255.570312 36.410156 255.226562 35.703125 254.847656 C 34.996094 254.46875 34.308594 254.058594 33.640625 253.613281 C 32.976562 253.167969 32.332031 252.691406 31.710938 252.183594 C 31.09375 251.675781 30.5 251.136719 29.933594 250.570312 C 29.367188 250.003906 28.828125 249.410156 28.320312 248.789062 C 27.8125 248.171875 27.332031 247.527344 26.886719 246.859375 C 26.441406 246.195312 26.03125 245.507812 25.652344 244.800781 C 25.277344 244.09375 24.933594 243.371094 24.625 242.628906 C 24.320312 241.886719 24.050781 241.132812 23.816406 240.367188 C 23.585938 239.601562 23.390625 238.824219 23.234375 238.039062 C 23.078125 237.25 22.960938 236.460938 22.882812 235.660156 C 22.800781 234.863281 22.761719 234.0625 22.761719 233.261719 L 22.761719 47.238281 C 22.761719 46.4375 22.800781 45.636719 22.882812 44.839844 C 22.960938 44.042969 23.078125 43.25 23.234375 42.464844 C 23.390625 41.679688 23.585938 40.902344 23.816406 40.132812 C 24.050781 39.367188 24.320312 38.613281 24.625 37.875 C 24.933594 37.132812 25.277344 36.410156 25.652344 35.703125 C 26.03125 34.996094 26.441406 34.308594 26.886719 33.640625 C 27.332031 32.976562 27.8125 32.332031 28.320312 31.710938 C 28.828125 31.09375 29.367188 30.5 29.933594 29.933594 C 30.5 29.367188 31.09375 28.828125 31.710938 28.320312 C 32.332031 27.8125 32.976562 27.332031 33.640625 26.886719 C 34.308594 26.441406 34.996094 26.03125 35.703125 25.652344 C 36.410156 25.277344 37.132812 24.933594 37.875 24.625 C 38.613281 24.320312 39.367188 24.050781 40.132812 23.816406 C 40.902344 23.585938 41.679688 23.390625 42.464844 23.234375 C 43.25 23.078125 44.042969 22.960938 44.839844 22.882812 C 45.636719 22.800781 46.4375 22.761719 47.238281 22.761719 Z M 47.238281 22.761719 " clip-rule="nonzero"/></clipPath><linearGradient x1="286.5" gradientTransform="matrix(0.489532, 0, 0, 0.489532, 0.00000575, 0)" y1="46.5" x2="286.5" gradientUnits="userSpaceOnUse" y2="526.5" id="id7"><stop stop-opacity="1" stop-color="rgb(100%, 100%, 100%)" offset="0"/><stop stop-opacity="1" stop-color="rgb(99.87793%, 99.87793%, 99.87793%)" offset="0.0625"/><stop stop-opacity="1" stop-color="rgb(99.635315%, 99.635315%, 99.635315%)" offset="0.125"/><stop stop-opacity="1" stop-color="rgb(99.394226%, 99.394226%, 99.394226%)" offset="0.1875"/><stop stop-opacity="1" stop-color="rgb(99.151611%, 99.151611%, 99.151611%)" offset="0.25"/><stop stop-opacity="1" stop-color="rgb(98.893738%, 98.893738%, 98.893738%)" offset="0.3125"/><stop stop-opacity="1" stop-color="rgb(98.626709%, 98.626709%, 98.626709%)" offset="0.328125"/><stop stop-opacity="1" stop-color="rgb(98.365784%, 98.365784%, 98.365784%)" offset="0.34375"/><stop stop-opacity="1" stop-color="rgb(98.106384%, 98.106384%, 98.106384%)" offset="0.359375"/><stop stop-opacity="1" stop-color="rgb(97.845459%, 97.845459%, 97.845459%)" offset="0.375"/><stop stop-opacity="1" stop-color="rgb(97.584534%, 97.584534%, 97.584534%)" offset="0.390625"/><stop stop-opacity="1" stop-color="rgb(97.325134%, 97.325134%, 97.325134%)" offset="0.40625"/><stop stop-opacity="1" stop-color="rgb(97.064209%, 97.064209%, 97.064209%)" offset="0.421875"/><stop stop-opacity="1" stop-color="rgb(96.803284%, 96.803284%, 96.803284%)" offset="0.4375"/><stop stop-opacity="1" stop-color="rgb(96.543884%, 96.543884%, 96.543884%)" offset="0.453125"/><stop stop-opacity="1" stop-color="rgb(96.282959%, 96.282959%, 96.282959%)" offset="0.46875"/><stop stop-opacity="1" stop-color="rgb(96.022034%, 96.022034%, 96.022034%)" offset="0.484375"/><stop stop-opacity="1" stop-color="rgb(95.762634%, 95.762634%, 95.762634%)" offset="0.5"/><stop stop-opacity="1" stop-color="rgb(95.501709%, 95.501709%, 95.501709%)" offset="0.515625"/><stop stop-opacity="1" stop-color="rgb(95.275879%, 95.275879%, 95.275879%)" offset="0.523438"/><stop stop-opacity="1" stop-color="rgb(95.043945%, 95.043945%, 95.043945%)" offset="0.53125"/><stop stop-opacity="1" stop-color="rgb(94.772339%, 94.772339%, 94.772339%)" offset="0.539062"/><stop stop-opacity="1" stop-color="rgb(94.502258%, 94.502258%, 94.502258%)" offset="0.546875"/><stop stop-opacity="1" stop-color="rgb(94.230652%, 94.230652%, 94.230652%)" offset="0.554688"/><stop stop-opacity="1" stop-color="rgb(93.959045%, 93.959045%, 93.959045%)" offset="0.5625"/><stop stop-opacity="1" stop-color="rgb(93.688965%, 93.688965%, 93.688965%)" offset="0.570312"/><stop stop-opacity="1" stop-color="rgb(93.417358%, 93.417358%, 93.417358%)" offset="0.578125"/><stop stop-opacity="1" stop-color="rgb(93.145752%, 93.145752%, 93.145752%)" offset="0.585938"/><stop stop-opacity="1" stop-color="rgb(92.875671%, 92.875671%, 92.875671%)" offset="0.59375"/><stop stop-opacity="1" stop-color="rgb(92.604065%, 92.604065%, 92.604065%)" offset="0.601562"/><stop stop-opacity="1" stop-color="rgb(92.332458%, 92.332458%, 92.332458%)" offset="0.609375"/><stop stop-opacity="1" stop-color="rgb(92.060852%, 92.060852%, 92.060852%)" offset="0.617188"/><stop stop-opacity="1" stop-color="rgb(91.790771%, 91.790771%, 91.790771%)" offset="0.625"/><stop stop-opacity="1" stop-color="rgb(91.519165%, 91.519165%, 91.519165%)" offset="0.632812"/><stop stop-opacity="1" stop-color="rgb(91.247559%, 91.247559%, 91.247559%)" offset="0.640625"/><stop stop-opacity="1" stop-color="rgb(90.977478%, 90.977478%, 90.977478%)" offset="0.648437"/><stop stop-opacity="1" stop-color="rgb(90.705872%, 90.705872%, 90.705872%)" offset="0.65625"/><stop stop-opacity="1" stop-color="rgb(90.434265%, 90.434265%, 90.434265%)" offset="0.664062"/><stop stop-opacity="1" stop-color="rgb(90.164185%, 90.164185%, 90.164185%)" offset="0.671875"/><stop stop-opacity="1" stop-color="rgb(89.892578%, 89.892578%, 89.892578%)" offset="0.679688"/><stop stop-opacity="1" stop-color="rgb(89.620972%, 89.620972%, 89.620972%)" offset="0.6875"/><stop stop-opacity="1" stop-color="rgb(89.306641%, 89.306641%, 89.306641%)" offset="0.695312"/><stop stop-opacity="1" stop-color="rgb(88.926697%, 88.926697%, 88.926697%)" offset="0.699219"/><stop stop-opacity="1" stop-color="rgb(88.726807%, 88.726807%, 88.726807%)" offset="0.703125"/><stop stop-opacity="1" stop-color="rgb(88.525391%, 88.525391%, 88.525391%)" offset="0.707031"/><stop stop-opacity="1" stop-color="rgb(88.3255%, 88.3255%, 88.3255%)" offset="0.710938"/><stop stop-opacity="1" stop-color="rgb(88.12561%, 88.12561%, 88.12561%)" offset="0.714844"/><stop stop-opacity="1" stop-color="rgb(87.92572%, 87.92572%, 87.92572%)" offset="0.71875"/><stop stop-opacity="1" stop-color="rgb(87.72583%, 87.72583%, 87.72583%)" offset="0.722656"/><stop stop-opacity="1" stop-color="rgb(87.52594%, 87.52594%, 87.52594%)" offset="0.726563"/><stop stop-opacity="1" stop-color="rgb(87.324524%, 87.324524%, 87.324524%)" offset="0.730469"/><stop stop-opacity="1" stop-color="rgb(87.124634%, 87.124634%, 87.124634%)" offset="0.734375"/><stop stop-opacity="1" stop-color="rgb(86.924744%, 86.924744%, 86.924744%)" offset="0.738281"/><stop stop-opacity="1" stop-color="rgb(86.724854%, 86.724854%, 86.724854%)" offset="0.742188"/><stop stop-opacity="1" stop-color="rgb(86.523438%, 86.523438%, 86.523438%)" offset="0.746094"/><stop stop-opacity="1" stop-color="rgb(86.323547%, 86.323547%, 86.323547%)" offset="0.75"/><stop stop-opacity="1" stop-color="rgb(86.123657%, 86.123657%, 86.123657%)" offset="0.753906"/><stop stop-opacity="1" stop-color="rgb(85.923767%, 85.923767%, 85.923767%)" offset="0.757812"/><stop stop-opacity="1" stop-color="rgb(85.723877%, 85.723877%, 85.723877%)" offset="0.761719"/><stop stop-opacity="1" stop-color="rgb(85.523987%, 85.523987%, 85.523987%)" offset="0.765625"/><stop stop-opacity="1" stop-color="rgb(85.322571%, 85.322571%, 85.322571%)" offset="0.769531"/><stop stop-opacity="1" stop-color="rgb(85.122681%, 85.122681%, 85.122681%)" offset="0.773438"/><stop stop-opacity="1" stop-color="rgb(84.922791%, 84.922791%, 84.922791%)" offset="0.777344"/><stop stop-opacity="1" stop-color="rgb(84.7229%, 84.7229%, 84.7229%)" offset="0.78125"/><stop stop-opacity="1" stop-color="rgb(84.521484%, 84.521484%, 84.521484%)" offset="0.785156"/><stop stop-opacity="1" stop-color="rgb(84.321594%, 84.321594%, 84.321594%)" offset="0.789062"/><stop stop-opacity="1" stop-color="rgb(84.121704%, 84.121704%, 84.121704%)" offset="0.792969"/><stop stop-opacity="1" stop-color="rgb(83.921814%, 83.921814%, 83.921814%)" offset="0.796875"/><stop stop-opacity="1" stop-color="rgb(83.721924%, 83.721924%, 83.721924%)" offset="0.800781"/><stop stop-opacity="1" stop-color="rgb(83.522034%, 83.522034%, 83.522034%)" offset="0.804688"/><stop stop-opacity="1" stop-color="rgb(83.320618%, 83.320618%, 83.320618%)" offset="0.808594"/><stop stop-opacity="1" stop-color="rgb(83.120728%, 83.120728%, 83.120728%)" offset="0.8125"/><stop stop-opacity="1" stop-color="rgb(82.920837%, 82.920837%, 82.920837%)" offset="0.816406"/><stop stop-opacity="1" stop-color="rgb(82.720947%, 82.720947%, 82.720947%)" offset="0.820313"/><stop stop-opacity="1" stop-color="rgb(82.519531%, 82.519531%, 82.519531%)" offset="0.824219"/><stop stop-opacity="1" stop-color="rgb(82.319641%, 82.319641%, 82.319641%)" offset="0.828125"/><stop stop-opacity="1" stop-color="rgb(82.119751%, 82.119751%, 82.119751%)" offset="0.832031"/><stop stop-opacity="1" stop-color="rgb(81.919861%, 81.919861%, 81.919861%)" offset="0.835938"/><stop stop-opacity="1" stop-color="rgb(81.719971%, 81.719971%, 81.719971%)" offset="0.839844"/><stop stop-opacity="1" stop-color="rgb(81.520081%, 81.520081%, 81.520081%)" offset="0.84375"/><stop stop-opacity="1" stop-color="rgb(81.300354%, 81.300354%, 81.300354%)" offset="0.847656"/><stop stop-opacity="1" stop-color="rgb(81.080627%, 81.080627%, 81.080627%)" offset="0.851562"/><stop stop-opacity="1" stop-color="rgb(80.784607%, 80.784607%, 80.784607%)" offset="0.855469"/><stop stop-opacity="1" stop-color="rgb(80.490112%, 80.490112%, 80.490112%)" offset="0.859375"/><stop stop-opacity="1" stop-color="rgb(80.194092%, 80.194092%, 80.194092%)" offset="0.863281"/><stop stop-opacity="1" stop-color="rgb(79.898071%, 79.898071%, 79.898071%)" offset="0.867187"/><stop stop-opacity="1" stop-color="rgb(79.602051%, 79.602051%, 79.602051%)" offset="0.871094"/><stop stop-opacity="1" stop-color="rgb(79.30603%, 79.30603%, 79.30603%)" offset="0.875"/><stop stop-opacity="1" stop-color="rgb(79.01001%, 79.01001%, 79.01001%)" offset="0.878906"/><stop stop-opacity="1" stop-color="rgb(78.715515%, 78.715515%, 78.715515%)" offset="0.882812"/><stop stop-opacity="1" stop-color="rgb(78.419495%, 78.419495%, 78.419495%)" offset="0.886719"/><stop stop-opacity="1" stop-color="rgb(78.123474%, 78.123474%, 78.123474%)" offset="0.890625"/><stop stop-opacity="1" stop-color="rgb(77.827454%, 77.827454%, 77.827454%)" offset="0.894531"/><stop stop-opacity="1" stop-color="rgb(77.531433%, 77.531433%, 77.531433%)" offset="0.898438"/><stop stop-opacity="1" stop-color="rgb(77.235413%, 77.235413%, 77.235413%)" offset="0.902344"/><stop stop-opacity="1" stop-color="rgb(76.940918%, 76.940918%, 76.940918%)" offset="0.90625"/><stop stop-opacity="1" stop-color="rgb(76.644897%, 76.644897%, 76.644897%)" offset="0.910156"/><stop stop-opacity="1" stop-color="rgb(76.348877%, 76.348877%, 76.348877%)" offset="0.914062"/><stop stop-opacity="1" stop-color="rgb(76.052856%, 76.052856%, 76.052856%)" offset="0.917969"/><stop stop-opacity="1" stop-color="rgb(75.756836%, 75.756836%, 75.756836%)" offset="0.921875"/><stop stop-opacity="1" stop-color="rgb(75.460815%, 75.460815%, 75.460815%)" offset="0.925781"/><stop stop-opacity="1" stop-color="rgb(75.166321%, 75.166321%, 75.166321%)" offset="0.929688"/><stop stop-opacity="1" stop-color="rgb(74.8703%, 74.8703%, 74.8703%)" offset="0.933594"/><stop stop-opacity="1" stop-color="rgb(74.57428%, 74.57428%, 74.57428%)" offset="0.9375"/><stop stop-opacity="1" stop-color="rgb(74.278259%, 74.278259%, 74.278259%)" offset="0.941406"/><stop stop-opacity="1" stop-color="rgb(73.982239%, 73.982239%, 73.982239%)" offset="0.945312"/><stop stop-opacity="1" stop-color="rgb(73.686218%, 73.686218%, 73.686218%)" offset="0.949219"/><stop stop-opacity="1" stop-color="rgb(73.391724%, 73.391724%, 73.391724%)" offset="0.953125"/><stop stop-opacity="1" stop-color="rgb(73.095703%, 73.095703%, 73.095703%)" offset="0.957031"/><stop stop-opacity="1" stop-color="rgb(72.799683%, 72.799683%, 72.799683%)" offset="0.960937"/><stop stop-opacity="1" stop-color="rgb(72.503662%, 72.503662%, 72.503662%)" offset="0.964844"/><stop stop-opacity="1" stop-color="rgb(72.207642%, 72.207642%, 72.207642%)" offset="0.96875"/><stop stop-opacity="1" stop-color="rgb(71.911621%, 71.911621%, 71.911621%)" offset="0.972656"/><stop stop-opacity="1" stop-color="rgb(71.617126%, 71.617126%, 71.617126%)" offset="0.976562"/><stop stop-opacity="1" stop-color="rgb(71.321106%, 71.321106%, 71.321106%)" offset="0.980469"/><stop stop-opacity="1" stop-color="rgb(71.025085%, 71.025085%, 71.025085%)" offset="0.984375"/><stop stop-opacity="1" stop-color="rgb(70.768738%, 70.768738%, 70.768738%)" offset="0.988281"/><stop stop-opacity="1" stop-color="rgb(70.51239%, 70.51239%, 70.51239%)" offset="0.992188"/><stop stop-opacity="1" stop-color="rgb(70.355225%, 70.355225%, 70.355225%)" offset="1"/></linearGradient></defs><g clip-path="url(#id1)"><g clip-path="url(#id2)"><path fill="url(#id3)" d="M 5.628906 5.628906 L 5.628906 274.871094 L 274.871094 274.871094 L 274.871094 5.628906 Z M 5.628906 5.628906 " fill-rule="nonzero"/></g></g><g clip-path="url(#id4)"><path stroke-linecap="butt" transform="matrix(0.489532, 0, 0, 0.489532, 0.00000575, 0)" fill="none" stroke-linejoin="miter" d="M 91.501562 11.498541 L 481.502385 11.498541 C 484.11968 11.498541 486.736974 11.626214 489.33831 11.88156 C 491.947625 12.144885 494.540981 12.527904 497.110398 13.038595 C 499.679815 13.549287 502.217314 14.187651 504.722895 14.945709 C 507.228475 15.703767 509.694158 16.589498 512.111964 17.586942 C 514.537749 18.592367 516.899698 19.709505 519.213769 20.946336 C 521.519861 22.183167 523.770096 23.523733 525.948515 24.983991 C 528.126934 26.436271 530.225557 28.000264 532.252365 29.660011 C 534.279172 31.319759 536.218204 33.075262 538.069461 34.934498 C 539.920718 36.785755 541.676221 38.724788 543.343948 40.751595 C 545.003696 42.770423 546.559709 44.877026 548.019968 47.055445 C 549.472247 49.233863 550.820793 51.476119 552.049644 53.79019 C 553.286475 56.096282 554.403613 58.46621 555.409037 60.884016 C 556.414462 63.309801 557.292213 65.767505 558.05825 68.281065 C 558.816308 70.786646 559.454673 73.324144 559.965364 75.893562 C 560.476056 78.462979 560.859075 81.048355 561.11442 83.65767 C 561.369766 86.266985 561.497439 88.8763 561.497439 91.501574 L 561.497439 481.502397 C 561.497439 484.119692 561.369766 486.736986 561.11442 489.338322 C 560.859075 491.947637 560.476056 494.540992 559.965364 497.11041 C 559.454673 499.679827 558.816308 502.217326 558.05825 504.722906 C 557.292213 507.228487 556.414462 509.69417 555.409037 512.111976 C 554.403613 514.537761 553.286475 516.89971 552.057624 519.213781 C 550.820793 521.519873 549.472247 523.770108 548.019968 525.948527 C 546.559709 528.126946 545.003696 530.225569 543.343948 532.252376 C 541.676221 534.279184 539.920718 536.218216 538.069461 538.069473 C 536.218204 539.92073 534.279172 541.676233 532.252365 543.34396 C 530.225557 545.003708 528.126934 546.559721 525.948515 548.01998 C 523.770096 549.472259 521.519861 550.820804 519.213769 552.049656 C 516.899698 553.286487 514.537749 554.403625 512.111964 555.409049 C 509.694158 556.414473 507.228475 557.292225 504.722895 558.058262 C 502.217314 558.81632 499.679815 559.454684 497.110398 559.965376 C 494.540981 560.476068 491.947625 560.859086 489.33831 561.114432 C 486.736974 561.369778 484.11968 561.497451 481.502385 561.497451 L 91.501562 561.497451 C 88.876288 561.497451 86.266973 561.369778 83.657658 561.114432 C 81.048343 560.859086 78.462967 560.476068 75.89355 559.965376 C 73.324133 559.454684 70.786634 558.81632 68.281053 558.058262 C 65.767493 557.292225 63.309789 556.414473 60.884004 555.409049 C 58.466199 554.403625 56.09627 553.286487 53.790178 552.057636 C 51.476107 550.820804 49.233852 549.472259 47.055433 548.01998 C 44.877014 546.559721 42.770411 545.003708 40.751583 543.34396 C 38.724776 541.676233 36.785744 539.92073 34.934487 538.069473 C 33.07525 536.218216 31.319747 534.279184 29.66 532.252376 C 28.000252 530.225569 26.436259 528.126946 24.98398 525.948527 C 23.523721 523.770108 22.183155 521.519873 20.946324 519.213781 C 19.709493 516.89971 18.592355 514.537761 17.586931 512.111976 C 16.589486 509.69417 15.703755 507.228487 14.945698 504.722906 C 14.18764 502.217326 13.549275 499.679827 13.038584 497.11041 C 12.527892 494.540992 12.144873 491.947637 11.881548 489.338322 C 11.626202 486.736986 11.498529 484.119692 11.498529 481.502397 L 11.498529 91.501574 C 11.498529 88.8763 11.626202 86.266985 11.881548 83.65767 C 12.144873 81.048355 12.527892 78.462979 13.038584 75.893562 C 13.549275 73.324144 14.18764 70.786646 14.945698 68.281065 C 15.703755 65.767505 16.589486 63.309801 17.586931 60.884016 C 18.592355 58.46621 19.709493 56.096282 20.946324 53.79019 C 22.183155 51.476119 23.523721 49.233863 24.98398 47.055445 C 26.436259 44.877026 28.000252 42.770423 29.66 40.751595 C 31.319747 38.724788 33.07525 36.785755 34.934487 34.934498 C 36.785744 33.075262 38.724776 31.319759 40.751583 29.660011 C 42.770411 28.000264 44.877014 26.436271 47.055433 24.983991 C 49.233852 23.523733 51.476107 22.183167 53.790178 20.946336 C 56.09627 19.709505 58.466199 18.592367 60.884004 17.586942 C 63.309789 16.589498 65.767493 15.703767 68.281053 14.945709 C 70.786634 14.187651 73.324133 13.549287 75.89355 13.038595 C 78.462967 12.527904 81.048343 12.144885 83.657658 11.88156 C 86.266973 11.626214 88.876288 11.498541 91.501562 11.498541 Z M 91.501562 11.498541 " stroke="#808080" stroke-width="23" stroke-opacity="1" stroke-miterlimit="10"/></g><g clip-path="url(#id5)"><g clip-path="url(#id6)"><path fill="url(#id7)" d="M 22.761719 22.761719 L 22.761719 257.738281 L 257.738281 257.738281 L 257.738281 22.761719 Z M 22.761719 22.761719 " fill-rule="nonzero"/></g></g><path fill="#000000" d="M 143.082031 74.820312 C 144.25 74.820312 145.417969 74.851562 146.582031 74.917969 C 147.75 74.984375 148.914062 75.085938 150.074219 75.21875 C 151.234375 75.351562 152.390625 75.519531 153.542969 75.71875 C 154.691406 75.917969 155.835938 76.148438 156.976562 76.414062 C 158.113281 76.679688 159.242188 76.976562 160.363281 77.304688 C 161.484375 77.632812 162.597656 77.996094 163.695312 78.390625 C 164.796875 78.78125 165.882812 79.207031 166.960938 79.664062 C 168.035156 80.117188 169.097656 80.605469 170.144531 81.121094 C 171.195312 81.636719 172.226562 82.183594 173.242188 82.757812 C 174.261719 83.332031 175.261719 83.9375 176.242188 84.570312 C 177.222656 85.203125 178.1875 85.863281 179.132812 86.550781 C 180.078125 87.238281 181 87.953125 181.902344 88.695312 C 182.808594 89.433594 183.6875 90.203125 184.546875 90.992188 C 185.410156 91.785156 186.246094 92.601562 187.058594 93.4375 C 187.871094 94.277344 188.660156 95.140625 189.421875 96.023438 C 190.1875 96.910156 190.921875 97.8125 191.636719 98.742188 C 192.347656 99.667969 193.03125 100.613281 193.6875 101.578125 C 194.347656 102.546875 194.976562 103.53125 195.578125 104.53125 C 196.175781 105.535156 196.75 106.550781 197.292969 107.585938 C 197.835938 108.621094 198.347656 109.671875 198.832031 110.734375 C 199.3125 111.796875 199.765625 112.875 200.183594 113.964844 C 200.605469 115.054688 200.996094 116.15625 201.355469 117.269531 C 201.710938 118.382812 202.039062 119.503906 202.332031 120.632812 C 202.625 121.765625 202.886719 122.902344 203.113281 124.046875 C 203.34375 125.195312 203.539062 126.347656 203.699219 127.503906 C 203.863281 128.660156 203.992188 129.820312 204.089844 130.984375 C 204.183594 132.148438 204.246094 133.316406 204.277344 134.484375 C 204.304688 135.652344 204.300781 136.820312 204.261719 137.988281 C 204.226562 139.15625 204.152344 140.320312 204.050781 141.484375 C 203.945312 142.648438 203.808594 143.808594 203.636719 144.964844 C 203.464844 146.121094 203.261719 147.269531 203.023438 148.414062 C 202.789062 149.558594 202.519531 150.695312 202.214844 151.824219 C 201.914062 152.953125 201.582031 154.070312 201.214844 155.179688 C 200.847656 156.289062 200.453125 157.390625 200.023438 158.476562 C 199.59375 159.5625 199.132812 160.636719 198.644531 161.695312 C 198.152344 162.757812 197.632812 163.804688 197.082031 164.832031 C 196.53125 165.863281 195.953125 166.878906 195.34375 167.875 C 194.734375 168.875 194.097656 169.851562 193.433594 170.8125 C 192.769531 171.773438 192.078125 172.714844 191.359375 173.636719 C 190.640625 174.558594 189.898438 175.457031 189.128906 176.335938 C 188.359375 177.214844 187.5625 178.074219 186.742188 178.90625 C 185.925781 179.738281 185.082031 180.546875 184.21875 181.332031 C 183.351562 182.117188 182.464844 182.878906 181.554688 183.613281 C 180.648438 184.347656 179.71875 185.054688 178.769531 185.734375 C 177.820312 186.414062 176.851562 187.070312 175.863281 187.695312 C 174.878906 188.320312 173.875 188.917969 172.851562 189.484375 C 171.832031 190.054688 170.792969 190.589844 169.742188 191.101562 C 168.691406 191.609375 167.625 192.085938 166.546875 192.535156 C 165.46875 192.980469 164.375 193.398438 163.273438 193.785156 C 162.167969 194.167969 161.054688 194.523438 159.933594 194.84375 C 158.808594 195.164062 157.679688 195.453125 156.539062 195.710938 C 155.398438 195.964844 154.253906 196.191406 153.097656 196.382812 C 151.945312 196.570312 150.789062 196.730469 149.628906 196.855469 C 148.464844 196.980469 147.300781 197.070312 146.132812 197.128906 C 144.96875 197.1875 143.800781 197.210938 142.632812 197.203125 C 141.464844 197.191406 140.296875 197.148438 139.128906 197.074219 C 137.964844 197 136.800781 196.890625 135.640625 196.746094 C 134.480469 196.605469 133.328125 196.429688 132.179688 196.21875 C 131.027344 196.011719 129.886719 195.769531 128.75 195.496094 C 127.613281 195.222656 126.488281 194.914062 125.367188 194.578125 C 124.25 194.238281 123.144531 193.867188 122.046875 193.464844 C 120.949219 193.0625 119.863281 192.628906 118.792969 192.167969 C 117.71875 191.703125 116.660156 191.207031 115.617188 190.683594 C 114.574219 190.15625 113.546875 189.605469 112.535156 189.019531 C 111.519531 188.4375 110.527344 187.824219 109.550781 187.183594 C 108.574219 186.542969 107.613281 185.875 106.675781 185.179688 C 105.738281 184.484375 104.820312 183.761719 103.921875 183.011719 C 103.023438 182.265625 102.148438 181.492188 101.296875 180.695312 C 100.441406 179.894531 99.613281 179.074219 98.804688 178.226562 C 98 177.382812 97.21875 176.515625 96.464844 175.625 C 95.707031 174.734375 94.976562 173.820312 94.273438 172.890625 C 93.566406 171.957031 92.890625 171.003906 92.242188 170.035156 C 91.59375 169.0625 90.96875 168.074219 90.378906 167.066406 C 89.785156 166.058594 89.222656 165.035156 88.6875 163.996094 C 88.152344 162.957031 87.648438 161.90625 87.175781 160.835938 C 86.699219 159.769531 86.257812 158.6875 85.84375 157.59375 C 85.433594 156.503906 85.050781 155.398438 84.703125 154.28125 C 84.355469 153.167969 84.039062 152.042969 83.753906 150.910156 C 83.46875 149.777344 83.21875 148.636719 82.996094 147.488281 C 82.777344 146.339844 82.59375 145.1875 82.4375 144.03125 C 82.285156 142.871094 82.167969 141.710938 82.078125 140.542969 C 81.992188 139.378906 81.941406 138.214844 81.921875 137.042969 C 81.902344 135.875 81.914062 134.707031 81.960938 133.542969 C 82.007812 132.375 82.089844 131.207031 82.203125 130.046875 C 82.316406 128.882812 82.464844 127.722656 82.644531 126.570312 C 82.824219 125.414062 83.039062 124.265625 83.285156 123.125 C 83.53125 121.984375 83.808594 120.847656 84.121094 119.722656 C 84.429688 118.597656 84.773438 117.480469 85.148438 116.375 C 85.523438 115.265625 85.929688 114.171875 86.367188 113.089844 C 86.804688 112.003906 87.273438 110.933594 87.773438 109.878906 C 88.273438 108.820312 88.800781 107.78125 89.359375 106.753906 C 89.917969 105.726562 90.503906 104.71875 91.121094 103.726562 C 91.738281 102.734375 92.382812 101.761719 93.054688 100.804688 C 93.726562 99.847656 94.425781 98.914062 95.152344 97.996094 C 95.878906 97.082031 96.628906 96.1875 97.40625 95.316406 C 98.183594 94.441406 98.984375 93.59375 99.8125 92.765625 C 102.644531 89.917969 105.730469 87.371094 109.070312 85.136719 C 112.410156 82.898438 115.9375 81.007812 119.652344 79.472656 C 123.363281 77.933594 127.191406 76.773438 131.136719 75.996094 C 135.078125 75.21875 139.0625 74.832031 143.082031 74.84375 M 143.082031 65.054688 C 141.917969 65.054688 140.757812 65.082031 139.597656 65.140625 C 138.4375 65.195312 137.277344 65.28125 136.121094 65.394531 C 134.96875 65.507812 133.8125 65.652344 132.664062 65.820312 C 131.515625 65.992188 130.371094 66.191406 129.234375 66.417969 C 128.09375 66.644531 126.960938 66.898438 125.832031 67.179688 C 124.707031 67.464844 123.585938 67.773438 122.476562 68.109375 C 121.363281 68.449219 120.261719 68.8125 119.167969 69.203125 C 118.074219 69.59375 116.988281 70.011719 115.917969 70.457031 C 114.84375 70.902344 113.78125 71.371094 112.730469 71.867188 C 111.679688 72.367188 110.644531 72.886719 109.621094 73.433594 C 108.59375 73.984375 107.585938 74.554688 106.589844 75.152344 C 105.59375 75.75 104.609375 76.371094 103.644531 77.015625 C 102.679688 77.660156 101.730469 78.332031 100.796875 79.023438 C 99.863281 79.714844 98.949219 80.429688 98.050781 81.167969 C 97.152344 81.902344 96.273438 82.660156 95.410156 83.441406 C 94.550781 84.222656 93.710938 85.023438 92.886719 85.84375 C 92.066406 86.664062 91.265625 87.507812 90.484375 88.367188 C 89.707031 89.226562 88.949219 90.109375 88.210938 91.003906 C 87.472656 91.902344 86.757812 92.820312 86.066406 93.753906 C 85.375 94.683594 84.707031 95.632812 84.0625 96.601562 C 83.414062 97.566406 82.792969 98.546875 82.195312 99.542969 C 81.601562 100.539062 81.027344 101.550781 80.480469 102.574219 C 79.933594 103.601562 79.410156 104.636719 78.914062 105.6875 C 78.417969 106.738281 77.945312 107.800781 77.5 108.871094 C 77.058594 109.945312 76.640625 111.027344 76.246094 112.121094 C 75.855469 113.214844 75.492188 114.320312 75.15625 115.429688 C 74.816406 116.542969 74.507812 117.660156 74.226562 118.789062 C 73.941406 119.914062 73.6875 121.046875 73.460938 122.1875 C 73.234375 123.328125 73.035156 124.472656 72.867188 125.621094 C 72.695312 126.769531 72.554688 127.921875 72.441406 129.078125 C 72.328125 130.234375 72.242188 131.394531 72.183594 132.554688 C 72.125 133.714844 72.097656 134.875 72.097656 136.035156 C 72.097656 137.199219 72.125 138.359375 72.183594 139.519531 C 72.242188 140.679688 72.328125 141.835938 72.441406 142.992188 C 72.554688 144.148438 72.695312 145.300781 72.867188 146.453125 C 73.035156 147.601562 73.234375 148.746094 73.460938 149.882812 C 73.6875 151.023438 73.941406 152.15625 74.226562 153.285156 C 74.507812 154.410156 74.816406 155.53125 75.15625 156.640625 C 75.492188 157.753906 75.855469 158.855469 76.246094 159.949219 C 76.640625 161.042969 77.058594 162.125 77.5 163.199219 C 77.945312 164.273438 78.417969 165.335938 78.914062 166.386719 C 79.410156 167.433594 79.933594 168.472656 80.480469 169.496094 C 81.027344 170.519531 81.601562 171.53125 82.195312 172.527344 C 82.792969 173.523438 83.414062 174.503906 84.0625 175.472656 C 84.707031 176.4375 85.375 177.386719 86.066406 178.320312 C 86.757812 179.253906 87.472656 180.167969 88.210938 181.066406 C 88.949219 181.964844 89.707031 182.84375 90.484375 183.703125 C 91.265625 184.566406 92.066406 185.40625 92.886719 186.226562 C 93.710938 187.050781 94.550781 187.851562 95.410156 188.628906 C 96.273438 189.410156 97.152344 190.167969 98.050781 190.90625 C 98.949219 191.644531 99.863281 192.359375 100.796875 193.050781 C 101.730469 193.742188 102.679688 194.410156 103.644531 195.054688 C 104.609375 195.699219 105.59375 196.324219 106.589844 196.917969 C 107.585938 197.515625 108.59375 198.089844 109.621094 198.636719 C 110.644531 199.183594 111.679688 199.707031 112.730469 200.203125 C 113.78125 200.699219 114.84375 201.171875 115.917969 201.613281 C 116.988281 202.058594 118.074219 202.476562 119.167969 202.867188 C 120.261719 203.261719 121.363281 203.625 122.476562 203.960938 C 123.585938 204.300781 124.707031 204.609375 125.832031 204.890625 C 126.960938 205.171875 128.09375 205.425781 129.234375 205.65625 C 130.371094 205.882812 131.515625 206.078125 132.664062 206.25 C 133.8125 206.421875 134.96875 206.5625 136.121094 206.675781 C 137.277344 206.789062 138.4375 206.875 139.597656 206.933594 C 140.757812 206.988281 141.917969 207.019531 143.082031 207.019531 C 144.242188 207.019531 145.402344 206.988281 146.5625 206.933594 C 147.722656 206.875 148.882812 206.789062 150.039062 206.675781 C 151.195312 206.5625 152.347656 206.421875 153.496094 206.25 C 154.644531 206.078125 155.789062 205.882812 156.929688 205.65625 C 158.066406 205.425781 159.199219 205.171875 160.328125 204.890625 C 161.453125 204.609375 162.574219 204.300781 163.683594 203.960938 C 164.796875 203.625 165.898438 203.261719 166.992188 202.867188 C 168.085938 202.476562 169.171875 202.058594 170.246094 201.613281 C 171.316406 201.171875 172.378906 200.699219 173.429688 200.203125 C 174.480469 199.707031 175.515625 199.183594 176.542969 198.636719 C 177.566406 198.089844 178.578125 197.515625 179.574219 196.917969 C 180.570312 196.324219 181.550781 195.699219 182.515625 195.054688 C 183.480469 194.410156 184.429688 193.742188 185.363281 193.050781 C 186.296875 192.359375 187.214844 191.644531 188.109375 190.90625 C 189.007812 190.167969 189.886719 189.410156 190.75 188.628906 C 191.609375 187.851562 192.449219 187.050781 193.273438 186.226562 C 194.09375 185.40625 194.894531 184.566406 195.675781 183.703125 C 196.453125 182.84375 197.214844 181.964844 197.949219 181.066406 C 198.6875 180.167969 199.402344 179.253906 200.09375 178.320312 C 200.785156 177.386719 201.453125 176.4375 202.101562 175.472656 C 202.746094 174.503906 203.367188 173.523438 203.964844 172.527344 C 204.5625 171.53125 205.132812 170.519531 205.679688 169.496094 C 206.230469 168.472656 206.75 167.433594 207.246094 166.386719 C 207.746094 165.335938 208.214844 164.273438 208.660156 163.199219 C 209.105469 162.125 209.523438 161.042969 209.914062 159.949219 C 210.304688 158.855469 210.667969 157.753906 211.007812 156.640625 C 211.34375 155.53125 211.652344 154.410156 211.933594 153.285156 C 212.21875 152.15625 212.472656 151.023438 212.699219 149.882812 C 212.925781 148.746094 213.125 147.601562 213.292969 146.453125 C 213.464844 145.300781 213.605469 144.148438 213.722656 142.992188 C 213.835938 141.835938 213.921875 140.679688 213.976562 139.519531 C 214.035156 138.359375 214.0625 137.199219 214.0625 136.035156 C 214.0625 134.875 214.035156 133.714844 213.976562 132.554688 C 213.921875 131.394531 213.835938 130.234375 213.722656 129.078125 C 213.605469 127.921875 213.464844 126.769531 213.292969 125.621094 C 213.125 124.472656 212.925781 123.328125 212.699219 122.1875 C 212.472656 121.046875 212.21875 119.914062 211.933594 118.789062 C 211.652344 117.660156 211.34375 116.542969 211.007812 115.429688 C 210.667969 114.320312 210.304688 113.214844 209.914062 112.121094 C 209.523438 111.027344 209.105469 109.945312 208.660156 108.871094 C 208.214844 107.800781 207.746094 106.738281 207.246094 105.6875 C 206.75 104.636719 206.230469 103.601562 205.679688 102.574219 C 205.132812 101.550781 204.5625 100.539062 203.964844 99.542969 C 203.367188 98.546875 202.746094 97.566406 202.101562 96.601562 C 201.453125 95.632812 200.785156 94.683594 200.09375 93.753906 C 199.402344 92.820312 198.6875 91.902344 197.949219 91.003906 C 197.214844 90.109375 196.453125 89.226562 195.675781 88.367188 C 194.894531 87.507812 194.09375 86.664062 193.273438 85.84375 C 192.449219 85.023438 191.609375 84.222656 190.75 83.441406 C 189.886719 82.660156 189.007812 81.902344 188.109375 81.167969 C 187.214844 80.429688 186.296875 79.714844 185.363281 79.023438 C 184.429688 78.332031 183.480469 77.660156 182.515625 77.015625 C 181.550781 76.371094 180.570312 75.75 179.574219 75.152344 C 178.578125 74.554688 177.566406 73.984375 176.542969 73.433594 C 175.515625 72.886719 174.480469 72.367188 173.429688 71.867188 C 172.378906 71.371094 171.316406 70.902344 170.246094 70.457031 C 169.171875 70.011719 168.085938 69.59375 166.992188 69.203125 C 165.898438 68.8125 164.796875 68.449219 163.683594 68.109375 C 162.574219 67.773438 161.453125 67.464844 160.328125 67.179688 C 159.199219 66.898438 158.066406 66.644531 156.929688 66.417969 C 155.789062 66.191406 154.644531 65.992188 153.496094 65.820312 C 152.347656 65.652344 151.195312 65.507812 150.039062 65.394531 C 148.882812 65.28125 147.722656 65.195312 146.5625 65.140625 C 145.402344 65.082031 144.242188 65.054688 143.082031 65.054688 Z M 143.082031 65.054688 " fill-opacity="1" fill-rule="nonzero"/><path fill="#000000" d="M 138.503906 112.023438 L 117.417969 112.023438 L 117.417969 104.78125 L 168.746094 104.78125 L 168.746094 112.023438 L 147.554688 112.023438 L 147.554688 170.769531 L 138.503906 170.769531 Z M 138.503906 112.023438 " fill-opacity="1" fill-rule="nonzero"/></svg>