<svg xmlns="http://www.w3.org/2000/svg" xmlns:xlink="http://www.w3.org/1999/xlink" width="375" zoomAndPan="magnify" viewBox="0 0 281.25 281.249989" height="375" preserveAspectRatio="xMidYMid meet" version="1.0"><defs><clipPath id="id1"><path d="M 5 5 L 275 5 L 275 275 L 5 275 Z M 5 5 " clip-rule="nonzero"/></clipPath><clipPath id="id2"><path d="M 44.792969 5.628906 L 235.710938 5.628906 C 236.992188 5.628906 238.273438 5.691406 239.546875 5.816406 C 240.824219 5.945312 242.09375 6.132812 243.351562 6.382812 C 244.609375 6.632812 245.851562 6.945312 247.078125 7.316406 C 248.304688 7.6875 249.511719 8.121094 250.695312 8.609375 C 251.882812 9.101562 253.039062 9.648438 254.171875 10.253906 C 255.300781 10.859375 256.402344 11.515625 257.46875 12.230469 C 258.535156 12.941406 259.5625 13.707031 260.554688 14.519531 C 261.546875 15.332031 262.496094 16.191406 263.402344 17.101562 C 264.308594 18.007812 265.167969 18.957031 265.984375 19.949219 C 266.796875 20.9375 267.558594 21.96875 268.273438 23.035156 C 268.984375 24.101562 269.644531 25.199219 270.246094 26.332031 C 270.851562 27.460938 271.398438 28.621094 271.890625 29.804688 C 272.382812 30.992188 272.8125 32.195312 273.1875 33.425781 C 273.558594 34.652344 273.871094 35.894531 274.121094 37.152344 C 274.371094 38.410156 274.558594 39.675781 274.683594 40.953125 C 274.808594 42.230469 274.871094 43.507812 274.871094 44.792969 L 274.871094 235.710938 C 274.871094 236.992188 274.808594 238.273438 274.683594 239.546875 C 274.558594 240.824219 274.371094 242.09375 274.121094 243.351562 C 273.871094 244.609375 273.558594 245.851562 273.1875 247.078125 C 272.8125 248.304688 272.382812 249.511719 271.890625 250.695312 C 271.398438 251.882812 270.851562 253.039062 270.25 254.171875 C 269.644531 255.300781 268.984375 256.402344 268.273438 257.46875 C 267.558594 258.535156 266.796875 259.5625 265.984375 260.554688 C 265.167969 261.546875 264.308594 262.496094 263.402344 263.402344 C 262.496094 264.308594 261.546875 265.167969 260.554688 265.984375 C 259.5625 266.796875 258.535156 267.558594 257.46875 268.273438 C 256.402344 268.984375 255.300781 269.644531 254.171875 270.246094 C 253.039062 270.851562 251.882812 271.398438 250.695312 271.890625 C 249.511719 272.382812 248.304688 272.8125 247.078125 273.1875 C 245.851562 273.558594 244.609375 273.871094 243.351562 274.121094 C 242.09375 274.371094 240.824219 274.558594 239.546875 274.683594 C 238.273438 274.808594 236.992188 274.871094 235.710938 274.871094 L 44.792969 274.871094 C 43.507812 274.871094 42.230469 274.808594 40.953125 274.683594 C 39.675781 274.558594 38.410156 274.371094 37.152344 274.121094 C 35.894531 273.871094 34.652344 273.558594 33.425781 273.1875 C 32.195312 272.8125 30.992188 272.382812 29.804688 271.890625 C 28.621094 271.398438 27.460938 270.851562 26.332031 270.25 C 25.199219 269.644531 24.101562 268.984375 23.035156 268.273438 C 21.96875 267.558594 20.9375 266.796875 19.949219 265.984375 C 18.957031 265.167969 18.007812 264.308594 17.101562 263.402344 C 16.191406 262.496094 15.332031 261.546875 14.519531 260.554688 C 13.707031 259.5625 12.941406 258.535156 12.230469 257.46875 C 11.515625 256.402344 10.859375 255.300781 10.253906 254.171875 C 9.648438 253.039062 9.101562 251.882812 8.609375 250.695312 C 8.121094 249.511719 7.6875 248.304688 7.316406 247.078125 C 6.945312 245.851562 6.632812 244.609375 6.382812 243.351562 C 6.132812 242.09375 5.945312 240.824219 5.816406 239.546875 C 5.691406 238.273438 5.628906 236.992188 5.628906 235.710938 L 5.628906 44.792969 C 5.628906 43.507812 5.691406 42.230469 5.816406 40.953125 C 5.945312 39.675781 6.132812 38.410156 6.382812 37.152344 C 6.632812 35.894531 6.945312 34.652344 7.316406 33.425781 C 7.6875 32.195312 8.121094 30.992188 8.609375 29.804688 C 9.101562 28.621094 9.648438 27.460938 10.253906 26.332031 C 10.859375 25.199219 11.515625 24.101562 12.230469 23.035156 C 12.941406 21.96875 13.707031 20.9375 14.519531 19.949219 C 15.332031 18.957031 16.191406 18.007812 17.101562 17.101562 C 18.007812 16.191406 18.957031 15.332031 19.949219 14.519531 C 20.9375 13.707031 21.96875 12.941406 23.035156 12.230469 C 24.101562 11.515625 25.199219 10.859375 26.332031 10.253906 C 27.460938 9.648438 28.621094 9.101562 29.804688 8.609375 C 30.992188 8.121094 32.195312 7.6875 33.425781 7.316406 C 34.652344 6.945312 35.894531 6.632812 37.152344 6.382812 C 38.410156 6.132812 39.675781 5.945312 40.953125 5.816406 C 42.230469 5.691406 43.507812 5.628906 44.792969 5.628906 Z M 44.792969 5.628906 " clip-rule="nonzero"/></clipPath><linearGradient x1="286.5" gradientTransform="matrix(0.489532, 0, 0, 0.489532, 0.00000575, 0)" y1="11.5" x2="286.5" gradientUnits="userSpaceOnUse" y2="561.499999" xlink:type="simple" xlink:actuate="onLoad" id="id3" xlink:show="other"><stop stop-opacity="1" stop-color="rgb(65.499878%, 66.299438%, 67.498779%)" offset="0"/><stop stop-opacity="1" stop-color="rgb(65.79895%, 66.598511%, 67.797852%)" offset="0.00390625"/><stop stop-opacity="1" stop-color="rgb(66.098022%, 66.897583%, 68.09845%)" offset="0.0078125"/><stop stop-opacity="1" stop-color="rgb(66.397095%, 67.196655%, 68.397522%)" offset="0.0117187"/><stop stop-opacity="1" stop-color="rgb(66.697693%, 67.497253%, 68.696594%)" offset="0.015625"/><stop stop-opacity="1" stop-color="rgb(66.996765%, 67.796326%, 68.995667%)" offset="0.0195312"/><stop stop-opacity="1" stop-color="rgb(67.295837%, 68.095398%, 69.296265%)" offset="0.0234375"/><stop stop-opacity="1" stop-color="rgb(67.593384%, 68.391418%, 69.590759%)" offset="0.0273437"/><stop stop-opacity="1" stop-color="rgb(67.89093%, 68.688965%, 69.885254%)" offset="0.03125"/><stop stop-opacity="1" stop-color="rgb(68.179321%, 68.966675%, 70.153809%)" offset="0.0351562"/><stop stop-opacity="1" stop-color="rgb(68.467712%, 69.244385%, 70.422363%)" offset="0.0390625"/><stop stop-opacity="1" stop-color="rgb(68.756104%, 69.522095%, 70.690918%)" offset="0.0429687"/><stop stop-opacity="1" stop-color="rgb(69.044495%, 69.801331%, 70.959473%)" offset="0.046875"/><stop stop-opacity="1" stop-color="rgb(69.33136%, 70.079041%, 71.228027%)" offset="0.0507812"/><stop stop-opacity="1" stop-color="rgb(69.619751%, 70.358276%, 71.496582%)" offset="0.0546875"/><stop stop-opacity="1" stop-color="rgb(69.908142%, 70.635986%, 71.765137%)" offset="0.0585937"/><stop stop-opacity="1" stop-color="rgb(70.196533%, 70.915222%, 72.033691%)" offset="0.0625"/><stop stop-opacity="1" stop-color="rgb(70.483398%, 71.192932%, 72.302246%)" offset="0.0664063"/><stop stop-opacity="1" stop-color="rgb(70.77179%, 71.472168%, 72.570801%)" offset="0.0703125"/><stop stop-opacity="1" stop-color="rgb(71.060181%, 71.749878%, 72.839355%)" offset="0.0742188"/><stop stop-opacity="1" stop-color="rgb(71.348572%, 72.027588%, 73.10791%)" offset="0.078125"/><stop stop-opacity="1" stop-color="rgb(71.636963%, 72.305298%, 73.376465%)" offset="0.0820312"/><stop stop-opacity="1" stop-color="rgb(71.925354%, 72.584534%, 73.64502%)" offset="0.0859375"/><stop stop-opacity="1" stop-color="rgb(72.212219%, 72.862244%, 73.913574%)" offset="0.0898438"/><stop stop-opacity="1" stop-color="rgb(72.50061%, 73.141479%, 74.182129%)" offset="0.09375"/><stop stop-opacity="1" stop-color="rgb(72.789001%, 73.419189%, 74.450684%)" offset="0.0976562"/><stop stop-opacity="1" stop-color="rgb(73.077393%, 73.698425%, 74.719238%)" offset="0.101562"/><stop stop-opacity="1" stop-color="rgb(73.364258%, 73.976135%, 74.987793%)" offset="0.105469"/><stop stop-opacity="1" stop-color="rgb(73.652649%, 74.255371%, 75.256348%)" offset="0.109375"/><stop stop-opacity="1" stop-color="rgb(73.94104%, 74.533081%, 75.524902%)" offset="0.113281"/><stop stop-opacity="1" stop-color="rgb(74.229431%, 74.810791%, 75.793457%)" offset="0.117188"/><stop stop-opacity="1" stop-color="rgb(74.517822%, 75.088501%, 76.062012%)" offset="0.121094"/><stop stop-opacity="1" stop-color="rgb(74.806213%, 75.367737%, 76.330566%)" offset="0.125"/><stop stop-opacity="1" stop-color="rgb(75.093079%, 75.645447%, 76.599121%)" offset="0.128906"/><stop stop-opacity="1" stop-color="rgb(75.38147%, 75.924683%, 76.867676%)" offset="0.132813"/><stop stop-opacity="1" stop-color="rgb(75.669861%, 76.202393%, 77.13623%)" offset="0.136719"/><stop stop-opacity="1" stop-color="rgb(75.958252%, 76.481628%, 77.404785%)" offset="0.140625"/><stop stop-opacity="1" stop-color="rgb(76.245117%, 76.759338%, 77.67334%)" offset="0.144531"/><stop stop-opacity="1" stop-color="rgb(76.533508%, 77.038574%, 77.941895%)" offset="0.148438"/><stop stop-opacity="1" stop-color="rgb(76.821899%, 77.316284%, 78.210449%)" offset="0.152344"/><stop stop-opacity="1" stop-color="rgb(77.110291%, 77.593994%, 78.479004%)" offset="0.15625"/><stop stop-opacity="1" stop-color="rgb(77.398682%, 77.871704%, 78.747559%)" offset="0.160156"/><stop stop-opacity="1" stop-color="rgb(77.687073%, 78.15094%, 79.016113%)" offset="0.164062"/><stop stop-opacity="1" stop-color="rgb(77.973938%, 78.42865%, 79.284668%)" offset="0.167969"/><stop stop-opacity="1" stop-color="rgb(78.262329%, 78.707886%, 79.553223%)" offset="0.171875"/><stop stop-opacity="1" stop-color="rgb(78.55072%, 78.985596%, 79.821777%)" offset="0.175781"/><stop stop-opacity="1" stop-color="rgb(78.839111%, 79.264832%, 80.090332%)" offset="0.179688"/><stop stop-opacity="1" stop-color="rgb(79.125977%, 79.542542%, 80.358887%)" offset="0.183594"/><stop stop-opacity="1" stop-color="rgb(79.414368%, 79.821777%, 80.627441%)" offset="0.1875"/><stop stop-opacity="1" stop-color="rgb(79.646301%, 80.050659%, 80.847168%)" offset="0.191406"/><stop stop-opacity="1" stop-color="rgb(79.879761%, 80.281067%, 81.06842%)" offset="0.195312"/><stop stop-opacity="1" stop-color="rgb(80.08728%, 80.487061%, 81.265259%)" offset="0.199219"/><stop stop-opacity="1" stop-color="rgb(80.2948%, 80.69458%, 81.463623%)" offset="0.203125"/><stop stop-opacity="1" stop-color="rgb(80.500793%, 80.900574%, 81.660461%)" offset="0.207031"/><stop stop-opacity="1" stop-color="rgb(80.708313%, 81.108093%, 81.858826%)" offset="0.210938"/><stop stop-opacity="1" stop-color="rgb(80.914307%, 81.314087%, 82.055664%)" offset="0.214844"/><stop stop-opacity="1" stop-color="rgb(81.121826%, 81.521606%, 82.254028%)" offset="0.21875"/><stop stop-opacity="1" stop-color="rgb(81.32782%, 81.7276%, 82.450867%)" offset="0.222656"/><stop stop-opacity="1" stop-color="rgb(81.535339%, 81.93512%, 82.649231%)" offset="0.226562"/><stop stop-opacity="1" stop-color="rgb(81.741333%, 82.141113%, 82.846069%)" offset="0.230469"/><stop stop-opacity="1" stop-color="rgb(81.948853%, 82.348633%, 83.044434%)" offset="0.234375"/><stop stop-opacity="1" stop-color="rgb(82.154846%, 82.554626%, 83.241272%)" offset="0.238281"/><stop stop-opacity="1" stop-color="rgb(82.362366%, 82.762146%, 83.439636%)" offset="0.242187"/><stop stop-opacity="1" stop-color="rgb(82.568359%, 82.96814%, 83.636475%)" offset="0.246094"/><stop stop-opacity="1" stop-color="rgb(82.775879%, 83.175659%, 83.834839%)" offset="0.25"/><stop stop-opacity="1" stop-color="rgb(82.981873%, 83.381653%, 84.031677%)" offset="0.253906"/><stop stop-opacity="1" stop-color="rgb(83.189392%, 83.589172%, 84.230042%)" offset="0.257812"/><stop stop-opacity="1" stop-color="rgb(83.395386%, 83.795166%, 84.42688%)" offset="0.261719"/><stop stop-opacity="1" stop-color="rgb(83.602905%, 84.002686%, 84.625244%)" offset="0.265625"/><stop stop-opacity="1" stop-color="rgb(83.808899%, 84.208679%, 84.822083%)" offset="0.269531"/><stop stop-opacity="1" stop-color="rgb(84.016418%, 84.416199%, 85.020447%)" offset="0.273438"/><stop stop-opacity="1" stop-color="rgb(84.222412%, 84.622192%, 85.217285%)" offset="0.277344"/><stop stop-opacity="1" stop-color="rgb(84.429932%, 84.829712%, 85.415649%)" offset="0.28125"/><stop stop-opacity="1" stop-color="rgb(84.635925%, 85.035706%, 85.612488%)" offset="0.285156"/><stop stop-opacity="1" stop-color="rgb(84.843445%, 85.243225%, 85.810852%)" offset="0.289062"/><stop stop-opacity="1" stop-color="rgb(85.049438%, 85.449219%, 86.00769%)" offset="0.292969"/><stop stop-opacity="1" stop-color="rgb(85.256958%, 85.656738%, 86.206055%)" offset="0.296875"/><stop stop-opacity="1" stop-color="rgb(85.462952%, 85.862732%, 86.402893%)" offset="0.300781"/><stop stop-opacity="1" stop-color="rgb(85.670471%, 86.070251%, 86.601257%)" offset="0.304688"/><stop stop-opacity="1" stop-color="rgb(85.876465%, 86.277771%, 86.798096%)" offset="0.308594"/><stop stop-opacity="1" stop-color="rgb(86.083984%, 86.485291%, 86.99646%)" offset="0.3125"/><stop stop-opacity="1" stop-color="rgb(86.289978%, 86.691284%, 87.193298%)" offset="0.316406"/><stop stop-opacity="1" stop-color="rgb(86.497498%, 86.898804%, 87.391663%)" offset="0.320313"/><stop stop-opacity="1" stop-color="rgb(86.703491%, 87.104797%, 87.588501%)" offset="0.324219"/><stop stop-opacity="1" stop-color="rgb(86.911011%, 87.312317%, 87.786865%)" offset="0.328125"/><stop stop-opacity="1" stop-color="rgb(87.11853%, 87.518311%, 87.983704%)" offset="0.332031"/><stop stop-opacity="1" stop-color="rgb(87.32605%, 87.72583%, 88.182068%)" offset="0.335937"/><stop stop-opacity="1" stop-color="rgb(87.532043%, 87.931824%, 88.378906%)" offset="0.339844"/><stop stop-opacity="1" stop-color="rgb(87.739563%, 88.139343%, 88.577271%)" offset="0.34375"/><stop stop-opacity="1" stop-color="rgb(87.945557%, 88.345337%, 88.774109%)" offset="0.347656"/><stop stop-opacity="1" stop-color="rgb(88.153076%, 88.552856%, 88.972473%)" offset="0.351562"/><stop stop-opacity="1" stop-color="rgb(88.35907%, 88.75885%, 89.169312%)" offset="0.355469"/><stop stop-opacity="1" stop-color="rgb(88.566589%, 88.96637%, 89.367676%)" offset="0.359375"/><stop stop-opacity="1" stop-color="rgb(88.708496%, 89.108276%, 89.500427%)" offset="0.367188"/><stop stop-opacity="1" stop-color="rgb(88.986206%, 89.387512%, 89.762878%)" offset="0.375"/><stop stop-opacity="1" stop-color="rgb(89.260864%, 89.660645%, 90.019226%)" offset="0.382812"/><stop stop-opacity="1" stop-color="rgb(89.533997%, 89.933777%, 90.275574%)" offset="0.390625"/><stop stop-opacity="1" stop-color="rgb(89.807129%, 90.206909%, 90.530396%)" offset="0.398438"/><stop stop-opacity="1" stop-color="rgb(90.080261%, 90.480042%, 90.786743%)" offset="0.40625"/><stop stop-opacity="1" stop-color="rgb(90.353394%, 90.7547%, 91.043091%)" offset="0.414063"/><stop stop-opacity="1" stop-color="rgb(90.628052%, 91.027832%, 91.299438%)" offset="0.421875"/><stop stop-opacity="1" stop-color="rgb(90.901184%, 91.300964%, 91.555786%)" offset="0.429687"/><stop stop-opacity="1" stop-color="rgb(91.174316%, 91.574097%, 91.810608%)" offset="0.4375"/><stop stop-opacity="1" stop-color="rgb(91.447449%, 91.847229%, 92.066956%)" offset="0.445312"/><stop stop-opacity="1" stop-color="rgb(91.720581%, 92.121887%, 92.323303%)" offset="0.453125"/><stop stop-opacity="1" stop-color="rgb(91.995239%, 92.39502%, 92.579651%)" offset="0.460938"/><stop stop-opacity="1" stop-color="rgb(92.268372%, 92.668152%, 92.835999%)" offset="0.46875"/><stop stop-opacity="1" stop-color="rgb(92.541504%, 92.941284%, 93.092346%)" offset="0.476562"/><stop stop-opacity="1" stop-color="rgb(92.814636%, 93.214417%, 93.347168%)" offset="0.484375"/><stop stop-opacity="1" stop-color="rgb(93.087769%, 93.489075%, 93.603516%)" offset="0.492188"/><stop stop-opacity="1" stop-color="rgb(93.362427%, 93.762207%, 93.859863%)" offset="0.5"/><stop stop-opacity="1" stop-color="rgb(93.635559%, 94.035339%, 94.116211%)" offset="0.507812"/><stop stop-opacity="1" stop-color="rgb(93.908691%, 94.308472%, 94.372559%)" offset="0.515625"/><stop stop-opacity="1" stop-color="rgb(94.181824%, 94.581604%, 94.628906%)" offset="0.523437"/><stop stop-opacity="1" stop-color="rgb(94.454956%, 94.856262%, 94.883728%)" offset="0.53125"/><stop stop-opacity="1" stop-color="rgb(94.729614%, 95.129395%, 95.140076%)" offset="0.539062"/><stop stop-opacity="1" stop-color="rgb(94.949341%, 95.343018%, 95.343018%)" offset="0.546875"/><stop stop-opacity="1" stop-color="rgb(95.185852%, 95.555115%, 95.555115%)" offset="0.5625"/><stop stop-opacity="1" stop-color="rgb(95.489502%, 95.829773%, 95.829773%)" offset="0.578125"/><stop stop-opacity="1" stop-color="rgb(95.794678%, 96.102905%, 96.102905%)" offset="0.59375"/><stop stop-opacity="1" stop-color="rgb(96.099854%, 96.376038%, 96.376038%)" offset="0.609375"/><stop stop-opacity="1" stop-color="rgb(96.403503%, 96.64917%, 96.64917%)" offset="0.625"/><stop stop-opacity="1" stop-color="rgb(96.708679%, 96.922302%, 96.922302%)" offset="0.640625"/><stop stop-opacity="1" stop-color="rgb(97.013855%, 97.19696%, 97.19696%)" offset="0.65625"/><stop stop-opacity="1" stop-color="rgb(97.317505%, 97.470093%, 97.470093%)" offset="0.671875"/><stop stop-opacity="1" stop-color="rgb(97.622681%, 97.743225%, 97.743225%)" offset="0.6875"/><stop stop-opacity="1" stop-color="rgb(97.927856%, 98.016357%, 98.016357%)" offset="0.703125"/><stop stop-opacity="1" stop-color="rgb(98.233032%, 98.28949%, 98.28949%)" offset="0.71875"/><stop stop-opacity="1" stop-color="rgb(98.536682%, 98.564148%, 98.564148%)" offset="0.734375"/><stop stop-opacity="1" stop-color="rgb(98.76709%, 98.773193%, 98.773193%)" offset="0.75"/><stop stop-opacity="1" stop-color="rgb(98.988342%, 98.988342%, 98.988342%)" offset="0.8125"/><stop stop-opacity="1" stop-color="rgb(99.276733%, 99.276733%, 99.276733%)" offset="0.875"/><stop stop-opacity="1" stop-color="rgb(99.565125%, 99.565125%, 99.565125%)" offset="0.9375"/><stop stop-opacity="1" stop-color="rgb(99.853516%, 99.853516%, 99.853516%)" offset="1"/></linearGradient><clipPath id="id4"><path d="M 0 0 L 280.503906 0 L 280.503906 280.503906 L 0 280.503906 Z M 0 0 " clip-rule="nonzero"/></clipPath><clipPath id="id5"><path d="M 22 22 L 258 22 L 258 258 L 22 258 Z M 22 22 " clip-rule="nonzero"/></clipPath><clipPath id="id6"><path d="M 47.238281 22.761719 L 233.261719 22.761719 C 234.0625 22.761719 234.863281 22.800781 235.660156 22.882812 C 236.460938 22.960938 237.25 23.078125 238.039062 23.234375 C 238.824219 23.390625 239.601562 23.585938 240.367188 23.816406 C 241.132812 24.050781 241.886719 24.320312 242.628906 24.625 C 243.371094 24.933594 244.09375 25.277344 244.800781 25.652344 C 245.507812 26.03125 246.195312 26.441406 246.859375 26.886719 C 247.527344 27.332031 248.171875 27.8125 248.789062 28.320312 C 249.410156 28.828125 250.003906 29.367188 250.570312 29.933594 C 251.136719 30.5 251.675781 31.09375 252.183594 31.710938 C 252.691406 32.332031 253.167969 32.976562 253.613281 33.640625 C 254.058594 34.308594 254.46875 34.996094 254.847656 35.703125 C 255.226562 36.410156 255.570312 37.132812 255.875 37.875 C 256.183594 38.613281 256.453125 39.367188 256.683594 40.132812 C 256.917969 40.902344 257.113281 41.679688 257.269531 42.464844 C 257.425781 43.25 257.542969 44.042969 257.621094 44.839844 C 257.699219 45.636719 257.738281 46.4375 257.738281 47.238281 L 257.738281 233.261719 C 257.738281 234.0625 257.699219 234.863281 257.621094 235.660156 C 257.542969 236.460938 257.425781 237.25 257.269531 238.039062 C 257.113281 238.824219 256.917969 239.601562 256.683594 240.367188 C 256.453125 241.132812 256.183594 241.886719 255.875 242.628906 C 255.570312 243.371094 255.226562 244.09375 254.847656 244.800781 C 254.46875 245.507812 254.058594 246.195312 253.613281 246.859375 C 253.167969 247.527344 252.691406 248.171875 252.183594 248.789062 C 251.675781 249.410156 251.136719 250.003906 250.570312 250.570312 C 250.003906 251.136719 249.410156 251.675781 248.789062 252.183594 C 248.171875 252.691406 247.527344 253.167969 246.859375 253.613281 C 246.195312 254.058594 245.507812 254.46875 244.800781 254.847656 C 244.09375 255.226562 243.371094 255.570312 242.628906 255.875 C 241.886719 256.183594 241.132812 256.453125 240.367188 256.683594 C 239.601562 256.917969 238.824219 257.113281 238.039062 257.269531 C 237.25 257.425781 236.460938 257.542969 235.660156 257.621094 C 234.863281 257.699219 234.0625 257.738281 233.261719 257.738281 L 47.238281 257.738281 C 46.4375 257.738281 45.636719 257.699219 44.839844 257.621094 C 44.042969 257.542969 43.25 257.425781 42.464844 257.269531 C 41.679688 257.113281 40.902344 256.917969 40.132812 256.683594 C 39.367188 256.453125 38.613281 256.183594 37.875 255.875 C 37.132812 255.570312 36.410156 255.226562 35.703125 254.847656 C 34.996094 254.46875 34.308594 254.058594 33.640625 253.613281 C 32.976562 253.167969 32.332031 252.691406 31.710938 252.183594 C 31.09375 251.675781 30.5 251.136719 29.933594 250.570312 C 29.367188 250.003906 28.828125 249.410156 28.320312 248.789062 C 27.8125 248.171875 27.332031 247.527344 26.886719 246.859375 C 26.441406 246.195312 26.03125 245.507812 25.652344 244.800781 C 25.277344 244.09375 24.933594 243.371094 24.625 242.628906 C 24.320312 241.886719 24.050781 241.132812 23.816406 240.367188 C 23.585938 239.601562 23.390625 238.824219 23.234375 238.039062 C 23.078125 237.25 22.960938 236.460938 22.882812 235.660156 C 22.800781 234.863281 22.761719 234.0625 22.761719 233.261719 L 22.761719 47.238281 C 22.761719 46.4375 22.800781 45.636719 22.882812 44.839844 C 22.960938 44.042969 23.078125 43.25 23.234375 42.464844 C 23.390625 41.679688 23.585938 40.902344 23.816406 40.132812 C 24.050781 39.367188 24.320312 38.613281 24.625 37.875 C 24.933594 37.132812 25.277344 36.410156 25.652344 35.703125 C 26.03125 34.996094 26.441406 34.308594 26.886719 33.640625 C 27.332031 32.976562 27.8125 32.332031 28.320312 31.710938 C 28.828125 31.09375 29.367188 30.5 29.933594 29.933594 C 30.5 29.367188 31.09375 28.828125 31.710938 28.320312 C 32.332031 27.8125 32.976562 27.332031 33.640625 26.886719 C 34.308594 26.441406 34.996094 26.03125 35.703125 25.652344 C 36.410156 25.277344 37.132812 24.933594 37.875 24.625 C 38.613281 24.320312 39.367188 24.050781 40.132812 23.816406 C 40.902344 23.585938 41.679688 23.390625 42.464844 23.234375 C 43.25 23.078125 44.042969 22.960938 44.839844 22.882812 C 45.636719 22.800781 46.4375 22.761719 47.238281 22.761719 Z M 47.238281 22.761719 " clip-rule="nonzero"/></clipPath><linearGradient x1="286.5" gradientTransform="matrix(0.489532, 0, 0, 0.489532, 0.00000575, 0)" y1="46.5" x2="286.5" gradientUnits="userSpaceOnUse" y2="526.5" xlink:type="simple" xlink:actuate="onLoad" id="id7" xlink:show="other"><stop stop-opacity="1" stop-color="rgb(100%, 100%, 100%)" offset="0"/><stop stop-opacity="1" stop-color="rgb(99.87793%, 99.87793%, 99.87793%)" offset="0.0625"/><stop stop-opacity="1" stop-color="rgb(99.635315%, 99.635315%, 99.635315%)" offset="0.125"/><stop stop-opacity="1" stop-color="rgb(99.394226%, 99.394226%, 99.394226%)" offset="0.1875"/><stop stop-opacity="1" stop-color="rgb(99.151611%, 99.151611%, 99.151611%)" offset="0.25"/><stop stop-opacity="1" stop-color="rgb(98.893738%, 98.893738%, 98.893738%)" offset="0.3125"/><stop stop-opacity="1" stop-color="rgb(98.626709%, 98.626709%, 98.626709%)" offset="0.328125"/><stop stop-opacity="1" stop-color="rgb(98.365784%, 98.365784%, 98.365784%)" offset="0.34375"/><stop stop-opacity="1" stop-color="rgb(98.106384%, 98.106384%, 98.106384%)" offset="0.359375"/><stop stop-opacity="1" stop-color="rgb(97.845459%, 97.845459%, 97.845459%)" offset="0.375"/><stop stop-opacity="1" stop-color="rgb(97.584534%, 97.584534%, 97.584534%)" offset="0.390625"/><stop stop-opacity="1" stop-color="rgb(97.325134%, 97.325134%, 97.325134%)" offset="0.40625"/><stop stop-opacity="1" stop-color="rgb(97.064209%, 97.064209%, 97.064209%)" offset="0.421875"/><stop stop-opacity="1" stop-color="rgb(96.803284%, 96.803284%, 96.803284%)" offset="0.4375"/><stop stop-opacity="1" stop-color="rgb(96.543884%, 96.543884%, 96.543884%)" offset="0.453125"/><stop stop-opacity="1" stop-color="rgb(96.282959%, 96.282959%, 96.282959%)" offset="0.46875"/><stop stop-opacity="1" stop-color="rgb(96.022034%, 96.022034%, 96.022034%)" offset="0.484375"/><stop stop-opacity="1" stop-color="rgb(95.762634%, 95.762634%, 95.762634%)" offset="0.5"/><stop stop-opacity="1" stop-color="rgb(95.501709%, 95.501709%, 95.501709%)" offset="0.515625"/><stop stop-opacity="1" stop-color="rgb(95.275879%, 95.275879%, 95.275879%)" offset="0.523438"/><stop stop-opacity="1" stop-color="rgb(95.043945%, 95.043945%, 95.043945%)" offset="0.53125"/><stop stop-opacity="1" stop-color="rgb(94.772339%, 94.772339%, 94.772339%)" offset="0.539062"/><stop stop-opacity="1" stop-color="rgb(94.502258%, 94.502258%, 94.502258%)" offset="0.546875"/><stop stop-opacity="1" stop-color="rgb(94.230652%, 94.230652%, 94.230652%)" offset="0.554688"/><stop stop-opacity="1" stop-color="rgb(93.959045%, 93.959045%, 93.959045%)" offset="0.5625"/><stop stop-opacity="1" stop-color="rgb(93.688965%, 93.688965%, 93.688965%)" offset="0.570312"/><stop stop-opacity="1" stop-color="rgb(93.417358%, 93.417358%, 93.417358%)" offset="0.578125"/><stop stop-opacity="1" stop-color="rgb(93.145752%, 93.145752%, 93.145752%)" offset="0.585938"/><stop stop-opacity="1" stop-color="rgb(92.875671%, 92.875671%, 92.875671%)" offset="0.59375"/><stop stop-opacity="1" stop-color="rgb(92.604065%, 92.604065%, 92.604065%)" offset="0.601562"/><stop stop-opacity="1" stop-color="rgb(92.332458%, 92.332458%, 92.332458%)" offset="0.609375"/><stop stop-opacity="1" stop-color="rgb(92.060852%, 92.060852%, 92.060852%)" offset="0.617188"/><stop stop-opacity="1" stop-color="rgb(91.790771%, 91.790771%, 91.790771%)" offset="0.625"/><stop stop-opacity="1" stop-color="rgb(91.519165%, 91.519165%, 91.519165%)" offset="0.632812"/><stop stop-opacity="1" stop-color="rgb(91.247559%, 91.247559%, 91.247559%)" offset="0.640625"/><stop stop-opacity="1" stop-color="rgb(90.977478%, 90.977478%, 90.977478%)" offset="0.648437"/><stop stop-opacity="1" stop-color="rgb(90.705872%, 90.705872%, 90.705872%)" offset="0.65625"/><stop stop-opacity="1" stop-color="rgb(90.434265%, 90.434265%, 90.434265%)" offset="0.664062"/><stop stop-opacity="1" stop-color="rgb(90.164185%, 90.164185%, 90.164185%)" offset="0.671875"/><stop stop-opacity="1" stop-color="rgb(89.892578%, 89.892578%, 89.892578%)" offset="0.679688"/><stop stop-opacity="1" stop-color="rgb(89.620972%, 89.620972%, 89.620972%)" offset="0.6875"/><stop stop-opacity="1" stop-color="rgb(89.306641%, 89.306641%, 89.306641%)" offset="0.695312"/><stop stop-opacity="1" stop-color="rgb(88.926697%, 88.926697%, 88.926697%)" offset="0.699219"/><stop stop-opacity="1" stop-color="rgb(88.726807%, 88.726807%, 88.726807%)" offset="0.703125"/><stop stop-opacity="1" stop-color="rgb(88.525391%, 88.525391%, 88.525391%)" offset="0.707031"/><stop stop-opacity="1" stop-color="rgb(88.3255%, 88.3255%, 88.3255%)" offset="0.710938"/><stop stop-opacity="1" stop-color="rgb(88.12561%, 88.12561%, 88.12561%)" offset="0.714844"/><stop stop-opacity="1" stop-color="rgb(87.92572%, 87.92572%, 87.92572%)" offset="0.71875"/><stop stop-opacity="1" stop-color="rgb(87.72583%, 87.72583%, 87.72583%)" offset="0.722656"/><stop stop-opacity="1" stop-color="rgb(87.52594%, 87.52594%, 87.52594%)" offset="0.726563"/><stop stop-opacity="1" stop-color="rgb(87.324524%, 87.324524%, 87.324524%)" offset="0.730469"/><stop stop-opacity="1" stop-color="rgb(87.124634%, 87.124634%, 87.124634%)" offset="0.734375"/><stop stop-opacity="1" stop-color="rgb(86.924744%, 86.924744%, 86.924744%)" offset="0.738281"/><stop stop-opacity="1" stop-color="rgb(86.724854%, 86.724854%, 86.724854%)" offset="0.742188"/><stop stop-opacity="1" stop-color="rgb(86.523438%, 86.523438%, 86.523438%)" offset="0.746094"/><stop stop-opacity="1" stop-color="rgb(86.323547%, 86.323547%, 86.323547%)" offset="0.75"/><stop stop-opacity="1" stop-color="rgb(86.123657%, 86.123657%, 86.123657%)" offset="0.753906"/><stop stop-opacity="1" stop-color="rgb(85.923767%, 85.923767%, 85.923767%)" offset="0.757812"/><stop stop-opacity="1" stop-color="rgb(85.723877%, 85.723877%, 85.723877%)" offset="0.761719"/><stop stop-opacity="1" stop-color="rgb(85.523987%, 85.523987%, 85.523987%)" offset="0.765625"/><stop stop-opacity="1" stop-color="rgb(85.322571%, 85.322571%, 85.322571%)" offset="0.769531"/><stop stop-opacity="1" stop-color="rgb(85.122681%, 85.122681%, 85.122681%)" offset="0.773438"/><stop stop-opacity="1" stop-color="rgb(84.922791%, 84.922791%, 84.922791%)" offset="0.777344"/><stop stop-opacity="1" stop-color="rgb(84.7229%, 84.7229%, 84.7229%)" offset="0.78125"/><stop stop-opacity="1" stop-color="rgb(84.521484%, 84.521484%, 84.521484%)" offset="0.785156"/><stop stop-opacity="1" stop-color="rgb(84.321594%, 84.321594%, 84.321594%)" offset="0.789062"/><stop stop-opacity="1" stop-color="rgb(84.121704%, 84.121704%, 84.121704%)" offset="0.792969"/><stop stop-opacity="1" stop-color="rgb(83.921814%, 83.921814%, 83.921814%)" offset="0.796875"/><stop stop-opacity="1" stop-color="rgb(83.721924%, 83.721924%, 83.721924%)" offset="0.800781"/><stop stop-opacity="1" stop-color="rgb(83.522034%, 83.522034%, 83.522034%)" offset="0.804688"/><stop stop-opacity="1" stop-color="rgb(83.320618%, 83.320618%, 83.320618%)" offset="0.808594"/><stop stop-opacity="1" stop-color="rgb(83.120728%, 83.120728%, 83.120728%)" offset="0.8125"/><stop stop-opacity="1" stop-color="rgb(82.920837%, 82.920837%, 82.920837%)" offset="0.816406"/><stop stop-opacity="1" stop-color="rgb(82.720947%, 82.720947%, 82.720947%)" offset="0.820313"/><stop stop-opacity="1" stop-color="rgb(82.519531%, 82.519531%, 82.519531%)" offset="0.824219"/><stop stop-opacity="1" stop-color="rgb(82.319641%, 82.319641%, 82.319641%)" offset="0.828125"/><stop stop-opacity="1" stop-color="rgb(82.119751%, 82.119751%, 82.119751%)" offset="0.832031"/><stop stop-opacity="1" stop-color="rgb(81.919861%, 81.919861%, 81.919861%)" offset="0.835938"/><stop stop-opacity="1" stop-color="rgb(81.719971%, 81.719971%, 81.719971%)" offset="0.839844"/><stop stop-opacity="1" stop-color="rgb(81.520081%, 81.520081%, 81.520081%)" offset="0.84375"/><stop stop-opacity="1" stop-color="rgb(81.300354%, 81.300354%, 81.300354%)" offset="0.847656"/><stop stop-opacity="1" stop-color="rgb(81.080627%, 81.080627%, 81.080627%)" offset="0.851562"/><stop stop-opacity="1" stop-color="rgb(80.784607%, 80.784607%, 80.784607%)" offset="0.855469"/><stop stop-opacity="1" stop-color="rgb(80.490112%, 80.490112%, 80.490112%)" offset="0.859375"/><stop stop-opacity="1" stop-color="rgb(80.194092%, 80.194092%, 80.194092%)" offset="0.863281"/><stop stop-opacity="1" stop-color="rgb(79.898071%, 79.898071%, 79.898071%)" offset="0.867187"/><stop stop-opacity="1" stop-color="rgb(79.602051%, 79.602051%, 79.602051%)" offset="0.871094"/><stop stop-opacity="1" stop-color="rgb(79.30603%, 79.30603%, 79.30603%)" offset="0.875"/><stop stop-opacity="1" stop-color="rgb(79.01001%, 79.01001%, 79.01001%)" offset="0.878906"/><stop stop-opacity="1" stop-color="rgb(78.715515%, 78.715515%, 78.715515%)" offset="0.882812"/><stop stop-opacity="1" stop-color="rgb(78.419495%, 78.419495%, 78.419495%)" offset="0.886719"/><stop stop-opacity="1" stop-color="rgb(78.123474%, 78.123474%, 78.123474%)" offset="0.890625"/><stop stop-opacity="1" stop-color="rgb(77.827454%, 77.827454%, 77.827454%)" offset="0.894531"/><stop stop-opacity="1" stop-color="rgb(77.531433%, 77.531433%, 77.531433%)" offset="0.898438"/><stop stop-opacity="1" stop-color="rgb(77.235413%, 77.235413%, 77.235413%)" offset="0.902344"/><stop stop-opacity="1" stop-color="rgb(76.940918%, 76.940918%, 76.940918%)" offset="0.90625"/><stop stop-opacity="1" stop-color="rgb(76.644897%, 76.644897%, 76.644897%)" offset="0.910156"/><stop stop-opacity="1" stop-color="rgb(76.348877%, 76.348877%, 76.348877%)" offset="0.914062"/><stop stop-opacity="1" stop-color="rgb(76.052856%, 76.052856%, 76.052856%)" offset="0.917969"/><stop stop-opacity="1" stop-color="rgb(75.756836%, 75.756836%, 75.756836%)" offset="0.921875"/><stop stop-opacity="1" stop-color="rgb(75.460815%, 75.460815%, 75.460815%)" offset="0.925781"/><stop stop-opacity="1" stop-color="rgb(75.166321%, 75.166321%, 75.166321%)" offset="0.929688"/><stop stop-opacity="1" stop-color="rgb(74.8703%, 74.8703%, 74.8703%)" offset="0.933594"/><stop stop-opacity="1" stop-color="rgb(74.57428%, 74.57428%, 74.57428%)" offset="0.9375"/><stop stop-opacity="1" stop-color="rgb(74.278259%, 74.278259%, 74.278259%)" offset="0.941406"/><stop stop-opacity="1" stop-color="rgb(73.982239%, 73.982239%, 73.982239%)" offset="0.945312"/><stop stop-opacity="1" stop-color="rgb(73.686218%, 73.686218%, 73.686218%)" offset="0.949219"/><stop stop-opacity="1" stop-color="rgb(73.391724%, 73.391724%, 73.391724%)" offset="0.953125"/><stop stop-opacity="1" stop-color="rgb(73.095703%, 73.095703%, 73.095703%)" offset="0.957031"/><stop stop-opacity="1" stop-color="rgb(72.799683%, 72.799683%, 72.799683%)" offset="0.960937"/><stop stop-opacity="1" stop-color="rgb(72.503662%, 72.503662%, 72.503662%)" offset="0.964844"/><stop stop-opacity="1" stop-color="rgb(72.207642%, 72.207642%, 72.207642%)" offset="0.96875"/><stop stop-opacity="1" stop-color="rgb(71.911621%, 71.911621%, 71.911621%)" offset="0.972656"/><stop stop-opacity="1" stop-color="rgb(71.617126%, 71.617126%, 71.617126%)" offset="0.976562"/><stop stop-opacity="1" stop-color="rgb(71.321106%, 71.321106%, 71.321106%)" offset="0.980469"/><stop stop-opacity="1" stop-color="rgb(71.025085%, 71.025085%, 71.025085%)" offset="0.984375"/><stop stop-opacity="1" stop-color="rgb(70.768738%, 70.768738%, 70.768738%)" offset="0.988281"/><stop stop-opacity="1" stop-color="rgb(70.51239%, 70.51239%, 70.51239%)" offset="0.992188"/><stop stop-opacity="1" stop-color="rgb(70.355225%, 70.355225%, 70.355225%)" offset="1"/></linearGradient></defs><g clip-path="url(#id1)"><g clip-path="url(#id2)"><path fill="url(#id3)" d="M 5.628906 5.628906 L 5.628906 274.871094 L 274.871094 274.871094 L 274.871094 5.628906 Z M 5.628906 5.628906 " fill-rule="nonzero"/></g></g><g clip-path="url(#id4)"><path stroke-linecap="butt" transform="matrix(0.489532, 0, 0, 0.489532, 0.00000575, -0.000000000000042519)" fill="none" stroke-linejoin="miter" d="M 91.501562 11.498541 L 481.502385 11.498541 C 484.11968 11.498541 486.736974 11.626214 489.33831 11.88156 C 491.947625 12.144885 494.540981 12.527904 497.110398 13.038595 C 499.679815 13.549287 502.217314 14.187651 504.722895 14.945709 C 507.228475 15.703767 509.694158 16.589498 512.111964 17.586942 C 514.537749 18.592367 516.899698 19.709505 519.213769 20.946336 C 521.519861 22.183167 523.770096 23.523733 525.948515 24.983991 C 528.126934 26.436271 530.225557 28.000264 532.252365 29.660011 C 534.279172 31.319759 536.218204 33.075262 538.069461 34.934498 C 539.920718 36.785755 541.676221 38.724788 543.343948 40.751595 C 545.003696 42.770423 546.559709 44.877026 548.019968 47.055445 C 549.472247 49.233863 550.820793 51.476119 552.049644 53.79019 C 553.286475 56.096282 554.403613 58.46621 555.409037 60.884016 C 556.414462 63.309801 557.292213 65.767505 558.05825 68.281065 C 558.816308 70.786646 559.454673 73.324144 559.965364 75.893562 C 560.476056 78.462979 560.859075 81.048355 561.11442 83.65767 C 561.369766 86.266985 561.497439 88.8763 561.497439 91.501574 L 561.497439 481.502397 C 561.497439 484.119692 561.369766 486.736986 561.11442 489.338322 C 560.859075 491.947637 560.476056 494.540992 559.965364 497.11041 C 559.454673 499.679827 558.816308 502.217326 558.05825 504.722906 C 557.292213 507.228487 556.414462 509.69417 555.409037 512.111976 C 554.403613 514.537761 553.286475 516.89971 552.057624 519.213781 C 550.820793 521.519873 549.472247 523.770108 548.019968 525.948527 C 546.559709 528.126946 545.003696 530.225569 543.343948 532.252376 C 541.676221 534.279184 539.920718 536.218216 538.069461 538.069473 C 536.218204 539.92073 534.279172 541.676233 532.252365 543.34396 C 530.225557 545.003708 528.126934 546.559721 525.948515 548.01998 C 523.770096 549.472259 521.519861 550.820804 519.213769 552.049656 C 516.899698 553.286487 514.537749 554.403625 512.111964 555.409049 C 509.694158 556.414473 507.228475 557.292225 504.722895 558.058262 C 502.217314 558.81632 499.679815 559.454684 497.110398 559.965376 C 494.540981 560.476068 491.947625 560.859086 489.33831 561.114432 C 486.736974 561.369778 484.11968 561.497451 481.502385 561.497451 L 91.501562 561.497451 C 88.876288 561.497451 86.266973 561.369778 83.657658 561.114432 C 81.048343 560.859086 78.462967 560.476068 75.89355 559.965376 C 73.324133 559.454684 70.786634 558.81632 68.281053 558.058262 C 65.767493 557.292225 63.309789 556.414473 60.884004 555.409049 C 58.466199 554.403625 56.09627 553.286487 53.790178 552.057636 C 51.476107 550.820804 49.233852 549.472259 47.055433 548.01998 C 44.877014 546.559721 42.770411 545.003708 40.751583 543.34396 C 38.724776 541.676233 36.785744 539.92073 34.934487 538.069473 C 33.07525 536.218216 31.319747 534.279184 29.66 532.252376 C 28.000252 530.225569 26.436259 528.126946 24.98398 525.948527 C 23.523721 523.770108 22.183155 521.519873 20.946324 519.213781 C 19.709493 516.89971 18.592355 514.537761 17.586931 512.111976 C 16.589486 509.69417 15.703755 507.228487 14.945698 504.722906 C 14.18764 502.217326 13.549275 499.679827 13.038584 497.11041 C 12.527892 494.540992 12.144873 491.947637 11.881548 489.338322 C 11.626202 486.736986 11.498529 484.119692 11.498529 481.502397 L 11.498529 91.501574 C 11.498529 88.8763 11.626202 86.266985 11.881548 83.65767 C 12.144873 81.048355 12.527892 78.462979 13.038584 75.893562 C 13.549275 73.324144 14.18764 70.786646 14.945698 68.281065 C 15.703755 65.767505 16.589486 63.309801 17.586931 60.884016 C 18.592355 58.46621 19.709493 56.096282 20.946324 53.79019 C 22.183155 51.476119 23.523721 49.233863 24.98398 47.055445 C 26.436259 44.877026 28.000252 42.770423 29.66 40.751595 C 31.319747 38.724788 33.07525 36.785755 34.934487 34.934498 C 36.785744 33.075262 38.724776 31.319759 40.751583 29.660011 C 42.770411 28.000264 44.877014 26.436271 47.055433 24.983991 C 49.233852 23.523733 51.476107 22.183167 53.790178 20.946336 C 56.09627 19.709505 58.466199 18.592367 60.884004 17.586942 C 63.309789 16.589498 65.767493 15.703767 68.281053 14.945709 C 70.786634 14.187651 73.324133 13.549287 75.89355 13.038595 C 78.462967 12.527904 81.048343 12.144885 83.657658 11.88156 C 86.266973 11.626214 88.876288 11.498541 91.501562 11.498541 Z M 91.501562 11.498541 " stroke="rgb(50.19989%, 50.19989%, 50.19989%)" stroke-width="23" stroke-opacity="1" stroke-miterlimit="10"/></g><g clip-path="url(#id5)"><g clip-path="url(#id6)"><path fill="url(#id7)" d="M 22.761719 22.761719 L 22.761719 257.738281 L 257.738281 257.738281 L 257.738281 22.761719 Z M 22.761719 22.761719 " fill-rule="nonzero"/></g></g><path fill="rgb(0%, 0%, 0%)" d="M 143.082031 60.378906 C 144.25 60.378906 145.417969 60.414062 146.582031 60.480469 C 147.75 60.546875 148.914062 60.644531 150.074219 60.78125 C 151.234375 60.914062 152.390625 61.082031 153.542969 61.28125 C 154.691406 61.480469 155.835938 61.710938 156.976562 61.976562 C 158.113281 62.242188 159.242188 62.539062 160.363281 62.871094 C 161.484375 63.199219 162.59375 63.5625 163.695312 63.957031 C 164.796875 64.351562 165.882812 64.773438 166.960938 65.230469 C 168.035156 65.6875 169.097656 66.171875 170.144531 66.691406 C 171.191406 67.207031 172.226562 67.753906 173.242188 68.328125 C 174.257812 68.90625 175.257812 69.511719 176.238281 70.144531 C 177.222656 70.777344 178.183594 71.4375 179.128906 72.125 C 180.074219 72.8125 180.996094 73.527344 181.898438 74.269531 C 182.804688 75.011719 183.683594 75.777344 184.542969 76.570312 C 185.402344 77.359375 186.238281 78.175781 187.050781 79.015625 C 187.863281 79.855469 188.652344 80.71875 189.414062 81.601562 C 190.179688 82.488281 190.914062 83.394531 191.625 84.320312 C 192.335938 85.246094 193.023438 86.195312 193.679688 87.160156 C 194.335938 88.125 194.964844 89.109375 195.566406 90.113281 C 196.167969 91.113281 196.738281 92.132812 197.28125 93.167969 C 197.820312 94.203125 198.335938 95.253906 198.816406 96.316406 C 199.300781 97.382812 199.75 98.460938 200.171875 99.550781 C 200.589844 100.640625 200.980469 101.742188 201.335938 102.851562 C 201.695312 103.964844 202.019531 105.085938 202.3125 106.21875 C 202.605469 107.347656 202.867188 108.488281 203.09375 109.632812 C 203.324219 110.78125 203.519531 111.929688 203.679688 113.089844 C 203.839844 114.246094 203.96875 115.40625 204.066406 116.570312 C 204.160156 117.734375 204.222656 118.902344 204.253906 120.070312 C 204.28125 121.238281 204.277344 122.40625 204.238281 123.574219 C 204.199219 124.742188 204.128906 125.90625 204.023438 127.070312 C 203.917969 128.234375 203.78125 129.394531 203.609375 130.550781 C 203.4375 131.707031 203.230469 132.855469 202.996094 134 C 202.757812 135.144531 202.488281 136.28125 202.183594 137.410156 C 201.882812 138.539062 201.546875 139.65625 201.179688 140.765625 C 200.816406 141.875 200.417969 142.972656 199.988281 144.0625 C 199.558594 145.148438 199.097656 146.222656 198.605469 147.28125 C 198.117188 148.339844 197.59375 149.386719 197.042969 150.417969 C 196.492188 151.449219 195.914062 152.460938 195.304688 153.457031 C 194.695312 154.457031 194.058594 155.433594 193.394531 156.394531 C 192.730469 157.355469 192.035156 158.296875 191.316406 159.21875 C 190.597656 160.140625 189.855469 161.039062 189.085938 161.917969 C 188.3125 162.796875 187.519531 163.652344 186.699219 164.484375 C 185.878906 165.316406 185.039062 166.125 184.171875 166.910156 C 183.304688 167.695312 182.417969 168.457031 181.507812 169.1875 C 180.601562 169.921875 179.671875 170.628906 178.71875 171.3125 C 177.769531 171.992188 176.800781 172.644531 175.816406 173.269531 C 174.828125 173.894531 173.824219 174.492188 172.800781 175.058594 C 171.78125 175.625 170.746094 176.164062 169.691406 176.671875 C 168.640625 177.179688 167.574219 177.65625 166.496094 178.105469 C 165.414062 178.550781 164.324219 178.96875 163.21875 179.351562 C 162.117188 179.738281 161.003906 180.089844 159.878906 180.410156 C 158.757812 180.730469 157.625 181.019531 156.484375 181.277344 C 155.34375 181.53125 154.199219 181.753906 153.046875 181.945312 C 151.890625 182.136719 150.734375 182.292969 149.574219 182.417969 C 148.410156 182.539062 147.246094 182.632812 146.078125 182.6875 C 144.914062 182.746094 143.746094 182.769531 142.578125 182.761719 C 141.410156 182.75 140.242188 182.707031 139.074219 182.632812 C 137.910156 182.554688 136.746094 182.445312 135.585938 182.300781 C 134.425781 182.160156 133.273438 181.984375 132.125 181.773438 C 130.972656 181.5625 129.832031 181.320312 128.695312 181.046875 C 127.558594 180.773438 126.433594 180.464844 125.316406 180.125 C 124.195312 179.789062 123.089844 179.417969 121.992188 179.015625 C 120.894531 178.609375 119.8125 178.175781 118.738281 177.710938 C 117.667969 177.25 116.609375 176.753906 115.566406 176.226562 C 114.523438 175.703125 113.492188 175.148438 112.480469 174.5625 C 111.46875 173.980469 110.476562 173.367188 109.5 172.726562 C 108.523438 172.082031 107.566406 171.414062 106.625 170.71875 C 105.6875 170.023438 104.769531 169.300781 103.871094 168.550781 C 102.976562 167.804688 102.101562 167.03125 101.246094 166.230469 C 100.394531 165.433594 99.566406 164.609375 98.761719 163.761719 C 97.953125 162.917969 97.171875 162.046875 96.417969 161.15625 C 95.660156 160.265625 94.933594 159.355469 94.226562 158.421875 C 93.523438 157.488281 92.847656 156.539062 92.199219 155.566406 C 91.550781 154.59375 90.929688 153.605469 90.335938 152.597656 C 89.746094 151.589844 89.179688 150.566406 88.648438 149.527344 C 88.113281 148.488281 87.609375 147.433594 87.136719 146.367188 C 86.664062 145.296875 86.21875 144.21875 85.808594 143.125 C 85.398438 142.03125 85.015625 140.925781 84.667969 139.8125 C 84.320312 138.695312 84.003906 137.570312 83.722656 136.4375 C 83.4375 135.304688 83.1875 134.164062 82.96875 133.015625 C 82.75 131.867188 82.5625 130.714844 82.410156 129.554688 C 82.257812 128.398438 82.140625 127.234375 82.054688 126.070312 C 81.96875 124.90625 81.914062 123.738281 81.894531 122.570312 C 81.875 121.402344 81.890625 120.234375 81.9375 119.066406 C 81.988281 117.898438 82.066406 116.734375 82.183594 115.570312 C 82.296875 114.410156 82.445312 113.25 82.625 112.097656 C 82.804688 110.941406 83.019531 109.792969 83.265625 108.652344 C 83.511719 107.507812 83.792969 106.375 84.105469 105.25 C 84.414062 104.121094 84.757812 103.007812 85.136719 101.898438 C 85.511719 100.792969 85.917969 99.699219 86.355469 98.617188 C 86.792969 97.53125 87.261719 96.460938 87.761719 95.40625 C 88.261719 94.351562 88.792969 93.308594 89.351562 92.285156 C 89.910156 91.257812 90.5 90.25 91.117188 89.257812 C 91.734375 88.265625 92.378906 87.289062 93.050781 86.335938 C 93.722656 85.378906 94.421875 84.445312 95.148438 83.527344 C 95.875 82.613281 96.628906 81.71875 97.40625 80.847656 C 98.183594 79.976562 98.984375 79.125 99.8125 78.300781 C 102.644531 75.449219 105.730469 72.90625 109.070312 70.667969 C 112.410156 68.429688 115.9375 66.542969 119.652344 65.003906 C 123.363281 63.46875 127.191406 62.308594 131.136719 61.53125 C 135.078125 60.75 139.0625 60.367188 143.082031 60.378906 M 143.082031 50.589844 C 141.917969 50.589844 140.757812 50.617188 139.597656 50.671875 C 138.4375 50.730469 137.277344 50.816406 136.121094 50.929688 C 134.96875 51.042969 133.8125 51.1875 132.664062 51.355469 C 131.515625 51.527344 130.371094 51.726562 129.234375 51.953125 C 128.09375 52.179688 126.960938 52.433594 125.832031 52.714844 C 124.707031 52.996094 123.585938 53.308594 122.476562 53.644531 C 121.363281 53.980469 120.261719 54.347656 119.167969 54.738281 C 118.074219 55.128906 116.988281 55.546875 115.917969 55.992188 C 114.84375 56.4375 113.78125 56.90625 112.730469 57.402344 C 111.679688 57.898438 110.644531 58.421875 109.621094 58.96875 C 108.59375 59.515625 107.585938 60.089844 106.589844 60.6875 C 105.59375 61.285156 104.609375 61.90625 103.644531 62.550781 C 102.679688 63.195312 101.730469 63.863281 100.796875 64.558594 C 99.863281 65.25 98.949219 65.964844 98.050781 66.699219 C 97.152344 67.4375 96.273438 68.195312 95.410156 68.976562 C 94.550781 69.757812 93.710938 70.558594 92.886719 71.378906 C 92.066406 72.199219 91.265625 73.039062 90.484375 73.902344 C 89.707031 74.761719 88.949219 75.640625 88.210938 76.539062 C 87.472656 77.4375 86.757812 78.351562 86.066406 79.285156 C 85.375 80.21875 84.707031 81.167969 84.0625 82.136719 C 83.414062 83.101562 82.792969 84.082031 82.195312 85.078125 C 81.601562 86.074219 81.027344 87.085938 80.480469 88.109375 C 79.933594 89.132812 79.410156 90.171875 78.914062 91.222656 C 78.417969 92.273438 77.945312 93.332031 77.5 94.40625 C 77.058594 95.480469 76.640625 96.5625 76.246094 97.65625 C 75.855469 98.75 75.492188 99.855469 75.15625 100.964844 C 74.816406 102.078125 74.507812 103.195312 74.226562 104.324219 C 73.941406 105.449219 73.6875 106.582031 73.460938 107.722656 C 73.234375 108.863281 73.035156 110.007812 72.867188 111.15625 C 72.695312 112.304688 72.554688 113.457031 72.441406 114.613281 C 72.328125 115.769531 72.242188 116.925781 72.183594 118.085938 C 72.125 119.246094 72.097656 120.410156 72.097656 121.570312 C 72.097656 122.730469 72.125 123.894531 72.183594 125.054688 C 72.242188 126.214844 72.328125 127.371094 72.441406 128.527344 C 72.554688 129.683594 72.695312 130.835938 72.867188 131.984375 C 73.035156 133.136719 73.234375 134.277344 73.460938 135.417969 C 73.6875 136.558594 73.941406 137.691406 74.226562 138.816406 C 74.507812 139.945312 74.816406 141.0625 75.15625 142.175781 C 75.492188 143.289062 75.855469 144.390625 76.246094 145.484375 C 76.640625 146.578125 77.058594 147.660156 77.5 148.734375 C 77.945312 149.808594 78.417969 150.867188 78.914062 151.917969 C 79.410156 152.96875 79.933594 154.007812 80.480469 155.03125 C 81.027344 156.054688 81.601562 157.066406 82.195312 158.0625 C 82.792969 159.058594 83.414062 160.039062 84.0625 161.007812 C 84.707031 161.972656 85.375 162.921875 86.066406 163.855469 C 86.757812 164.789062 87.472656 165.703125 88.210938 166.601562 C 88.949219 167.5 89.707031 168.378906 90.484375 169.238281 C 91.265625 170.101562 92.066406 170.941406 92.886719 171.761719 C 93.710938 172.582031 94.550781 173.382812 95.410156 174.164062 C 96.273438 174.945312 97.152344 175.703125 98.050781 176.441406 C 98.949219 177.175781 99.863281 177.890625 100.796875 178.582031 C 101.730469 179.277344 102.679688 179.945312 103.644531 180.589844 C 104.609375 181.234375 105.59375 181.855469 106.589844 182.453125 C 107.585938 183.050781 108.59375 183.625 109.621094 184.171875 C 110.644531 184.71875 111.679688 185.242188 112.730469 185.738281 C 113.78125 186.234375 114.84375 186.703125 115.917969 187.148438 C 116.988281 187.59375 118.074219 188.011719 119.167969 188.402344 C 120.261719 188.792969 121.363281 189.160156 122.476562 189.496094 C 123.585938 189.832031 124.707031 190.144531 125.832031 190.425781 C 126.960938 190.707031 128.09375 190.960938 129.234375 191.1875 C 130.371094 191.414062 131.515625 191.613281 132.664062 191.785156 C 133.8125 191.953125 134.96875 192.097656 136.121094 192.210938 C 137.277344 192.324219 138.4375 192.410156 139.597656 192.46875 C 140.757812 192.523438 141.917969 192.550781 143.082031 192.550781 C 144.242188 192.550781 145.402344 192.523438 146.5625 192.46875 C 147.722656 192.410156 148.882812 192.324219 150.039062 192.210938 C 151.195312 192.097656 152.347656 191.953125 153.496094 191.785156 C 154.644531 191.613281 155.789062 191.414062 156.929688 191.1875 C 158.066406 190.960938 159.199219 190.707031 160.328125 190.425781 C 161.453125 190.144531 162.574219 189.832031 163.683594 189.496094 C 164.796875 189.160156 165.898438 188.792969 166.992188 188.402344 C 168.085938 188.011719 169.171875 187.59375 170.246094 187.148438 C 171.316406 186.703125 172.378906 186.234375 173.429688 185.738281 C 174.480469 185.242188 175.515625 184.71875 176.542969 184.171875 C 177.566406 183.625 178.578125 183.050781 179.574219 182.453125 C 180.570312 181.855469 181.550781 181.234375 182.515625 180.589844 C 183.480469 179.945312 184.429688 179.277344 185.363281 178.582031 C 186.296875 177.890625 187.214844 177.175781 188.109375 176.441406 C 189.007812 175.703125 189.886719 174.945312 190.75 174.164062 C 191.609375 173.382812 192.449219 172.582031 193.273438 171.761719 C 194.09375 170.941406 194.894531 170.101562 195.675781 169.238281 C 196.453125 168.378906 197.214844 167.5 197.949219 166.601562 C 198.6875 165.703125 199.402344 164.789062 200.09375 163.855469 C 200.785156 162.921875 201.453125 161.972656 202.101562 161.007812 C 202.746094 160.039062 203.367188 159.058594 203.964844 158.0625 C 204.5625 157.066406 205.132812 156.054688 205.679688 155.03125 C 206.230469 154.007812 206.75 152.96875 207.246094 151.917969 C 207.746094 150.867188 208.214844 149.808594 208.660156 148.734375 C 209.105469 147.660156 209.523438 146.578125 209.914062 145.484375 C 210.304688 144.390625 210.667969 143.289062 211.007812 142.175781 C 211.34375 141.0625 211.652344 139.945312 211.933594 138.816406 C 212.21875 137.691406 212.472656 136.558594 212.699219 135.417969 C 212.925781 134.277344 213.125 133.136719 213.292969 131.984375 C 213.464844 130.835938 213.605469 129.683594 213.722656 128.527344 C 213.835938 127.371094 213.921875 126.214844 213.976562 125.054688 C 214.035156 123.894531 214.0625 122.730469 214.0625 121.570312 C 214.0625 120.410156 214.035156 119.246094 213.976562 118.085938 C 213.921875 116.925781 213.835938 115.769531 213.722656 114.613281 C 213.605469 113.457031 213.464844 112.304688 213.292969 111.15625 C 213.125 110.007812 212.925781 108.863281 212.699219 107.722656 C 212.472656 106.582031 212.21875 105.449219 211.933594 104.324219 C 211.652344 103.195312 211.34375 102.078125 211.007812 100.964844 C 210.667969 99.855469 210.304688 98.75 209.914062 97.65625 C 209.523438 96.5625 209.105469 95.480469 208.660156 94.40625 C 208.214844 93.332031 207.746094 92.273438 207.246094 91.222656 C 206.75 90.171875 206.230469 89.132812 205.679688 88.109375 C 205.132812 87.085938 204.5625 86.074219 203.964844 85.078125 C 203.367188 84.082031 202.746094 83.101562 202.101562 82.136719 C 201.453125 81.167969 200.785156 80.21875 200.09375 79.285156 C 199.402344 78.351562 198.6875 77.4375 197.949219 76.539062 C 197.214844 75.640625 196.453125 74.761719 195.675781 73.902344 C 194.894531 73.039062 194.09375 72.199219 193.273438 71.378906 C 192.449219 70.558594 191.609375 69.757812 190.75 68.976562 C 189.886719 68.195312 189.007812 67.4375 188.109375 66.699219 C 187.214844 65.964844 186.296875 65.25 185.363281 64.558594 C 184.429688 63.863281 183.480469 63.195312 182.515625 62.550781 C 181.550781 61.90625 180.570312 61.285156 179.574219 60.6875 C 178.578125 60.089844 177.566406 59.515625 176.542969 58.96875 C 175.515625 58.421875 174.480469 57.898438 173.429688 57.402344 C 172.378906 56.90625 171.316406 56.4375 170.246094 55.992188 C 169.171875 55.546875 168.085938 55.128906 166.992188 54.738281 C 165.898438 54.347656 164.796875 53.980469 163.683594 53.644531 C 162.574219 53.308594 161.453125 52.996094 160.328125 52.714844 C 159.199219 52.433594 158.066406 52.179688 156.929688 51.953125 C 155.789062 51.726562 154.644531 51.527344 153.496094 51.355469 C 152.347656 51.1875 151.195312 51.042969 150.039062 50.929688 C 148.882812 50.816406 147.722656 50.730469 146.5625 50.671875 C 145.402344 50.617188 144.242188 50.589844 143.082031 50.589844 Z M 143.082031 50.589844 " fill-opacity="1" fill-rule="nonzero"/><path fill="rgb(0%, 0%, 0%)" d="M 161.496094 125.390625 L 134.542969 125.390625 L 134.542969 149.179688 L 164.582031 149.179688 L 164.582031 156.328125 L 125.59375 156.328125 L 125.59375 90.320312 L 163.039062 90.320312 L 163.039062 97.464844 L 134.542969 97.464844 L 134.542969 118.320312 L 161.496094 118.320312 Z M 161.496094 125.390625 " fill-opacity="1" fill-rule="nonzero"/><path fill="rgb(0%, 0%, 0%)" d="M 52.652344 210.277344 L 56.710938 210.277344 L 56.710938 240.199219 L 52.652344 240.199219 Z M 52.652344 210.277344 " fill-opacity="1" fill-rule="nonzero"/><path fill="rgb(0%, 0%, 0%)" d="M 63.238281 235.488281 C 65.492188 236.773438 67.917969 237.425781 70.511719 237.449219 C 74.664062 237.449219 77.089844 235.363281 77.089844 232.347656 C 77.089844 229.546875 75.414062 227.941406 71.167969 226.398438 C 66.039062 224.664062 62.847656 222.136719 62.847656 217.921875 C 62.847656 213.261719 66.90625 209.796875 73.015625 209.796875 C 76.230469 209.796875 78.558594 210.507812 79.960938 211.265625 L 78.84375 214.421875 C 76.96875 213.464844 74.976562 212.992188 72.871094 213 C 68.582031 213 66.949219 215.449219 66.949219 217.480469 C 66.949219 220.28125 68.863281 221.65625 73.199219 223.25 C 78.515625 225.210938 81.21875 227.65625 81.21875 232.0625 C 81.21875 236.679688 77.628906 240.671875 70.214844 240.671875 C 67.183594 240.671875 63.875 239.832031 62.195312 238.765625 Z M 63.238281 235.488281 " fill-opacity="1" fill-rule="nonzero"/><path fill="rgb(0%, 0%, 0%)" d="M 113.648438 224.941406 C 113.648438 235.21875 107.074219 240.691406 99.050781 240.691406 C 90.730469 240.691406 84.925781 234.570312 84.925781 225.519531 C 84.925781 216.019531 91.125 209.808594 99.523438 209.808594 C 108.097656 209.792969 113.648438 216.050781 113.648438 224.941406 Z M 89.261719 225.429688 C 89.261719 231.824219 92.898438 237.546875 99.285156 237.546875 C 105.675781 237.546875 109.363281 231.910156 109.363281 225.121094 C 109.363281 219.171875 106.097656 212.960938 99.332031 212.960938 C 92.566406 212.960938 89.261719 218.84375 89.261719 225.429688 Z M 89.261719 225.429688 " fill-opacity="1" fill-rule="nonzero"/><path fill="rgb(0%, 0%, 0%)" d="M 155.667969 224.941406 C 155.667969 235.21875 149.09375 240.691406 141.070312 240.691406 C 132.746094 240.691406 126.941406 234.570312 126.941406 225.519531 C 126.941406 216.019531 133.144531 209.808594 141.535156 209.808594 C 150.113281 209.792969 155.667969 216.050781 155.667969 224.941406 Z M 131.277344 225.429688 C 131.277344 231.824219 134.914062 237.546875 141.304688 237.546875 C 147.691406 237.546875 151.375 231.910156 151.375 225.121094 C 151.375 219.171875 148.109375 212.960938 141.347656 212.960938 C 134.585938 212.960938 131.277344 218.84375 131.277344 225.429688 Z M 131.277344 225.429688 " fill-opacity="1" fill-rule="nonzero"/><path fill="rgb(0%, 0%, 0%)" d="M 160.933594 240.199219 L 160.933594 210.277344 L 165.363281 210.277344 L 175.4375 225.429688 C 177.535156 228.542969 179.414062 231.785156 181.078125 235.152344 L 181.171875 235.109375 C 180.800781 231.113281 180.707031 227.472656 180.707031 222.8125 L 180.707031 210.277344 L 184.527344 210.277344 L 184.527344 240.199219 L 180.425781 240.199219 L 170.445312 225.023438 C 168.28125 221.816406 166.324219 218.484375 164.570312 215.035156 L 164.433594 215.082031 C 164.664062 218.851562 164.757812 222.425781 164.757812 227.417969 L 164.757812 240.203125 Z M 160.933594 240.199219 " fill-opacity="1" fill-rule="nonzero"/><path fill="rgb(0%, 0%, 0%)" d="M 191.617188 210.277344 L 195.675781 210.277344 L 195.675781 236.957031 L 209.105469 236.957031 L 209.105469 240.199219 L 191.617188 240.199219 Z M 191.617188 210.277344 " fill-opacity="1" fill-rule="nonzero"/><path fill="rgb(0%, 0%, 0%)" d="M 216.707031 240.199219 L 216.707031 227.5 L 206.773438 210.277344 L 211.390625 210.277344 L 215.820312 218.535156 C 217.027344 220.796875 217.964844 222.621094 218.941406 224.707031 L 219.035156 224.707031 C 219.921875 222.746094 220.996094 220.789062 222.207031 218.535156 L 226.730469 210.277344 L 231.347656 210.277344 L 220.808594 227.457031 L 220.808594 240.183594 Z M 216.707031 240.199219 " fill-opacity="1" fill-rule="nonzero"/></svg>