<svg xmlns="http://www.w3.org/2000/svg" xmlns:xlink="http://www.w3.org/1999/xlink" width="375" viewBox="0 0 375 375" height="375" version="1.0"><defs><clipPath id="a"><path d="M 7 7 L 368 7 L 368 368 L 7 368 Z M 7 7"/></clipPath><clipPath id="b"><path d="M 59.882812 7.527344 L 315.117188 7.527344 C 316.832031 7.527344 318.542969 7.609375 320.25 7.777344 C 321.957031 7.945312 323.648438 8.199219 325.332031 8.53125 C 327.015625 8.867188 328.675781 9.28125 330.316406 9.78125 C 331.957031 10.277344 333.570312 10.855469 335.152344 11.511719 C 336.738281 12.167969 338.285156 12.898438 339.796875 13.707031 C 341.308594 14.515625 342.78125 15.398438 344.207031 16.351562 C 345.632812 17.300781 347.007812 18.324219 348.332031 19.410156 C 349.65625 20.5 350.925781 21.648438 352.140625 22.859375 C 353.351562 24.074219 354.5 25.34375 355.589844 26.667969 C 356.675781 27.992188 357.699219 29.367188 358.648438 30.792969 C 359.601562 32.21875 360.484375 33.691406 361.292969 35.203125 C 362.101562 36.714844 362.832031 38.261719 363.488281 39.847656 C 364.144531 41.429688 364.722656 43.042969 365.21875 44.683594 C 365.71875 46.324219 366.132812 47.984375 366.46875 49.667969 C 366.800781 51.351562 367.054688 53.042969 367.222656 54.75 C 367.390625 56.457031 367.472656 58.167969 367.472656 59.882812 L 367.472656 315.117188 C 367.472656 316.832031 367.390625 318.542969 367.222656 320.25 C 367.054688 321.957031 366.800781 323.648438 366.46875 325.332031 C 366.132812 327.015625 365.71875 328.675781 365.21875 330.316406 C 364.722656 331.957031 364.144531 333.570312 363.488281 335.152344 C 362.832031 336.738281 362.101562 338.285156 361.292969 339.796875 C 360.484375 341.308594 359.601562 342.78125 358.648438 344.207031 C 357.699219 345.632812 356.675781 347.007812 355.589844 348.332031 C 354.5 349.65625 353.351562 350.925781 352.140625 352.140625 C 350.925781 353.351562 349.65625 354.5 348.332031 355.589844 C 347.007812 356.675781 345.632812 357.699219 344.207031 358.648438 C 342.78125 359.601562 341.308594 360.484375 339.796875 361.292969 C 338.285156 362.101562 336.738281 362.832031 335.152344 363.488281 C 333.570312 364.144531 331.957031 364.722656 330.316406 365.21875 C 328.675781 365.71875 327.015625 366.132812 325.332031 366.46875 C 323.648438 366.800781 321.957031 367.054688 320.25 367.222656 C 318.542969 367.390625 316.832031 367.472656 315.117188 367.472656 L 59.882812 367.472656 C 58.167969 367.472656 56.457031 367.390625 54.75 367.222656 C 53.042969 367.054688 51.351562 366.800781 49.667969 366.46875 C 47.984375 366.132812 46.324219 365.71875 44.683594 365.21875 C 43.042969 364.722656 41.429688 364.144531 39.847656 363.488281 C 38.261719 362.832031 36.714844 362.101562 35.203125 361.292969 C 33.691406 360.484375 32.21875 359.601562 30.792969 358.648438 C 29.367188 357.699219 27.992188 356.675781 26.667969 355.589844 C 25.34375 354.5 24.074219 353.351562 22.859375 352.140625 C 21.648438 350.925781 20.5 349.65625 19.410156 348.332031 C 18.324219 347.007812 17.300781 345.632812 16.351562 344.207031 C 15.398438 342.78125 14.515625 341.308594 13.707031 339.796875 C 12.898438 338.285156 12.167969 336.738281 11.511719 335.152344 C 10.855469 333.570312 10.277344 331.957031 9.78125 330.316406 C 9.28125 328.675781 8.867188 327.015625 8.53125 325.332031 C 8.199219 323.648438 7.945312 321.957031 7.777344 320.25 C 7.609375 318.542969 7.527344 316.832031 7.527344 315.117188 L 7.527344 59.882812 C 7.527344 58.167969 7.609375 56.457031 7.777344 54.75 C 7.945312 53.042969 8.199219 51.351562 8.53125 49.667969 C 8.867188 47.984375 9.28125 46.324219 9.78125 44.683594 C 10.277344 43.042969 10.855469 41.429688 11.511719 39.847656 C 12.167969 38.261719 12.898438 36.714844 13.707031 35.203125 C 14.515625 33.691406 15.398438 32.21875 16.351562 30.792969 C 17.300781 29.367188 18.324219 27.992188 19.410156 26.667969 C 20.5 25.34375 21.648438 24.074219 22.859375 22.859375 C 24.074219 21.648438 25.34375 20.5 26.667969 19.410156 C 27.992188 18.324219 29.367188 17.300781 30.792969 16.351562 C 32.21875 15.398438 33.691406 14.515625 35.203125 13.707031 C 36.714844 12.898438 38.261719 12.167969 39.847656 11.511719 C 41.429688 10.855469 43.042969 10.277344 44.683594 9.78125 C 46.324219 9.28125 47.984375 8.867188 49.667969 8.53125 C 51.351562 8.199219 53.042969 7.945312 54.75 7.777344 C 56.457031 7.609375 58.167969 7.527344 59.882812 7.527344 Z M 59.882812 7.527344"/></clipPath><clipPath id="d"><path d="M 30 30 L 345 30 L 345 345 L 30 345 Z M 30 30"/></clipPath><clipPath id="e"><path d="M 63.15625 30.433594 L 311.84375 30.433594 C 312.917969 30.433594 313.988281 30.484375 315.054688 30.589844 C 316.121094 30.695312 317.179688 30.851562 318.230469 31.0625 C 319.28125 31.269531 320.320312 31.53125 321.34375 31.839844 C 322.371094 32.152344 323.378906 32.511719 324.367188 32.921875 C 325.359375 33.332031 326.324219 33.789062 327.269531 34.296875 C 328.214844 34.800781 329.132812 35.351562 330.023438 35.945312 C 330.917969 36.542969 331.777344 37.179688 332.605469 37.859375 C 333.433594 38.539062 334.226562 39.257812 334.984375 40.015625 C 335.742188 40.773438 336.460938 41.566406 337.140625 42.394531 C 337.820312 43.222656 338.457031 44.082031 339.054688 44.976562 C 339.648438 45.867188 340.199219 46.785156 340.703125 47.730469 C 341.210938 48.675781 341.667969 49.640625 342.078125 50.632812 C 342.488281 51.621094 342.847656 52.628906 343.160156 53.65625 C 343.46875 54.679688 343.730469 55.71875 343.9375 56.769531 C 344.148438 57.820312 344.304688 58.878906 344.410156 59.945312 C 344.515625 61.011719 344.566406 62.082031 344.566406 63.15625 L 344.566406 311.84375 C 344.566406 312.917969 344.515625 313.988281 344.410156 315.054688 C 344.304688 316.121094 344.148438 317.179688 343.9375 318.230469 C 343.730469 319.28125 343.46875 320.320312 343.160156 321.34375 C 342.847656 322.371094 342.488281 323.378906 342.078125 324.367188 C 341.667969 325.359375 341.210938 326.324219 340.703125 327.269531 C 340.199219 328.214844 339.648438 329.132812 339.054688 330.023438 C 338.457031 330.917969 337.820312 331.777344 337.140625 332.605469 C 336.460938 333.433594 335.742188 334.226562 334.984375 334.984375 C 334.226562 335.742188 333.433594 336.460938 332.605469 337.140625 C 331.777344 337.820312 330.917969 338.457031 330.023438 339.054688 C 329.132812 339.648438 328.214844 340.199219 327.269531 340.703125 C 326.324219 341.210938 325.359375 341.667969 324.367188 342.078125 C 323.378906 342.488281 322.371094 342.847656 321.34375 343.160156 C 320.320312 343.46875 319.28125 343.730469 318.230469 343.9375 C 317.179688 344.148438 316.121094 344.304688 315.054688 344.410156 C 313.988281 344.515625 312.917969 344.566406 311.84375 344.566406 L 63.15625 344.566406 C 62.082031 344.566406 61.011719 344.515625 59.945312 344.410156 C 58.878906 344.304688 57.820312 344.148438 56.769531 343.9375 C 55.71875 343.730469 54.679688 343.46875 53.65625 343.160156 C 52.628906 342.847656 51.621094 342.488281 50.632812 342.078125 C 49.640625 341.667969 48.675781 341.210938 47.730469 340.703125 C 46.785156 340.199219 45.867188 339.648438 44.976562 339.054688 C 44.082031 338.457031 43.222656 337.820312 42.394531 337.140625 C 41.566406 336.460938 40.773438 335.742188 40.015625 334.984375 C 39.257812 334.226562 38.539062 333.433594 37.859375 332.605469 C 37.179688 331.777344 36.542969 330.917969 35.945312 330.023438 C 35.351562 329.132812 34.800781 328.214844 34.296875 327.269531 C 33.789062 326.324219 33.332031 325.359375 32.921875 324.367188 C 32.511719 323.378906 32.152344 322.371094 31.839844 321.34375 C 31.53125 320.320312 31.269531 319.28125 31.0625 318.230469 C 30.851562 317.179688 30.695312 316.121094 30.589844 315.054688 C 30.484375 313.988281 30.433594 312.917969 30.433594 311.84375 L 30.433594 63.15625 C 30.433594 62.082031 30.484375 61.011719 30.589844 59.945312 C 30.695312 58.878906 30.851562 57.820312 31.0625 56.769531 C 31.269531 55.71875 31.53125 54.679688 31.839844 53.65625 C 32.152344 52.628906 32.511719 51.621094 32.921875 50.632812 C 33.332031 49.640625 33.789062 48.675781 34.296875 47.730469 C 34.800781 46.785156 35.351562 45.867188 35.945312 44.976562 C 36.542969 44.082031 37.179688 43.222656 37.859375 42.394531 C 38.539062 41.566406 39.257812 40.773438 40.015625 40.015625 C 40.773438 39.257812 41.566406 38.539062 42.394531 37.859375 C 43.222656 37.179688 44.082031 36.542969 44.976562 35.945312 C 45.867188 35.351562 46.785156 34.800781 47.730469 34.296875 C 48.675781 33.789062 49.640625 33.332031 50.632812 32.921875 C 51.621094 32.511719 52.628906 32.152344 53.65625 31.839844 C 54.679688 31.53125 55.71875 31.269531 56.769531 31.0625 C 57.820312 30.851562 58.878906 30.695312 59.945312 30.589844 C 61.011719 30.484375 62.082031 30.433594 63.15625 30.433594 Z M 63.15625 30.433594"/></clipPath><linearGradient x1="286.5" gradientTransform="scale(.65445)" y1="11.5" x2="286.5" gradientUnits="userSpaceOnUse" y2="561.5" xlink:type="simple" xlink:actuate="onLoad" id="c" xlink:show="other"><stop stop-color="#A7A9AC" offset="0"/><stop stop-color="#A8AAAD" offset=".004"/><stop stop-color="#A9ABAE" offset=".008"/><stop stop-color="#A9ABAE" offset=".012"/><stop stop-color="#AAACAF" offset=".016"/><stop stop-color="#ABADB0" offset=".02"/><stop stop-color="#ACAEB1" offset=".023"/><stop stop-color="#ACAEB1" offset=".027"/><stop stop-color="#ADAFB2" offset=".031"/><stop stop-color="#AEB0B3" offset=".035"/><stop stop-color="#AFB1B4" offset=".039"/><stop stop-color="#AFB1B4" offset=".043"/><stop stop-color="#B0B2B5" offset=".047"/><stop stop-color="#B1B3B6" offset=".051"/><stop stop-color="#B2B3B6" offset=".055"/><stop stop-color="#B2B4B7" offset=".059"/><stop stop-color="#B3B5B8" offset=".063"/><stop stop-color="#B4B6B8" offset=".066"/><stop stop-color="#B4B6B9" offset=".07"/><stop stop-color="#B5B7BA" offset=".074"/><stop stop-color="#B6B8BA" offset=".078"/><stop stop-color="#B7B8BB" offset=".082"/><stop stop-color="#B7B9BC" offset=".086"/><stop stop-color="#B8BABC" offset=".09"/><stop stop-color="#B9BBBD" offset=".094"/><stop stop-color="#BABBBE" offset=".098"/><stop stop-color="#BABCBF" offset=".102"/><stop stop-color="#BBBDBF" offset=".105"/><stop stop-color="#BCBDC0" offset=".109"/><stop stop-color="#BDBEC1" offset=".113"/><stop stop-color="#BDBFC1" offset=".117"/><stop stop-color="#BEBFC2" offset=".121"/><stop stop-color="#BFC0C3" offset=".125"/><stop stop-color="#BFC1C3" offset=".129"/><stop stop-color="#C0C2C4" offset=".133"/><stop stop-color="#C1C2C5" offset=".137"/><stop stop-color="#C2C3C5" offset=".141"/><stop stop-color="#C2C4C6" offset=".145"/><stop stop-color="#C3C4C7" offset=".148"/><stop stop-color="#C4C5C7" offset=".152"/><stop stop-color="#C5C6C8" offset=".156"/><stop stop-color="#C5C7C9" offset=".16"/><stop stop-color="#C6C7C9" offset=".164"/><stop stop-color="#C7C8CA" offset=".168"/><stop stop-color="#C8C9CB" offset=".172"/><stop stop-color="#C8C9CC" offset=".176"/><stop stop-color="#C9CACC" offset=".18"/><stop stop-color="#CACBCD" offset=".184"/><stop stop-color="#CBCCCE" offset=".188"/><stop stop-color="#CBCCCE" offset=".191"/><stop stop-color="#CCCDCF" offset=".195"/><stop stop-color="#CCCDCF" offset=".199"/><stop stop-color="#CDCED0" offset=".203"/><stop stop-color="#CDCED0" offset=".207"/><stop stop-color="#CECFD1" offset=".211"/><stop stop-color="#CECFD1" offset=".215"/><stop stop-color="#CFD0D2" offset=".219"/><stop stop-color="#CFD0D2" offset=".223"/><stop stop-color="#D0D1D3" offset=".227"/><stop stop-color="#D0D1D3" offset=".23"/><stop stop-color="#D1D2D4" offset=".234"/><stop stop-color="#D1D3D4" offset=".238"/><stop stop-color="#D2D3D5" offset=".242"/><stop stop-color="#D3D4D5" offset=".246"/><stop stop-color="#D3D4D6" offset=".25"/><stop stop-color="#D4D5D6" offset=".254"/><stop stop-color="#D4D5D7" offset=".258"/><stop stop-color="#D5D6D7" offset=".262"/><stop stop-color="#D5D6D8" offset=".266"/><stop stop-color="#D6D7D8" offset=".27"/><stop stop-color="#D6D7D9" offset=".273"/><stop stop-color="#D7D8D9" offset=".277"/><stop stop-color="#D7D8DA" offset=".281"/><stop stop-color="#D8D9DA" offset=".285"/><stop stop-color="#D8D9DB" offset=".289"/><stop stop-color="#D9DADB" offset=".293"/><stop stop-color="#D9DADC" offset=".297"/><stop stop-color="#DADBDC" offset=".301"/><stop stop-color="#DADBDD" offset=".305"/><stop stop-color="#DBDCDD" offset=".309"/><stop stop-color="#DCDDDE" offset=".313"/><stop stop-color="#DCDDDE" offset=".316"/><stop stop-color="#DDDEDF" offset=".32"/><stop stop-color="#DDDEDF" offset=".324"/><stop stop-color="#DEDFE0" offset=".328"/><stop stop-color="#DEDFE0" offset=".332"/><stop stop-color="#DFE0E1" offset=".336"/><stop stop-color="#DFE0E1" offset=".34"/><stop stop-color="#E0E1E2" offset=".344"/><stop stop-color="#E0E1E2" offset=".348"/><stop stop-color="#E1E2E3" offset=".352"/><stop stop-color="#E1E2E3" offset=".355"/><stop stop-color="#E2E3E4" offset=".359"/><stop stop-color="#E2E3E4" offset=".367"/><stop stop-color="#E3E4E5" offset=".375"/><stop stop-color="#E4E5E6" offset=".383"/><stop stop-color="#E4E5E6" offset=".391"/><stop stop-color="#E5E6E7" offset=".398"/><stop stop-color="#E6E7E8" offset=".406"/><stop stop-color="#E6E7E8" offset=".414"/><stop stop-color="#E7E8E9" offset=".422"/><stop stop-color="#E8E9E9" offset=".43"/><stop stop-color="#E8EAEA" offset=".438"/><stop stop-color="#E9EAEB" offset=".445"/><stop stop-color="#EAEBEB" offset=".453"/><stop stop-color="#EBECEC" offset=".461"/><stop stop-color="#EBECED" offset=".469"/><stop stop-color="#ECEDED" offset=".477"/><stop stop-color="#EDEEEE" offset=".484"/><stop stop-color="#EDEEEF" offset=".492"/><stop stop-color="#EEEFEF" offset=".5"/><stop stop-color="#EFF0F0" offset=".508"/><stop stop-color="#EFF0F1" offset=".516"/><stop stop-color="#F0F1F1" offset=".523"/><stop stop-color="#F1F2F2" offset=".531"/><stop stop-color="#F2F3F3" offset=".539"/><stop stop-color="#F2F3F3" offset=".547"/><stop stop-color="#F3F4F4" offset=".563"/><stop stop-color="#F3F4F4" offset=".578"/><stop stop-color="#F4F5F5" offset=".594"/><stop stop-color="#F5F6F6" offset=".609"/><stop stop-color="#F6F6F6" offset=".625"/><stop stop-color="#F7F7F7" offset=".641"/><stop stop-color="#F7F8F8" offset=".656"/><stop stop-color="#F8F9F9" offset=".672"/><stop stop-color="#F9F9F9" offset=".688"/><stop stop-color="#FAFAFA" offset=".703"/><stop stop-color="#FAFBFB" offset=".719"/><stop stop-color="#FBFBFB" offset=".734"/><stop stop-color="#FCFCFC" offset=".75"/><stop stop-color="#FCFCFC" offset=".813"/><stop stop-color="#FDFDFD" offset=".875"/><stop stop-color="#FEFEFE" offset=".938"/><stop stop-color="#FFF" offset="1"/></linearGradient><linearGradient x1="286.5" gradientTransform="scale(.65445)" y1="46.5" x2="286.5" gradientUnits="userSpaceOnUse" y2="526.5" xlink:type="simple" xlink:actuate="onLoad" id="f" xlink:show="other"><stop stop-color="#FFF" offset="0"/><stop stop-color="#FFF" offset=".063"/><stop stop-color="#FEFEFE" offset=".125"/><stop stop-color="#FDFDFD" offset=".188"/><stop stop-color="#FDFDFD" offset=".25"/><stop stop-color="#FCFCFC" offset=".313"/><stop stop-color="#FBFBFB" offset=".328"/><stop stop-color="#FBFBFB" offset=".344"/><stop stop-color="#FAFAFA" offset=".359"/><stop stop-color="#FAFAFA" offset=".375"/><stop stop-color="#F9F9F9" offset=".391"/><stop stop-color="#F8F8F8" offset=".406"/><stop stop-color="#F8F8F8" offset=".422"/><stop stop-color="#F7F7F7" offset=".438"/><stop stop-color="#F6F6F6" offset=".453"/><stop stop-color="#F6F6F6" offset=".469"/><stop stop-color="#F5F5F5" offset=".484"/><stop stop-color="#F4F4F4" offset=".5"/><stop stop-color="#F4F4F4" offset=".516"/><stop stop-color="#F3F3F3" offset=".523"/><stop stop-color="#F2F2F2" offset=".531"/><stop stop-color="#F2F2F2" offset=".539"/><stop stop-color="#F1F1F1" offset=".547"/><stop stop-color="#F0F0F0" offset=".555"/><stop stop-color="#F0F0F0" offset=".563"/><stop stop-color="#EFEFEF" offset=".57"/><stop stop-color="#EEE" offset=".578"/><stop stop-color="#EEE" offset=".586"/><stop stop-color="#EDEDED" offset=".594"/><stop stop-color="#ECECEC" offset=".602"/><stop stop-color="#EBEBEB" offset=".609"/><stop stop-color="#EBEBEB" offset=".617"/><stop stop-color="#EAEAEA" offset=".625"/><stop stop-color="#E9E9E9" offset=".633"/><stop stop-color="#E9E9E9" offset=".641"/><stop stop-color="#E8E8E8" offset=".648"/><stop stop-color="#E7E7E7" offset=".656"/><stop stop-color="#E7E7E7" offset=".664"/><stop stop-color="#E6E6E6" offset=".672"/><stop stop-color="#E5E5E5" offset=".68"/><stop stop-color="#E5E5E5" offset=".688"/><stop stop-color="#E4E4E4" offset=".695"/><stop stop-color="#E3E3E3" offset=".699"/><stop stop-color="#E2E2E2" offset=".703"/><stop stop-color="#E2E2E2" offset=".707"/><stop stop-color="#E1E1E1" offset=".711"/><stop stop-color="#E1E1E1" offset=".715"/><stop stop-color="#E0E0E0" offset=".719"/><stop stop-color="#E0E0E0" offset=".723"/><stop stop-color="#DFDFDF" offset=".727"/><stop stop-color="#DFDFDF" offset=".73"/><stop stop-color="#DEDEDE" offset=".734"/><stop stop-color="#DEDEDE" offset=".738"/><stop stop-color="#DDD" offset=".742"/><stop stop-color="#DDD" offset=".746"/><stop stop-color="#DCDCDC" offset=".75"/><stop stop-color="#DCDCDC" offset=".754"/><stop stop-color="#DBDBDB" offset=".758"/><stop stop-color="#DBDBDB" offset=".762"/><stop stop-color="#DADADA" offset=".766"/><stop stop-color="#DADADA" offset=".77"/><stop stop-color="#D9D9D9" offset=".773"/><stop stop-color="#D9D9D9" offset=".777"/><stop stop-color="#D8D8D8" offset=".781"/><stop stop-color="#D8D8D8" offset=".785"/><stop stop-color="#D7D7D7" offset=".789"/><stop stop-color="#D7D7D7" offset=".793"/><stop stop-color="#D6D6D6" offset=".797"/><stop stop-color="#D5D5D5" offset=".801"/><stop stop-color="#D5D5D5" offset=".805"/><stop stop-color="#D4D4D4" offset=".809"/><stop stop-color="#D4D4D4" offset=".813"/><stop stop-color="#D3D3D3" offset=".816"/><stop stop-color="#D3D3D3" offset=".82"/><stop stop-color="#D2D2D2" offset=".824"/><stop stop-color="#D2D2D2" offset=".828"/><stop stop-color="#D1D1D1" offset=".832"/><stop stop-color="#D1D1D1" offset=".836"/><stop stop-color="#D0D0D0" offset=".84"/><stop stop-color="#D0D0D0" offset=".844"/><stop stop-color="#CFCFCF" offset=".848"/><stop stop-color="#CFCFCF" offset=".852"/><stop stop-color="#CECECE" offset=".855"/><stop stop-color="#CDCDCD" offset=".859"/><stop stop-color="#CCC" offset=".863"/><stop stop-color="#CCC" offset=".867"/><stop stop-color="#CBCBCB" offset=".871"/><stop stop-color="#CACACA" offset=".875"/><stop stop-color="#C9C9C9" offset=".879"/><stop stop-color="#C9C9C9" offset=".883"/><stop stop-color="#C8C8C8" offset=".887"/><stop stop-color="#C7C7C7" offset=".891"/><stop stop-color="#C6C6C6" offset=".895"/><stop stop-color="#C6C6C6" offset=".898"/><stop stop-color="#C5C5C5" offset=".902"/><stop stop-color="#C4C4C4" offset=".906"/><stop stop-color="#C3C3C3" offset=".91"/><stop stop-color="#C3C3C3" offset=".914"/><stop stop-color="#C2C2C2" offset=".918"/><stop stop-color="#C1C1C1" offset=".922"/><stop stop-color="#C0C0C0" offset=".926"/><stop stop-color="#C0C0C0" offset=".93"/><stop stop-color="#BFBFBF" offset=".934"/><stop stop-color="#BEBEBE" offset=".938"/><stop stop-color="#BDBDBD" offset=".941"/><stop stop-color="#BDBDBD" offset=".945"/><stop stop-color="#BCBCBC" offset=".949"/><stop stop-color="#BBB" offset=".953"/><stop stop-color="#BABABA" offset=".957"/><stop stop-color="#BABABA" offset=".961"/><stop stop-color="#B9B9B9" offset=".965"/><stop stop-color="#B8B8B8" offset=".969"/><stop stop-color="#B7B7B7" offset=".973"/><stop stop-color="#B7B7B7" offset=".977"/><stop stop-color="#B6B6B6" offset=".98"/><stop stop-color="#B5B5B5" offset=".984"/><stop stop-color="#B4B4B4" offset=".988"/><stop stop-color="#B4B4B4" offset=".992"/><stop stop-color="#B3B3B3" offset="1"/></linearGradient></defs><g clip-path="url(#a)"><g clip-path="url(#b)"><path fill="url(#c)" d="M 7.527344 7.527344 L 7.527344 367.472656 L 367.472656 367.472656 L 367.472656 7.527344 Z M 7.527344 7.527344"/></g></g><path transform="scale(.65445)" fill="none" d="M 91.50093 11.501781 L 481.49905 11.501781 C 484.119332 11.501781 486.733644 11.627125 489.341988 11.883781 C 491.950331 12.140437 494.5348 12.528406 497.107331 13.03575 C 499.679863 13.549062 502.216581 14.18175 504.723456 14.94575 C 507.230331 15.703781 509.695425 16.587156 512.112769 17.589906 C 514.536081 18.592656 516.899706 19.708812 519.209612 20.944344 C 521.519519 22.179875 523.769737 23.528812 525.948331 24.985187 C 528.126925 26.435593 530.227925 27.999406 532.251331 29.658718 C 534.274737 31.324 536.214581 33.078812 538.070862 34.929125 C 539.921175 36.785406 541.675987 38.72525 543.341268 40.748656 C 545.000581 42.772062 546.564393 44.873062 548.0148 47.051656 C 549.471175 49.230249 550.820112 51.480468 552.055643 53.790374 C 553.291174 56.100281 554.407331 58.463906 555.410081 60.887218 C 556.412831 63.304562 557.296206 65.769656 558.054237 68.27653 C 558.818237 70.783405 559.450924 73.320124 559.964237 75.892655 C 560.471581 78.465187 560.859549 81.049655 561.116206 83.657999 C 561.372862 86.266343 561.498206 88.880655 561.498206 91.500936 L 561.498206 481.499057 C 561.498206 484.119338 561.372862 486.733651 561.116206 489.341995 C 560.859549 491.950338 560.471581 494.534807 559.964237 497.107338 C 559.450924 499.679869 558.818237 502.216588 558.054237 504.723463 C 557.296206 507.230338 556.412831 509.695432 555.410081 512.112776 C 554.407331 514.536088 553.291174 516.899713 552.055643 519.209619 C 550.820112 521.519525 549.471175 523.769744 548.0148 525.948338 C 546.564393 528.126932 545.000581 530.227932 543.341268 532.251338 C 541.675987 534.274744 539.921175 536.214588 538.070862 538.070869 C 536.214581 539.921182 534.274737 541.675994 532.251331 543.341275 C 530.227925 545.000588 528.126925 546.5644 525.948331 548.014806 C 523.769737 549.471181 521.519519 550.820119 519.209612 552.05565 C 516.899706 553.291181 514.536081 554.407338 512.112769 555.410088 C 509.695425 556.412838 507.230331 557.296213 504.723456 558.054244 C 502.216581 558.818244 499.679863 559.450931 497.107331 559.964244 C 494.5348 560.471588 491.950331 560.859556 489.341988 561.116213 C 486.733644 561.372869 484.119332 561.498213 481.49905 561.498213 L 91.50093 561.498213 C 88.880648 561.498213 86.266336 561.372869 83.657992 561.116213 C 81.049648 560.859556 78.46518 560.471588 75.892649 559.964244 C 73.320117 559.450931 70.783399 558.818244 68.276524 558.054244 C 65.769649 557.296213 63.304555 556.412838 60.887211 555.410088 C 58.463899 554.407338 56.100274 553.291181 53.790368 552.05565 C 51.480461 550.820119 49.230243 549.471181 47.051649 548.014806 C 44.873055 546.5644 42.772055 545.000588 40.748649 543.341275 C 38.725243 541.675994 36.785399 539.921182 34.929118 538.070869 C 33.078805 536.214588 31.323993 534.274744 29.658712 532.251338 C 27.999399 530.227932 26.435587 528.126932 24.98518 525.948338 C 23.528805 523.769744 22.179868 521.519525 20.944337 519.209619 C 19.708805 516.899713 18.592649 514.536088 17.589899 512.112776 C 16.587149 509.695432 15.703774 507.230338 14.945743 504.723463 C 14.181743 502.216588 13.549055 499.679869 13.035743 497.107338 C 12.528399 494.534807 12.14043 491.950338 11.883774 489.341995 C 11.627118 486.733651 11.501774 484.119338 11.501774 481.499057 L 11.501774 91.500936 C 11.501774 88.880655 11.627118 86.266343 11.883774 83.657999 C 12.14043 81.049655 12.528399 78.465187 13.035743 75.892655 C 13.549055 73.320124 14.181743 70.783405 14.945743 68.27653 C 15.703774 65.769656 16.587149 63.304562 17.589899 60.887218 C 18.592649 58.463906 19.708805 56.100281 20.944337 53.790374 C 22.179868 51.480468 23.528805 49.230249 24.98518 47.051656 C 26.435587 44.873062 27.999399 42.772062 29.658712 40.748656 C 31.323993 38.72525 33.078805 36.785406 34.929118 34.929125 C 36.785399 33.078812 38.725243 31.324 40.748649 29.658718 C 42.772055 27.999406 44.873055 26.435593 47.051649 24.985187 C 49.230243 23.528812 51.480461 22.179875 53.790368 20.944344 C 56.100274 19.708812 58.463899 18.592656 60.887211 17.589906 C 63.304555 16.587156 65.769649 15.703781 68.276524 14.94575 C 70.783399 14.18175 73.320117 13.549062 75.892649 13.03575 C 78.46518 12.528406 81.049648 12.140437 83.657992 11.883781 C 86.266336 11.627125 88.880648 11.501781 91.50093 11.501781 Z M 91.50093 11.501781" stroke="#808080" stroke-width="23" stroke-miterlimit="10"/><g clip-path="url(#d)"><g clip-path="url(#e)"><path fill="url(#f)" d="M 30.433594 30.433594 L 30.433594 344.566406 L 344.566406 344.566406 L 344.566406 30.433594 Z M 30.433594 30.433594"/></g></g><path d="M 187.5 110.601562 C 188.96875 110.601562 190.433594 110.644531 191.902344 110.730469 C 193.367188 110.8125 194.828125 110.9375 196.285156 111.105469 C 197.746094 111.273438 199.199219 111.484375 200.644531 111.734375 C 202.089844 111.988281 203.527344 112.28125 204.957031 112.613281 C 206.386719 112.945312 207.804688 113.320312 209.214844 113.734375 C 210.621094 114.152344 212.019531 114.605469 213.398438 115.101562 C 214.78125 115.59375 216.148438 116.128906 217.5 116.703125 C 218.851562 117.273438 220.1875 117.886719 221.503906 118.535156 C 222.820312 119.183594 224.117188 119.871094 225.394531 120.597656 C 226.671875 121.320312 227.925781 122.078125 229.160156 122.875 C 230.394531 123.671875 231.605469 124.5 232.789062 125.367188 C 233.976562 126.230469 235.136719 127.128906 236.269531 128.0625 C 237.40625 128.992188 238.511719 129.957031 239.59375 130.949219 C 240.671875 131.945312 241.722656 132.96875 242.742188 134.023438 C 243.765625 135.082031 244.753906 136.164062 245.710938 137.273438 C 246.671875 138.386719 247.597656 139.523438 248.492188 140.691406 C 249.382812 141.855469 250.242188 143.042969 251.070312 144.257812 C 251.894531 145.472656 252.683594 146.710938 253.4375 147.96875 C 254.195312 149.226562 254.910156 150.507812 255.59375 151.808594 C 256.273438 153.109375 256.917969 154.425781 257.523438 155.765625 C 258.128906 157.101562 258.695312 158.457031 259.222656 159.824219 C 259.753906 161.195312 260.242188 162.578125 260.691406 163.976562 C 261.140625 165.375 261.546875 166.785156 261.914062 168.203125 C 262.285156 169.625 262.609375 171.054688 262.898438 172.496094 C 263.183594 173.9375 263.429688 175.382812 263.632812 176.835938 C 263.835938 178.289062 263.996094 179.75 264.117188 181.210938 C 264.234375 182.675781 264.3125 184.140625 264.351562 185.609375 C 264.386719 187.074219 264.378906 188.542969 264.332031 190.011719 C 264.285156 191.476562 264.191406 192.941406 264.0625 194.40625 C 263.929688 195.867188 263.753906 197.324219 263.539062 198.777344 C 263.324219 200.226562 263.066406 201.671875 262.769531 203.109375 C 262.46875 204.546875 262.132812 205.976562 261.75 207.394531 C 261.371094 208.8125 260.949219 210.21875 260.488281 211.613281 C 260.03125 213.003906 259.527344 214.386719 258.988281 215.75 C 258.449219 217.117188 257.871094 218.464844 257.253906 219.796875 C 256.636719 221.128906 255.984375 222.441406 255.292969 223.738281 C 254.597656 225.03125 253.871094 226.304688 253.105469 227.558594 C 252.339844 228.8125 251.539062 230.039062 250.703125 231.246094 C 249.867188 232.453125 249 233.636719 248.097656 234.792969 C 247.191406 235.953125 246.257812 237.082031 245.289062 238.1875 C 244.320312 239.289062 243.320312 240.363281 242.292969 241.410156 C 241.261719 242.457031 240.203125 243.472656 239.117188 244.460938 C 238.027344 245.445312 236.914062 246.398438 235.769531 247.320312 C 234.628906 248.242188 233.460938 249.132812 232.265625 249.984375 C 231.074219 250.839844 229.855469 251.660156 228.617188 252.445312 C 227.375 253.230469 226.113281 253.980469 224.832031 254.695312 C 223.546875 255.40625 222.246094 256.082031 220.921875 256.722656 C 219.601562 257.359375 218.261719 257.960938 216.90625 258.519531 C 215.550781 259.082031 214.179688 259.605469 212.792969 260.089844 C 211.40625 260.570312 210.007812 261.015625 208.59375 261.417969 C 207.183594 261.820312 205.761719 262.183594 204.328125 262.503906 C 202.894531 262.828125 201.457031 263.105469 200.007812 263.34375 C 198.558594 263.585938 197.105469 263.78125 195.644531 263.9375 C 194.183594 264.09375 192.722656 264.207031 191.257812 264.28125 C 189.789062 264.351562 188.324219 264.382812 186.855469 264.367188 C 185.386719 264.355469 183.921875 264.304688 182.457031 264.207031 C 180.992188 264.109375 179.527344 263.972656 178.074219 263.792969 C 176.617188 263.613281 175.164062 263.390625 173.71875 263.128906 C 172.277344 262.867188 170.839844 262.5625 169.414062 262.21875 C 167.988281 261.871094 166.570312 261.484375 165.164062 261.058594 C 163.761719 260.632812 162.371094 260.167969 160.992188 259.660156 C 159.613281 259.15625 158.25 258.609375 156.902344 258.027344 C 155.558594 257.441406 154.226562 256.820312 152.917969 256.160156 C 151.605469 255.5 150.3125 254.804688 149.042969 254.070312 C 147.769531 253.335938 146.523438 252.566406 145.292969 251.761719 C 144.066406 250.953125 142.863281 250.113281 141.683594 249.238281 C 140.507812 248.363281 139.351562 247.457031 138.226562 246.515625 C 137.097656 245.574219 136 244.605469 134.929688 243.601562 C 133.855469 242.597656 132.816406 241.5625 131.800781 240.5 C 130.789062 239.4375 129.808594 238.34375 128.859375 237.226562 C 127.910156 236.105469 126.992188 234.960938 126.109375 233.789062 C 125.226562 232.617188 124.375 231.421875 123.558594 230.199219 C 122.742188 228.980469 121.964844 227.734375 121.21875 226.472656 C 120.476562 225.207031 119.769531 223.917969 119.097656 222.613281 C 118.425781 221.308594 117.792969 219.984375 117.199219 218.640625 C 116.605469 217.300781 116.046875 215.941406 115.53125 214.566406 C 115.011719 213.195312 114.535156 211.804688 114.097656 210.40625 C 113.660156 209.003906 113.265625 207.589844 112.90625 206.167969 C 112.550781 204.742188 112.234375 203.308594 111.960938 201.867188 C 111.6875 200.425781 111.453125 198.976562 111.261719 197.519531 C 111.070312 196.066406 110.917969 194.605469 110.8125 193.140625 C 110.703125 191.675781 110.636719 190.210938 110.613281 188.742188 C 110.589844 187.277344 110.609375 185.808594 110.667969 184.34375 C 110.726562 182.875 110.828125 181.410156 110.972656 179.949219 C 111.117188 178.488281 111.304688 177.035156 111.53125 175.582031 C 111.757812 174.132812 112.027344 172.691406 112.335938 171.253906 C 112.644531 169.820312 112.996094 168.394531 113.386719 166.980469 C 113.78125 165.566406 114.210938 164.164062 114.683594 162.773438 C 115.15625 161.382812 115.667969 160.007812 116.21875 158.644531 C 116.769531 157.285156 117.355469 155.941406 117.984375 154.613281 C 118.613281 153.289062 119.277344 151.980469 119.980469 150.691406 C 120.683594 149.402344 121.421875 148.132812 122.195312 146.886719 C 122.972656 145.640625 123.78125 144.417969 124.628906 143.214844 C 125.472656 142.015625 126.351562 140.839844 127.265625 139.691406 C 128.175781 138.542969 129.121094 137.417969 130.097656 136.324219 C 131.078125 135.226562 132.082031 134.160156 133.121094 133.121094 C 134.898438 131.335938 136.757812 129.640625 138.703125 128.039062 C 140.648438 126.4375 142.667969 124.933594 144.761719 123.53125 C 146.851562 122.128906 149.011719 120.835938 151.230469 119.644531 C 153.453125 118.457031 155.726562 117.378906 158.054688 116.414062 C 160.382812 115.453125 162.753906 114.605469 165.164062 113.875 C 167.574219 113.144531 170.019531 112.535156 172.488281 112.050781 C 174.960938 111.5625 177.449219 111.195312 179.957031 110.953125 C 182.46875 110.710938 184.980469 110.59375 187.5 110.601562 M 187.5 97.511719 C 186.027344 97.511719 184.554688 97.550781 183.085938 97.621094 C 181.613281 97.695312 180.144531 97.800781 178.679688 97.945312 C 177.214844 98.089844 175.753906 98.269531 174.296875 98.488281 C 172.839844 98.703125 171.390625 98.953125 169.945312 99.242188 C 168.5 99.53125 167.0625 99.851562 165.636719 100.210938 C 164.207031 100.566406 162.789062 100.960938 161.378906 101.386719 C 159.96875 101.816406 158.570312 102.277344 157.183594 102.773438 C 155.796875 103.269531 154.425781 103.800781 153.0625 104.363281 C 151.703125 104.925781 150.355469 105.523438 149.027344 106.152344 C 147.695312 106.78125 146.378906 107.445312 145.082031 108.136719 C 143.78125 108.832031 142.5 109.558594 141.238281 110.316406 C 139.972656 111.074219 138.730469 111.859375 137.507812 112.679688 C 136.28125 113.496094 135.078125 114.34375 133.894531 115.222656 C 132.710938 116.097656 131.550781 117.003906 130.414062 117.9375 C 129.273438 118.875 128.160156 119.835938 127.070312 120.824219 C 125.976562 121.8125 124.910156 122.828125 123.871094 123.871094 C 122.828125 124.910156 121.8125 125.976562 120.824219 127.070312 C 119.835938 128.160156 118.875 129.273438 117.9375 130.414062 C 117.003906 131.550781 116.097656 132.710938 115.222656 133.894531 C 114.34375 135.078125 113.496094 136.28125 112.679688 137.507812 C 111.859375 138.730469 111.074219 139.972656 110.316406 141.238281 C 109.558594 142.5 108.832031 143.78125 108.136719 145.082031 C 107.445312 146.378906 106.78125 147.695312 106.152344 149.027344 C 105.523438 150.355469 104.925781 151.703125 104.363281 153.0625 C 103.800781 154.425781 103.269531 155.796875 102.773438 157.183594 C 102.277344 158.570312 101.816406 159.96875 101.386719 161.378906 C 100.960938 162.789062 100.566406 164.207031 100.210938 165.636719 C 99.851562 167.0625 99.53125 168.5 99.242188 169.945312 C 98.953125 171.390625 98.703125 172.839844 98.488281 174.296875 C 98.269531 175.753906 98.089844 177.214844 97.945312 178.679688 C 97.800781 180.144531 97.695312 181.613281 97.621094 183.085938 C 97.550781 184.554688 97.511719 186.027344 97.511719 187.5 C 97.511719 188.972656 97.550781 190.445312 97.621094 191.914062 C 97.695312 193.386719 97.800781 194.855469 97.945312 196.320312 C 98.089844 197.785156 98.269531 199.246094 98.488281 200.703125 C 98.703125 202.160156 98.953125 203.609375 99.242188 205.054688 C 99.53125 206.5 99.851562 207.9375 100.210938 209.363281 C 100.566406 210.792969 100.960938 212.210938 101.386719 213.621094 C 101.816406 215.03125 102.277344 216.429688 102.773438 217.816406 C 103.269531 219.203125 103.800781 220.574219 104.363281 221.9375 C 104.925781 223.296875 105.523438 224.644531 106.152344 225.972656 C 106.78125 227.304688 107.445312 228.621094 108.136719 229.917969 C 108.832031 231.21875 109.558594 232.5 110.316406 233.761719 C 111.074219 235.027344 111.859375 236.269531 112.679688 237.492188 C 113.496094 238.71875 114.34375 239.921875 115.222656 241.105469 C 116.097656 242.289062 117.003906 243.449219 117.9375 244.585938 C 118.875 245.726562 119.835938 246.839844 120.824219 247.929688 C 121.8125 249.023438 122.828125 250.089844 123.871094 251.128906 C 124.910156 252.171875 125.976562 253.1875 127.070312 254.175781 C 128.160156 255.164062 129.273438 256.125 130.414062 257.0625 C 131.550781 257.996094 132.710938 258.902344 133.894531 259.777344 C 135.078125 260.65625 136.28125 261.503906 137.507812 262.320312 C 138.730469 263.140625 139.972656 263.925781 141.238281 264.683594 C 142.5 265.441406 143.78125 266.167969 145.082031 266.863281 C 146.378906 267.554688 147.695312 268.21875 149.027344 268.847656 C 150.355469 269.476562 151.703125 270.074219 153.0625 270.636719 C 154.425781 271.199219 155.796875 271.730469 157.183594 272.226562 C 158.570312 272.722656 159.96875 273.183594 161.378906 273.613281 C 162.789062 274.039062 164.207031 274.433594 165.636719 274.789062 C 167.0625 275.148438 168.5 275.46875 169.945312 275.757812 C 171.390625 276.046875 172.839844 276.296875 174.296875 276.511719 C 175.753906 276.730469 177.214844 276.910156 178.679688 277.054688 C 180.144531 277.199219 181.613281 277.304688 183.085938 277.378906 C 184.554688 277.449219 186.027344 277.488281 187.5 277.488281 C 188.972656 277.488281 190.445312 277.449219 191.914062 277.378906 C 193.386719 277.304688 194.855469 277.199219 196.320312 277.054688 C 197.785156 276.910156 199.246094 276.730469 200.703125 276.511719 C 202.160156 276.296875 203.609375 276.046875 205.054688 275.757812 C 206.5 275.46875 207.9375 275.148438 209.363281 274.789062 C 210.792969 274.433594 212.210938 274.039062 213.621094 273.613281 C 215.03125 273.183594 216.429688 272.722656 217.816406 272.226562 C 219.203125 271.730469 220.574219 271.199219 221.9375 270.636719 C 223.296875 270.074219 224.644531 269.476562 225.972656 268.847656 C 227.304688 268.21875 228.621094 267.554688 229.917969 266.863281 C 231.21875 266.167969 232.5 265.441406 233.761719 264.683594 C 235.027344 263.925781 236.269531 263.140625 237.492188 262.320312 C 238.71875 261.503906 239.921875 260.65625 241.105469 259.777344 C 242.289062 258.902344 243.449219 257.996094 244.585938 257.0625 C 245.726562 256.125 246.839844 255.164062 247.929688 254.175781 C 249.023438 253.1875 250.089844 252.171875 251.128906 251.128906 C 252.171875 250.089844 253.1875 249.023438 254.175781 247.929688 C 255.164062 246.839844 256.125 245.726562 257.0625 244.585938 C 257.996094 243.449219 258.902344 242.289062 259.777344 241.105469 C 260.65625 239.921875 261.503906 238.71875 262.320312 237.492188 C 263.140625 236.269531 263.925781 235.027344 264.683594 233.761719 C 265.441406 232.5 266.167969 231.21875 266.863281 229.917969 C 267.554688 228.621094 268.21875 227.304688 268.847656 225.972656 C 269.476562 224.644531 270.074219 223.296875 270.636719 221.9375 C 271.199219 220.574219 271.730469 219.203125 272.226562 217.816406 C 272.722656 216.429688 273.183594 215.03125 273.613281 213.621094 C 274.039062 212.210938 274.433594 210.792969 274.789062 209.363281 C 275.148438 207.9375 275.46875 206.5 275.757812 205.054688 C 276.046875 203.609375 276.296875 202.160156 276.511719 200.703125 C 276.730469 199.246094 276.910156 197.785156 277.054688 196.320312 C 277.199219 194.855469 277.304688 193.386719 277.378906 191.914062 C 277.449219 190.445312 277.488281 188.972656 277.488281 187.5 C 277.488281 186.027344 277.449219 184.554688 277.378906 183.085938 C 277.304688 181.613281 277.199219 180.144531 277.054688 178.679688 C 276.910156 177.214844 276.730469 175.753906 276.511719 174.296875 C 276.296875 172.839844 276.046875 171.390625 275.757812 169.945312 C 275.46875 168.5 275.148438 167.0625 274.789062 165.636719 C 274.433594 164.207031 274.039062 162.789062 273.613281 161.378906 C 273.183594 159.96875 272.722656 158.570312 272.226562 157.183594 C 271.730469 155.796875 271.199219 154.425781 270.636719 153.0625 C 270.074219 151.703125 269.476562 150.355469 268.847656 149.027344 C 268.21875 147.695312 267.554688 146.378906 266.863281 145.082031 C 266.167969 143.78125 265.441406 142.5 264.683594 141.238281 C 263.925781 139.972656 263.140625 138.730469 262.320312 137.507812 C 261.503906 136.28125 260.65625 135.078125 259.777344 133.894531 C 258.902344 132.710938 257.996094 131.550781 257.0625 130.414062 C 256.125 129.273438 255.164062 128.160156 254.175781 127.070312 C 253.1875 125.976562 252.171875 124.910156 251.128906 123.871094 C 250.089844 122.828125 249.023438 121.8125 247.929688 120.824219 C 246.839844 119.835938 245.726562 118.875 244.585938 117.9375 C 243.449219 117.003906 242.289062 116.097656 241.105469 115.222656 C 239.921875 114.34375 238.71875 113.496094 237.492188 112.679688 C 236.269531 111.859375 235.027344 111.074219 233.761719 110.316406 C 232.5 109.558594 231.21875 108.832031 229.917969 108.136719 C 228.621094 107.445312 227.304688 106.78125 225.972656 106.152344 C 224.644531 105.523438 223.296875 104.925781 221.9375 104.363281 C 220.574219 103.800781 219.203125 103.269531 217.816406 102.773438 C 216.429688 102.277344 215.03125 101.816406 213.621094 101.386719 C 212.210938 100.960938 210.792969 100.566406 209.363281 100.210938 C 207.9375 99.851562 206.5 99.53125 205.054688 99.242188 C 203.609375 98.953125 202.160156 98.703125 200.703125 98.488281 C 199.246094 98.269531 197.785156 98.089844 196.320312 97.945312 C 194.855469 97.800781 193.386719 97.695312 191.914062 97.621094 C 190.445312 97.550781 188.972656 97.511719 187.5 97.511719 Z M 187.5 97.511719"/><path d="M 187.5 135.144531 C 189.214844 135.144531 190.925781 135.226562 192.632812 135.394531 C 194.339844 135.5625 196.03125 135.816406 197.714844 136.148438 C 199.394531 136.484375 201.058594 136.902344 202.699219 137.398438 C 204.339844 137.894531 205.953125 138.472656 207.535156 139.128906 C 209.121094 139.785156 210.667969 140.519531 212.179688 141.324219 C 213.691406 142.132812 215.160156 143.015625 216.585938 143.96875 C 218.011719 144.921875 219.390625 145.941406 220.714844 147.027344 C 222.039062 148.117188 223.308594 149.265625 224.519531 150.480469 C 225.734375 151.691406 226.882812 152.960938 227.972656 154.285156 C 229.058594 155.609375 230.078125 156.988281 231.03125 158.414062 C 231.984375 159.839844 232.867188 161.308594 233.675781 162.820312 C 234.480469 164.332031 235.214844 165.878906 235.871094 167.464844 C 236.527344 169.046875 237.105469 170.660156 237.601562 172.300781 C 238.097656 173.941406 238.515625 175.605469 238.851562 177.285156 C 239.183594 178.96875 239.4375 180.660156 239.605469 182.367188 C 239.773438 184.074219 239.855469 185.785156 239.855469 187.5 C 239.855469 189.214844 239.773438 190.925781 239.605469 192.632812 C 239.4375 194.339844 239.183594 196.03125 238.851562 197.714844 C 238.515625 199.394531 238.097656 201.058594 237.601562 202.699219 C 237.105469 204.339844 236.527344 205.953125 235.871094 207.535156 C 235.214844 209.121094 234.480469 210.667969 233.675781 212.179688 C 232.867188 213.691406 231.984375 215.160156 231.03125 216.585938 C 230.078125 218.011719 229.058594 219.390625 227.972656 220.714844 C 226.882812 222.039062 225.734375 223.308594 224.519531 224.519531 C 223.308594 225.734375 222.039062 226.882812 220.714844 227.972656 C 219.390625 229.058594 218.011719 230.078125 216.585938 231.03125 C 215.160156 231.984375 213.691406 232.867188 212.179688 233.675781 C 210.667969 234.480469 209.121094 235.214844 207.535156 235.871094 C 205.953125 236.527344 204.339844 237.105469 202.699219 237.601562 C 201.058594 238.097656 199.394531 238.515625 197.714844 238.851562 C 196.03125 239.183594 194.339844 239.4375 192.632812 239.605469 C 190.925781 239.773438 189.214844 239.855469 187.5 239.855469 C 185.785156 239.855469 184.074219 239.773438 182.367188 239.605469 C 180.660156 239.4375 178.96875 239.183594 177.285156 238.851562 C 175.605469 238.515625 173.941406 238.097656 172.300781 237.601562 C 170.660156 237.105469 169.046875 236.527344 167.464844 235.871094 C 165.878906 235.214844 164.332031 234.480469 162.820312 233.675781 C 161.308594 232.867188 159.839844 231.984375 158.414062 231.03125 C 156.988281 230.078125 155.609375 229.058594 154.285156 227.972656 C 152.960938 226.882812 151.691406 225.734375 150.480469 224.519531 C 149.265625 223.308594 148.117188 222.039062 147.027344 220.714844 C 145.941406 219.390625 144.921875 218.011719 143.96875 216.585938 C 143.015625 215.160156 142.132812 213.691406 141.324219 212.179688 C 140.519531 210.667969 139.785156 209.121094 139.128906 207.535156 C 138.472656 205.953125 137.894531 204.339844 137.398438 202.699219 C 136.902344 201.058594 136.484375 199.394531 136.148438 197.714844 C 135.816406 196.03125 135.5625 194.339844 135.394531 192.632812 C 135.226562 190.925781 135.144531 189.214844 135.144531 187.5 C 135.144531 185.785156 135.230469 184.074219 135.402344 182.371094 C 135.570312 180.664062 135.824219 178.972656 136.160156 177.289062 C 136.496094 175.609375 136.914062 173.949219 137.410156 172.308594 C 137.910156 170.667969 138.488281 169.058594 139.144531 167.472656 C 139.800781 165.890625 140.535156 164.34375 141.34375 162.832031 C 142.152344 161.320312 143.03125 159.851562 143.984375 158.425781 C 144.9375 157 145.957031 155.625 147.046875 154.300781 C 148.132812 152.976562 149.285156 151.707031 150.496094 150.496094 C 151.707031 149.285156 152.976562 148.132812 154.300781 147.046875 C 155.625 145.957031 157 144.9375 158.425781 143.984375 C 159.851562 143.03125 161.320312 142.152344 162.832031 141.34375 C 164.34375 140.535156 165.890625 139.800781 167.472656 139.144531 C 169.058594 138.488281 170.667969 137.910156 172.308594 137.410156 C 173.949219 136.914062 175.609375 136.496094 177.289062 136.160156 C 178.972656 135.824219 180.664062 135.570312 182.371094 135.402344 C 184.074219 135.230469 185.785156 135.144531 187.5 135.144531 M 187.5 122.054688 C 186.429688 122.054688 185.359375 122.082031 184.289062 122.132812 C 183.21875 122.1875 182.152344 122.265625 181.085938 122.371094 C 180.019531 122.476562 178.957031 122.605469 177.898438 122.761719 C 176.835938 122.921875 175.78125 123.105469 174.730469 123.3125 C 173.683594 123.519531 172.636719 123.757812 171.597656 124.015625 C 170.558594 124.277344 169.527344 124.5625 168.503906 124.871094 C 167.476562 125.183594 166.460938 125.519531 165.453125 125.878906 C 164.445312 126.242188 163.445312 126.625 162.457031 127.035156 C 161.464844 127.445312 160.488281 127.878906 159.519531 128.339844 C 158.550781 128.796875 157.59375 129.277344 156.648438 129.78125 C 155.703125 130.289062 154.773438 130.816406 153.855469 131.367188 C 152.9375 131.917969 152.03125 132.488281 151.140625 133.085938 C 150.25 133.679688 149.375 134.296875 148.515625 134.933594 C 147.652344 135.570312 146.808594 136.230469 145.980469 136.910156 C 145.152344 137.589844 144.34375 138.289062 143.550781 139.007812 C 142.757812 139.726562 141.980469 140.464844 141.222656 141.222656 C 140.464844 141.980469 139.726562 142.757812 139.007812 143.550781 C 138.289062 144.34375 137.589844 145.152344 136.910156 145.980469 C 136.230469 146.808594 135.570312 147.652344 134.933594 148.515625 C 134.296875 149.375 133.679688 150.25 133.085938 151.140625 C 132.488281 152.03125 131.917969 152.9375 131.367188 153.855469 C 130.816406 154.773438 130.289062 155.703125 129.78125 156.648438 C 129.277344 157.59375 128.796875 158.550781 128.339844 159.519531 C 127.878906 160.488281 127.445312 161.464844 127.035156 162.457031 C 126.625 163.445312 126.242188 164.445312 125.878906 165.453125 C 125.519531 166.460938 125.183594 167.476562 124.871094 168.503906 C 124.5625 169.527344 124.277344 170.558594 124.015625 171.597656 C 123.757812 172.636719 123.519531 173.683594 123.3125 174.730469 C 123.105469 175.78125 122.921875 176.835938 122.761719 177.898438 C 122.605469 178.957031 122.476562 180.019531 122.371094 181.085938 C 122.265625 182.152344 122.1875 183.21875 122.132812 184.289062 C 122.082031 185.359375 122.054688 186.429688 122.054688 187.5 C 122.054688 188.570312 122.082031 189.640625 122.132812 190.710938 C 122.1875 191.78125 122.265625 192.847656 122.371094 193.914062 C 122.476562 194.980469 122.605469 196.042969 122.761719 197.101562 C 122.921875 198.164062 123.105469 199.21875 123.3125 200.269531 C 123.519531 201.316406 123.757812 202.363281 124.015625 203.402344 C 124.277344 204.441406 124.5625 205.472656 124.871094 206.496094 C 125.183594 207.523438 125.519531 208.539062 125.878906 209.546875 C 126.242188 210.554688 126.625 211.554688 127.035156 212.542969 C 127.445312 213.535156 127.878906 214.511719 128.339844 215.480469 C 128.796875 216.449219 129.277344 217.40625 129.78125 218.351562 C 130.289062 219.296875 130.816406 220.226562 131.367188 221.144531 C 131.917969 222.0625 132.488281 222.96875 133.085938 223.859375 C 133.679688 224.75 134.296875 225.625 134.933594 226.484375 C 135.570312 227.347656 136.230469 228.191406 136.910156 229.019531 C 137.589844 229.847656 138.289062 230.65625 139.007812 231.449219 C 139.726562 232.242188 140.464844 233.019531 141.222656 233.777344 C 141.980469 234.535156 142.757812 235.273438 143.550781 235.992188 C 144.34375 236.710938 145.152344 237.410156 145.980469 238.089844 C 146.808594 238.769531 147.652344 239.429688 148.515625 240.066406 C 149.375 240.703125 150.25 241.320312 151.140625 241.914062 C 152.03125 242.511719 152.9375 243.082031 153.855469 243.632812 C 154.773438 244.183594 155.703125 244.710938 156.648438 245.21875 C 157.59375 245.722656 158.550781 246.203125 159.519531 246.660156 C 160.488281 247.121094 161.464844 247.554688 162.457031 247.964844 C 163.445312 248.375 164.445312 248.757812 165.453125 249.121094 C 166.460938 249.480469 167.476562 249.816406 168.503906 250.128906 C 169.527344 250.4375 170.558594 250.722656 171.597656 250.984375 C 172.636719 251.242188 173.683594 251.480469 174.730469 251.6875 C 175.78125 251.894531 176.835938 252.078125 177.898438 252.238281 C 178.957031 252.394531 180.019531 252.523438 181.085938 252.628906 C 182.152344 252.734375 183.21875 252.8125 184.289062 252.867188 C 185.359375 252.917969 186.429688 252.945312 187.5 252.945312 C 188.570312 252.945312 189.640625 252.917969 190.710938 252.867188 C 191.78125 252.8125 192.847656 252.734375 193.914062 252.628906 C 194.980469 252.523438 196.042969 252.394531 197.101562 252.238281 C 198.164062 252.078125 199.21875 251.894531 200.269531 251.6875 C 201.316406 251.480469 202.363281 251.242188 203.402344 250.984375 C 204.441406 250.722656 205.472656 250.4375 206.496094 250.128906 C 207.523438 249.816406 208.539062 249.480469 209.546875 249.121094 C 210.554688 248.757812 211.554688 248.375 212.542969 247.964844 C 213.535156 247.554688 214.511719 247.121094 215.480469 246.660156 C 216.449219 246.203125 217.40625 245.722656 218.351562 245.21875 C 219.296875 244.710938 220.226562 244.183594 221.144531 243.632812 C 222.0625 243.082031 222.96875 242.511719 223.859375 241.914062 C 224.75 241.320312 225.625 240.703125 226.484375 240.066406 C 227.347656 239.429688 228.191406 238.769531 229.019531 238.089844 C 229.847656 237.410156 230.65625 236.710938 231.449219 235.992188 C 232.242188 235.273438 233.019531 234.535156 233.777344 233.777344 C 234.535156 233.019531 235.273438 232.242188 235.992188 231.449219 C 236.710938 230.65625 237.410156 229.847656 238.089844 229.019531 C 238.769531 228.191406 239.429688 227.347656 240.066406 226.484375 C 240.703125 225.625 241.320312 224.75 241.914062 223.859375 C 242.511719 222.96875 243.082031 222.0625 243.632812 221.144531 C 244.183594 220.226562 244.710938 219.296875 245.21875 218.351562 C 245.722656 217.40625 246.203125 216.449219 246.660156 215.480469 C 247.121094 214.511719 247.554688 213.535156 247.964844 212.542969 C 248.375 211.554688 248.757812 210.554688 249.121094 209.546875 C 249.480469 208.539062 249.816406 207.523438 250.128906 206.496094 C 250.4375 205.472656 250.722656 204.441406 250.984375 203.402344 C 251.242188 202.363281 251.480469 201.316406 251.6875 200.269531 C 251.894531 199.21875 252.078125 198.164062 252.238281 197.101562 C 252.394531 196.042969 252.523438 194.980469 252.628906 193.914062 C 252.734375 192.847656 252.8125 191.78125 252.867188 190.710938 C 252.917969 189.640625 252.945312 188.570312 252.945312 187.5 C 252.945312 186.429688 252.917969 185.359375 252.867188 184.289062 C 252.8125 183.21875 252.734375 182.152344 252.628906 181.085938 C 252.523438 180.019531 252.394531 178.957031 252.238281 177.898438 C 252.078125 176.835938 251.894531 175.78125 251.6875 174.730469 C 251.480469 173.683594 251.242188 172.636719 250.984375 171.597656 C 250.722656 170.558594 250.4375 169.527344 250.128906 168.503906 C 249.816406 167.476562 249.480469 166.460938 249.121094 165.453125 C 248.757812 164.445312 248.375 163.445312 247.964844 162.457031 C 247.554688 161.464844 247.121094 160.488281 246.660156 159.519531 C 246.203125 158.550781 245.722656 157.59375 245.21875 156.648438 C 244.710938 155.703125 244.183594 154.773438 243.632812 153.855469 C 243.082031 152.9375 242.511719 152.03125 241.914062 151.140625 C 241.320312 150.25 240.703125 149.375 240.066406 148.515625 C 239.429688 147.652344 238.769531 146.808594 238.089844 145.980469 C 237.410156 145.152344 236.710938 144.34375 235.992188 143.550781 C 235.273438 142.757812 234.535156 141.980469 233.777344 141.222656 C 233.019531 140.464844 232.242188 139.726562 231.449219 139.007812 C 230.65625 138.289062 229.847656 137.589844 229.019531 136.910156 C 228.191406 136.230469 227.347656 135.570312 226.484375 134.933594 C 225.625 134.296875 224.75 133.679688 223.859375 133.085938 C 222.96875 132.488281 222.0625 131.917969 221.144531 131.367188 C 220.226562 130.816406 219.296875 130.289062 218.351562 129.78125 C 217.40625 129.277344 216.449219 128.796875 215.480469 128.339844 C 214.511719 127.878906 213.535156 127.445312 212.542969 127.035156 C 211.554688 126.625 210.554688 126.242188 209.546875 125.878906 C 208.539062 125.519531 207.523438 125.183594 206.496094 124.871094 C 205.472656 124.5625 204.441406 124.277344 203.402344 124.015625 C 202.363281 123.757812 201.316406 123.519531 200.269531 123.3125 C 199.21875 123.105469 198.164062 122.921875 197.101562 122.761719 C 196.042969 122.605469 194.980469 122.476562 193.914062 122.371094 C 192.847656 122.265625 191.78125 122.1875 190.710938 122.132812 C 189.640625 122.082031 188.570312 122.054688 187.5 122.054688 Z M 187.5 122.054688"/></svg>