<svg xmlns="http://www.w3.org/2000/svg" xmlns:xlink="http://www.w3.org/1999/xlink" width="375" viewBox="0 0 375 375" height="375" version="1.0"><defs><clipPath id="a"><path d="M 7 7 L 368 7 L 368 368 L 7 368 Z M 7 7"/></clipPath><clipPath id="b"><path d="M 59.882812 7.527344 L 315.117188 7.527344 C 316.832031 7.527344 318.542969 7.609375 320.25 7.777344 C 321.957031 7.945312 323.648438 8.199219 325.332031 8.53125 C 327.015625 8.867188 328.675781 9.28125 330.316406 9.78125 C 331.957031 10.277344 333.570312 10.855469 335.152344 11.511719 C 336.738281 12.167969 338.285156 12.898438 339.796875 13.707031 C 341.308594 14.515625 342.78125 15.398438 344.207031 16.351562 C 345.632812 17.300781 347.007812 18.324219 348.332031 19.410156 C 349.65625 20.5 350.925781 21.648438 352.140625 22.859375 C 353.351562 24.074219 354.5 25.34375 355.589844 26.667969 C 356.675781 27.992188 357.699219 29.367188 358.648438 30.792969 C 359.601562 32.21875 360.484375 33.691406 361.292969 35.203125 C 362.101562 36.714844 362.832031 38.261719 363.488281 39.847656 C 364.144531 41.429688 364.722656 43.042969 365.21875 44.683594 C 365.71875 46.324219 366.132812 47.984375 366.46875 49.667969 C 366.800781 51.351562 367.054688 53.042969 367.222656 54.75 C 367.390625 56.457031 367.472656 58.167969 367.472656 59.882812 L 367.472656 315.117188 C 367.472656 316.832031 367.390625 318.542969 367.222656 320.25 C 367.054688 321.957031 366.800781 323.648438 366.46875 325.332031 C 366.132812 327.015625 365.71875 328.675781 365.21875 330.316406 C 364.722656 331.957031 364.144531 333.570312 363.488281 335.152344 C 362.832031 336.738281 362.101562 338.285156 361.292969 339.796875 C 360.484375 341.308594 359.601562 342.78125 358.648438 344.207031 C 357.699219 345.632812 356.675781 347.007812 355.589844 348.332031 C 354.5 349.65625 353.351562 350.925781 352.140625 352.140625 C 350.925781 353.351562 349.65625 354.5 348.332031 355.589844 C 347.007812 356.675781 345.632812 357.699219 344.207031 358.648438 C 342.78125 359.601562 341.308594 360.484375 339.796875 361.292969 C 338.285156 362.101562 336.738281 362.832031 335.152344 363.488281 C 333.570312 364.144531 331.957031 364.722656 330.316406 365.21875 C 328.675781 365.71875 327.015625 366.132812 325.332031 366.46875 C 323.648438 366.800781 321.957031 367.054688 320.25 367.222656 C 318.542969 367.390625 316.832031 367.472656 315.117188 367.472656 L 59.882812 367.472656 C 58.167969 367.472656 56.457031 367.390625 54.75 367.222656 C 53.042969 367.054688 51.351562 366.800781 49.667969 366.46875 C 47.984375 366.132812 46.324219 365.71875 44.683594 365.21875 C 43.042969 364.722656 41.429688 364.144531 39.847656 363.488281 C 38.261719 362.832031 36.714844 362.101562 35.203125 361.292969 C 33.691406 360.484375 32.21875 359.601562 30.792969 358.648438 C 29.367188 357.699219 27.992188 356.675781 26.667969 355.589844 C 25.34375 354.5 24.074219 353.351562 22.859375 352.140625 C 21.648438 350.925781 20.5 349.65625 19.410156 348.332031 C 18.324219 347.007812 17.300781 345.632812 16.351562 344.207031 C 15.398438 342.78125 14.515625 341.308594 13.707031 339.796875 C 12.898438 338.285156 12.167969 336.738281 11.511719 335.152344 C 10.855469 333.570312 10.277344 331.957031 9.78125 330.316406 C 9.28125 328.675781 8.867188 327.015625 8.53125 325.332031 C 8.199219 323.648438 7.945312 321.957031 7.777344 320.25 C 7.609375 318.542969 7.527344 316.832031 7.527344 315.117188 L 7.527344 59.882812 C 7.527344 58.167969 7.609375 56.457031 7.777344 54.75 C 7.945312 53.042969 8.199219 51.351562 8.53125 49.667969 C 8.867188 47.984375 9.28125 46.324219 9.78125 44.683594 C 10.277344 43.042969 10.855469 41.429688 11.511719 39.847656 C 12.167969 38.261719 12.898438 36.714844 13.707031 35.203125 C 14.515625 33.691406 15.398438 32.21875 16.351562 30.792969 C 17.300781 29.367188 18.324219 27.992188 19.410156 26.667969 C 20.5 25.34375 21.648438 24.074219 22.859375 22.859375 C 24.074219 21.648438 25.34375 20.5 26.667969 19.410156 C 27.992188 18.324219 29.367188 17.300781 30.792969 16.351562 C 32.21875 15.398438 33.691406 14.515625 35.203125 13.707031 C 36.714844 12.898438 38.261719 12.167969 39.847656 11.511719 C 41.429688 10.855469 43.042969 10.277344 44.683594 9.78125 C 46.324219 9.28125 47.984375 8.867188 49.667969 8.53125 C 51.351562 8.199219 53.042969 7.945312 54.75 7.777344 C 56.457031 7.609375 58.167969 7.527344 59.882812 7.527344 Z M 59.882812 7.527344"/></clipPath><clipPath id="d"><path d="M 30 30 L 345 30 L 345 345 L 30 345 Z M 30 30"/></clipPath><clipPath id="e"><path d="M 63.15625 30.433594 L 311.84375 30.433594 C 312.917969 30.433594 313.988281 30.484375 315.054688 30.589844 C 316.121094 30.695312 317.179688 30.851562 318.230469 31.0625 C 319.28125 31.269531 320.320312 31.53125 321.34375 31.839844 C 322.371094 32.152344 323.378906 32.511719 324.367188 32.921875 C 325.359375 33.332031 326.324219 33.789062 327.269531 34.296875 C 328.214844 34.800781 329.132812 35.351562 330.023438 35.945312 C 330.917969 36.542969 331.777344 37.179688 332.605469 37.859375 C 333.433594 38.539062 334.226562 39.257812 334.984375 40.015625 C 335.742188 40.773438 336.460938 41.566406 337.140625 42.394531 C 337.820312 43.222656 338.457031 44.082031 339.054688 44.976562 C 339.648438 45.867188 340.199219 46.785156 340.703125 47.730469 C 341.210938 48.675781 341.667969 49.640625 342.078125 50.632812 C 342.488281 51.621094 342.847656 52.628906 343.160156 53.65625 C 343.46875 54.679688 343.730469 55.71875 343.9375 56.769531 C 344.148438 57.820312 344.304688 58.878906 344.410156 59.945312 C 344.515625 61.011719 344.566406 62.082031 344.566406 63.15625 L 344.566406 311.84375 C 344.566406 312.917969 344.515625 313.988281 344.410156 315.054688 C 344.304688 316.121094 344.148438 317.179688 343.9375 318.230469 C 343.730469 319.28125 343.46875 320.320312 343.160156 321.34375 C 342.847656 322.371094 342.488281 323.378906 342.078125 324.367188 C 341.667969 325.359375 341.210938 326.324219 340.703125 327.269531 C 340.199219 328.214844 339.648438 329.132812 339.054688 330.023438 C 338.457031 330.917969 337.820312 331.777344 337.140625 332.605469 C 336.460938 333.433594 335.742188 334.226562 334.984375 334.984375 C 334.226562 335.742188 333.433594 336.460938 332.605469 337.140625 C 331.777344 337.820312 330.917969 338.457031 330.023438 339.054688 C 329.132812 339.648438 328.214844 340.199219 327.269531 340.703125 C 326.324219 341.210938 325.359375 341.667969 324.367188 342.078125 C 323.378906 342.488281 322.371094 342.847656 321.34375 343.160156 C 320.320312 343.46875 319.28125 343.730469 318.230469 343.9375 C 317.179688 344.148438 316.121094 344.304688 315.054688 344.410156 C 313.988281 344.515625 312.917969 344.566406 311.84375 344.566406 L 63.15625 344.566406 C 62.082031 344.566406 61.011719 344.515625 59.945312 344.410156 C 58.878906 344.304688 57.820312 344.148438 56.769531 343.9375 C 55.71875 343.730469 54.679688 343.46875 53.65625 343.160156 C 52.628906 342.847656 51.621094 342.488281 50.632812 342.078125 C 49.640625 341.667969 48.675781 341.210938 47.730469 340.703125 C 46.785156 340.199219 45.867188 339.648438 44.976562 339.054688 C 44.082031 338.457031 43.222656 337.820312 42.394531 337.140625 C 41.566406 336.460938 40.773438 335.742188 40.015625 334.984375 C 39.257812 334.226562 38.539062 333.433594 37.859375 332.605469 C 37.179688 331.777344 36.542969 330.917969 35.945312 330.023438 C 35.351562 329.132812 34.800781 328.214844 34.296875 327.269531 C 33.789062 326.324219 33.332031 325.359375 32.921875 324.367188 C 32.511719 323.378906 32.152344 322.371094 31.839844 321.34375 C 31.53125 320.320312 31.269531 319.28125 31.0625 318.230469 C 30.851562 317.179688 30.695312 316.121094 30.589844 315.054688 C 30.484375 313.988281 30.433594 312.917969 30.433594 311.84375 L 30.433594 63.15625 C 30.433594 62.082031 30.484375 61.011719 30.589844 59.945312 C 30.695312 58.878906 30.851562 57.820312 31.0625 56.769531 C 31.269531 55.71875 31.53125 54.679688 31.839844 53.65625 C 32.152344 52.628906 32.511719 51.621094 32.921875 50.632812 C 33.332031 49.640625 33.789062 48.675781 34.296875 47.730469 C 34.800781 46.785156 35.351562 45.867188 35.945312 44.976562 C 36.542969 44.082031 37.179688 43.222656 37.859375 42.394531 C 38.539062 41.566406 39.257812 40.773438 40.015625 40.015625 C 40.773438 39.257812 41.566406 38.539062 42.394531 37.859375 C 43.222656 37.179688 44.082031 36.542969 44.976562 35.945312 C 45.867188 35.351562 46.785156 34.800781 47.730469 34.296875 C 48.675781 33.789062 49.640625 33.332031 50.632812 32.921875 C 51.621094 32.511719 52.628906 32.152344 53.65625 31.839844 C 54.679688 31.53125 55.71875 31.269531 56.769531 31.0625 C 57.820312 30.851562 58.878906 30.695312 59.945312 30.589844 C 61.011719 30.484375 62.082031 30.433594 63.15625 30.433594 Z M 63.15625 30.433594"/></clipPath><linearGradient x1="286.5" gradientTransform="scale(.65445)" y1="11.5" x2="286.5" gradientUnits="userSpaceOnUse" y2="561.5" xlink:type="simple" xlink:actuate="onLoad" id="c" xlink:show="other"><stop stop-color="#A7A9AC" offset="0"/><stop stop-color="#A8AAAD" offset=".004"/><stop stop-color="#A9ABAE" offset=".008"/><stop stop-color="#A9ABAE" offset=".012"/><stop stop-color="#AAACAF" offset=".016"/><stop stop-color="#ABADB0" offset=".02"/><stop stop-color="#ACAEB1" offset=".023"/><stop stop-color="#ACAEB1" offset=".027"/><stop stop-color="#ADAFB2" offset=".031"/><stop stop-color="#AEB0B3" offset=".035"/><stop stop-color="#AFB1B4" offset=".039"/><stop stop-color="#AFB1B4" offset=".043"/><stop stop-color="#B0B2B5" offset=".047"/><stop stop-color="#B1B3B6" offset=".051"/><stop stop-color="#B2B3B6" offset=".055"/><stop stop-color="#B2B4B7" offset=".059"/><stop stop-color="#B3B5B8" offset=".063"/><stop stop-color="#B4B6B8" offset=".066"/><stop stop-color="#B4B6B9" offset=".07"/><stop stop-color="#B5B7BA" offset=".074"/><stop stop-color="#B6B8BA" offset=".078"/><stop stop-color="#B7B8BB" offset=".082"/><stop stop-color="#B7B9BC" offset=".086"/><stop stop-color="#B8BABC" offset=".09"/><stop stop-color="#B9BBBD" offset=".094"/><stop stop-color="#BABBBE" offset=".098"/><stop stop-color="#BABCBF" offset=".102"/><stop stop-color="#BBBDBF" offset=".105"/><stop stop-color="#BCBDC0" offset=".109"/><stop stop-color="#BDBEC1" offset=".113"/><stop stop-color="#BDBFC1" offset=".117"/><stop stop-color="#BEBFC2" offset=".121"/><stop stop-color="#BFC0C3" offset=".125"/><stop stop-color="#BFC1C3" offset=".129"/><stop stop-color="#C0C2C4" offset=".133"/><stop stop-color="#C1C2C5" offset=".137"/><stop stop-color="#C2C3C5" offset=".141"/><stop stop-color="#C2C4C6" offset=".145"/><stop stop-color="#C3C4C7" offset=".148"/><stop stop-color="#C4C5C7" offset=".152"/><stop stop-color="#C5C6C8" offset=".156"/><stop stop-color="#C5C7C9" offset=".16"/><stop stop-color="#C6C7C9" offset=".164"/><stop stop-color="#C7C8CA" offset=".168"/><stop stop-color="#C8C9CB" offset=".172"/><stop stop-color="#C8C9CC" offset=".176"/><stop stop-color="#C9CACC" offset=".18"/><stop stop-color="#CACBCD" offset=".184"/><stop stop-color="#CBCCCE" offset=".188"/><stop stop-color="#CBCCCE" offset=".191"/><stop stop-color="#CCCDCF" offset=".195"/><stop stop-color="#CCCDCF" offset=".199"/><stop stop-color="#CDCED0" offset=".203"/><stop stop-color="#CDCED0" offset=".207"/><stop stop-color="#CECFD1" offset=".211"/><stop stop-color="#CECFD1" offset=".215"/><stop stop-color="#CFD0D2" offset=".219"/><stop stop-color="#CFD0D2" offset=".223"/><stop stop-color="#D0D1D3" offset=".227"/><stop stop-color="#D0D1D3" offset=".23"/><stop stop-color="#D1D2D4" offset=".234"/><stop stop-color="#D1D3D4" offset=".238"/><stop stop-color="#D2D3D5" offset=".242"/><stop stop-color="#D3D4D5" offset=".246"/><stop stop-color="#D3D4D6" offset=".25"/><stop stop-color="#D4D5D6" offset=".254"/><stop stop-color="#D4D5D7" offset=".258"/><stop stop-color="#D5D6D7" offset=".262"/><stop stop-color="#D5D6D8" offset=".266"/><stop stop-color="#D6D7D8" offset=".27"/><stop stop-color="#D6D7D9" offset=".273"/><stop stop-color="#D7D8D9" offset=".277"/><stop stop-color="#D7D8DA" offset=".281"/><stop stop-color="#D8D9DA" offset=".285"/><stop stop-color="#D8D9DB" offset=".289"/><stop stop-color="#D9DADB" offset=".293"/><stop stop-color="#D9DADC" offset=".297"/><stop stop-color="#DADBDC" offset=".301"/><stop stop-color="#DADBDD" offset=".305"/><stop stop-color="#DBDCDD" offset=".309"/><stop stop-color="#DCDDDE" offset=".313"/><stop stop-color="#DCDDDE" offset=".316"/><stop stop-color="#DDDEDF" offset=".32"/><stop stop-color="#DDDEDF" offset=".324"/><stop stop-color="#DEDFE0" offset=".328"/><stop stop-color="#DEDFE0" offset=".332"/><stop stop-color="#DFE0E1" offset=".336"/><stop stop-color="#DFE0E1" offset=".34"/><stop stop-color="#E0E1E2" offset=".344"/><stop stop-color="#E0E1E2" offset=".348"/><stop stop-color="#E1E2E3" offset=".352"/><stop stop-color="#E1E2E3" offset=".355"/><stop stop-color="#E2E3E4" offset=".359"/><stop stop-color="#E2E3E4" offset=".367"/><stop stop-color="#E3E4E5" offset=".375"/><stop stop-color="#E4E5E6" offset=".383"/><stop stop-color="#E4E5E6" offset=".391"/><stop stop-color="#E5E6E7" offset=".398"/><stop stop-color="#E6E7E8" offset=".406"/><stop stop-color="#E6E7E8" offset=".414"/><stop stop-color="#E7E8E9" offset=".422"/><stop stop-color="#E8E9E9" offset=".43"/><stop stop-color="#E8EAEA" offset=".438"/><stop stop-color="#E9EAEB" offset=".445"/><stop stop-color="#EAEBEB" offset=".453"/><stop stop-color="#EBECEC" offset=".461"/><stop stop-color="#EBECED" offset=".469"/><stop stop-color="#ECEDED" offset=".477"/><stop stop-color="#EDEEEE" offset=".484"/><stop stop-color="#EDEEEF" offset=".492"/><stop stop-color="#EEEFEF" offset=".5"/><stop stop-color="#EFF0F0" offset=".508"/><stop stop-color="#EFF0F1" offset=".516"/><stop stop-color="#F0F1F1" offset=".523"/><stop stop-color="#F1F2F2" offset=".531"/><stop stop-color="#F2F3F3" offset=".539"/><stop stop-color="#F2F3F3" offset=".547"/><stop stop-color="#F3F4F4" offset=".563"/><stop stop-color="#F3F4F4" offset=".578"/><stop stop-color="#F4F5F5" offset=".594"/><stop stop-color="#F5F6F6" offset=".609"/><stop stop-color="#F6F6F6" offset=".625"/><stop stop-color="#F7F7F7" offset=".641"/><stop stop-color="#F7F8F8" offset=".656"/><stop stop-color="#F8F9F9" offset=".672"/><stop stop-color="#F9F9F9" offset=".688"/><stop stop-color="#FAFAFA" offset=".703"/><stop stop-color="#FAFBFB" offset=".719"/><stop stop-color="#FBFBFB" offset=".734"/><stop stop-color="#FCFCFC" offset=".75"/><stop stop-color="#FCFCFC" offset=".813"/><stop stop-color="#FDFDFD" offset=".875"/><stop stop-color="#FEFEFE" offset=".938"/><stop stop-color="#FFF" offset="1"/></linearGradient><linearGradient x1="286.5" gradientTransform="scale(.65445)" y1="46.5" x2="286.5" gradientUnits="userSpaceOnUse" y2="526.5" xlink:type="simple" xlink:actuate="onLoad" id="f" xlink:show="other"><stop stop-color="#FFF" offset="0"/><stop stop-color="#FFF" offset=".063"/><stop stop-color="#FEFEFE" offset=".125"/><stop stop-color="#FDFDFD" offset=".188"/><stop stop-color="#FDFDFD" offset=".25"/><stop stop-color="#FCFCFC" offset=".313"/><stop stop-color="#FBFBFB" offset=".328"/><stop stop-color="#FBFBFB" offset=".344"/><stop stop-color="#FAFAFA" offset=".359"/><stop stop-color="#FAFAFA" offset=".375"/><stop stop-color="#F9F9F9" offset=".391"/><stop stop-color="#F8F8F8" offset=".406"/><stop stop-color="#F8F8F8" offset=".422"/><stop stop-color="#F7F7F7" offset=".438"/><stop stop-color="#F6F6F6" offset=".453"/><stop stop-color="#F6F6F6" offset=".469"/><stop stop-color="#F5F5F5" offset=".484"/><stop stop-color="#F4F4F4" offset=".5"/><stop stop-color="#F4F4F4" offset=".516"/><stop stop-color="#F3F3F3" offset=".523"/><stop stop-color="#F2F2F2" offset=".531"/><stop stop-color="#F2F2F2" offset=".539"/><stop stop-color="#F1F1F1" offset=".547"/><stop stop-color="#F0F0F0" offset=".555"/><stop stop-color="#F0F0F0" offset=".563"/><stop stop-color="#EFEFEF" offset=".57"/><stop stop-color="#EEE" offset=".578"/><stop stop-color="#EEE" offset=".586"/><stop stop-color="#EDEDED" offset=".594"/><stop stop-color="#ECECEC" offset=".602"/><stop stop-color="#EBEBEB" offset=".609"/><stop stop-color="#EBEBEB" offset=".617"/><stop stop-color="#EAEAEA" offset=".625"/><stop stop-color="#E9E9E9" offset=".633"/><stop stop-color="#E9E9E9" offset=".641"/><stop stop-color="#E8E8E8" offset=".648"/><stop stop-color="#E7E7E7" offset=".656"/><stop stop-color="#E7E7E7" offset=".664"/><stop stop-color="#E6E6E6" offset=".672"/><stop stop-color="#E5E5E5" offset=".68"/><stop stop-color="#E5E5E5" offset=".688"/><stop stop-color="#E4E4E4" offset=".695"/><stop stop-color="#E3E3E3" offset=".699"/><stop stop-color="#E2E2E2" offset=".703"/><stop stop-color="#E2E2E2" offset=".707"/><stop stop-color="#E1E1E1" offset=".711"/><stop stop-color="#E1E1E1" offset=".715"/><stop stop-color="#E0E0E0" offset=".719"/><stop stop-color="#E0E0E0" offset=".723"/><stop stop-color="#DFDFDF" offset=".727"/><stop stop-color="#DFDFDF" offset=".73"/><stop stop-color="#DEDEDE" offset=".734"/><stop stop-color="#DEDEDE" offset=".738"/><stop stop-color="#DDD" offset=".742"/><stop stop-color="#DDD" offset=".746"/><stop stop-color="#DCDCDC" offset=".75"/><stop stop-color="#DCDCDC" offset=".754"/><stop stop-color="#DBDBDB" offset=".758"/><stop stop-color="#DBDBDB" offset=".762"/><stop stop-color="#DADADA" offset=".766"/><stop stop-color="#DADADA" offset=".77"/><stop stop-color="#D9D9D9" offset=".773"/><stop stop-color="#D9D9D9" offset=".777"/><stop stop-color="#D8D8D8" offset=".781"/><stop stop-color="#D8D8D8" offset=".785"/><stop stop-color="#D7D7D7" offset=".789"/><stop stop-color="#D7D7D7" offset=".793"/><stop stop-color="#D6D6D6" offset=".797"/><stop stop-color="#D5D5D5" offset=".801"/><stop stop-color="#D5D5D5" offset=".805"/><stop stop-color="#D4D4D4" offset=".809"/><stop stop-color="#D4D4D4" offset=".813"/><stop stop-color="#D3D3D3" offset=".816"/><stop stop-color="#D3D3D3" offset=".82"/><stop stop-color="#D2D2D2" offset=".824"/><stop stop-color="#D2D2D2" offset=".828"/><stop stop-color="#D1D1D1" offset=".832"/><stop stop-color="#D1D1D1" offset=".836"/><stop stop-color="#D0D0D0" offset=".84"/><stop stop-color="#D0D0D0" offset=".844"/><stop stop-color="#CFCFCF" offset=".848"/><stop stop-color="#CFCFCF" offset=".852"/><stop stop-color="#CECECE" offset=".855"/><stop stop-color="#CDCDCD" offset=".859"/><stop stop-color="#CCC" offset=".863"/><stop stop-color="#CCC" offset=".867"/><stop stop-color="#CBCBCB" offset=".871"/><stop stop-color="#CACACA" offset=".875"/><stop stop-color="#C9C9C9" offset=".879"/><stop stop-color="#C9C9C9" offset=".883"/><stop stop-color="#C8C8C8" offset=".887"/><stop stop-color="#C7C7C7" offset=".891"/><stop stop-color="#C6C6C6" offset=".895"/><stop stop-color="#C6C6C6" offset=".898"/><stop stop-color="#C5C5C5" offset=".902"/><stop stop-color="#C4C4C4" offset=".906"/><stop stop-color="#C3C3C3" offset=".91"/><stop stop-color="#C3C3C3" offset=".914"/><stop stop-color="#C2C2C2" offset=".918"/><stop stop-color="#C1C1C1" offset=".922"/><stop stop-color="#C0C0C0" offset=".926"/><stop stop-color="#C0C0C0" offset=".93"/><stop stop-color="#BFBFBF" offset=".934"/><stop stop-color="#BEBEBE" offset=".938"/><stop stop-color="#BDBDBD" offset=".941"/><stop stop-color="#BDBDBD" offset=".945"/><stop stop-color="#BCBCBC" offset=".949"/><stop stop-color="#BBB" offset=".953"/><stop stop-color="#BABABA" offset=".957"/><stop stop-color="#BABABA" offset=".961"/><stop stop-color="#B9B9B9" offset=".965"/><stop stop-color="#B8B8B8" offset=".969"/><stop stop-color="#B7B7B7" offset=".973"/><stop stop-color="#B7B7B7" offset=".977"/><stop stop-color="#B6B6B6" offset=".98"/><stop stop-color="#B5B5B5" offset=".984"/><stop stop-color="#B4B4B4" offset=".988"/><stop stop-color="#B4B4B4" offset=".992"/><stop stop-color="#B3B3B3" offset="1"/></linearGradient></defs><g clip-path="url(#a)"><g clip-path="url(#b)"><path fill="url(#c)" d="M 7.527344 7.527344 L 7.527344 367.472656 L 367.472656 367.472656 L 367.472656 7.527344 Z M 7.527344 7.527344"/></g></g><path transform="scale(.65445)" fill="none" d="M 91.50093 11.501781 L 481.49905 11.501781 C 484.119332 11.501781 486.733644 11.627125 489.341988 11.883781 C 491.950331 12.140437 494.5348 12.528406 497.107331 13.03575 C 499.679863 13.549062 502.216581 14.18175 504.723456 14.94575 C 507.230331 15.703781 509.695425 16.587156 512.112769 17.589906 C 514.536081 18.592656 516.899706 19.708812 519.209612 20.944344 C 521.519519 22.179875 523.769737 23.528812 525.948331 24.985187 C 528.126925 26.435593 530.227925 27.999406 532.251331 29.658718 C 534.274737 31.324 536.214581 33.078812 538.070862 34.929125 C 539.921175 36.785406 541.675987 38.72525 543.341268 40.748656 C 545.000581 42.772062 546.564393 44.873062 548.0148 47.051656 C 549.471175 49.230249 550.820112 51.480468 552.055643 53.790374 C 553.291174 56.100281 554.407331 58.463906 555.410081 60.887218 C 556.412831 63.304562 557.296206 65.769656 558.054237 68.27653 C 558.818237 70.783405 559.450924 73.320124 559.964237 75.892655 C 560.471581 78.465187 560.859549 81.049655 561.116206 83.657999 C 561.372862 86.266343 561.498206 88.880655 561.498206 91.500936 L 561.498206 481.499057 C 561.498206 484.119338 561.372862 486.733651 561.116206 489.341995 C 560.859549 491.950338 560.471581 494.534807 559.964237 497.107338 C 559.450924 499.679869 558.818237 502.216588 558.054237 504.723463 C 557.296206 507.230338 556.412831 509.695432 555.410081 512.112776 C 554.407331 514.536088 553.291174 516.899713 552.055643 519.209619 C 550.820112 521.519525 549.471175 523.769744 548.0148 525.948338 C 546.564393 528.126932 545.000581 530.227932 543.341268 532.251338 C 541.675987 534.274744 539.921175 536.214588 538.070862 538.070869 C 536.214581 539.921182 534.274737 541.675994 532.251331 543.341275 C 530.227925 545.000588 528.126925 546.5644 525.948331 548.014806 C 523.769737 549.471181 521.519519 550.820119 519.209612 552.05565 C 516.899706 553.291181 514.536081 554.407338 512.112769 555.410088 C 509.695425 556.412838 507.230331 557.296213 504.723456 558.054244 C 502.216581 558.818244 499.679863 559.450931 497.107331 559.964244 C 494.5348 560.471588 491.950331 560.859556 489.341988 561.116213 C 486.733644 561.372869 484.119332 561.498213 481.49905 561.498213 L 91.50093 561.498213 C 88.880648 561.498213 86.266336 561.372869 83.657992 561.116213 C 81.049648 560.859556 78.46518 560.471588 75.892649 559.964244 C 73.320117 559.450931 70.783399 558.818244 68.276524 558.054244 C 65.769649 557.296213 63.304555 556.412838 60.887211 555.410088 C 58.463899 554.407338 56.100274 553.291181 53.790368 552.05565 C 51.480461 550.820119 49.230243 549.471181 47.051649 548.014806 C 44.873055 546.5644 42.772055 545.000588 40.748649 543.341275 C 38.725243 541.675994 36.785399 539.921182 34.929118 538.070869 C 33.078805 536.214588 31.323993 534.274744 29.658712 532.251338 C 27.999399 530.227932 26.435587 528.126932 24.98518 525.948338 C 23.528805 523.769744 22.179868 521.519525 20.944337 519.209619 C 19.708805 516.899713 18.592649 514.536088 17.589899 512.112776 C 16.587149 509.695432 15.703774 507.230338 14.945743 504.723463 C 14.181743 502.216588 13.549055 499.679869 13.035743 497.107338 C 12.528399 494.534807 12.14043 491.950338 11.883774 489.341995 C 11.627118 486.733651 11.501774 484.119338 11.501774 481.499057 L 11.501774 91.500936 C 11.501774 88.880655 11.627118 86.266343 11.883774 83.657999 C 12.14043 81.049655 12.528399 78.465187 13.035743 75.892655 C 13.549055 73.320124 14.181743 70.783405 14.945743 68.27653 C 15.703774 65.769656 16.587149 63.304562 17.589899 60.887218 C 18.592649 58.463906 19.708805 56.100281 20.944337 53.790374 C 22.179868 51.480468 23.528805 49.230249 24.98518 47.051656 C 26.435587 44.873062 27.999399 42.772062 29.658712 40.748656 C 31.323993 38.72525 33.078805 36.785406 34.929118 34.929125 C 36.785399 33.078812 38.725243 31.324 40.748649 29.658718 C 42.772055 27.999406 44.873055 26.435593 47.051649 24.985187 C 49.230243 23.528812 51.480461 22.179875 53.790368 20.944344 C 56.100274 19.708812 58.463899 18.592656 60.887211 17.589906 C 63.304555 16.587156 65.769649 15.703781 68.276524 14.94575 C 70.783399 14.18175 73.320117 13.549062 75.892649 13.03575 C 78.46518 12.528406 81.049648 12.140437 83.657992 11.883781 C 86.266336 11.627125 88.880648 11.501781 91.50093 11.501781 Z M 91.50093 11.501781" stroke="#808080" stroke-width="23" stroke-miterlimit="10"/><g clip-path="url(#d)"><g clip-path="url(#e)"><path fill="url(#f)" d="M 30.433594 30.433594 L 30.433594 344.566406 L 344.566406 344.566406 L 344.566406 30.433594 Z M 30.433594 30.433594"/></g></g><path d="M 187.5 118.78125 C 188.625 118.78125 189.75 118.808594 190.871094 118.867188 C 191.996094 118.921875 193.117188 119.003906 194.234375 119.113281 C 195.355469 119.222656 196.46875 119.363281 197.582031 119.527344 C 198.695312 119.691406 199.804688 119.882812 200.90625 120.101562 C 202.007812 120.324219 203.105469 120.570312 204.195312 120.84375 C 205.289062 121.117188 206.371094 121.414062 207.449219 121.742188 C 208.523438 122.066406 209.589844 122.421875 210.648438 122.800781 C 211.707031 123.179688 212.757812 123.582031 213.796875 124.011719 C 214.835938 124.445312 215.863281 124.898438 216.878906 125.378906 C 217.898438 125.859375 218.902344 126.367188 219.894531 126.898438 C 220.886719 127.425781 221.863281 127.980469 222.828125 128.558594 C 223.792969 129.136719 224.742188 129.738281 225.675781 130.363281 C 226.613281 130.988281 227.53125 131.636719 228.433594 132.304688 C 229.339844 132.976562 230.222656 133.667969 231.09375 134.378906 C 231.964844 135.09375 232.8125 135.828125 233.648438 136.582031 C 234.480469 137.339844 235.296875 138.113281 236.089844 138.910156 C 236.886719 139.703125 237.660156 140.519531 238.417969 141.351562 C 239.171875 142.1875 239.90625 143.035156 240.621094 143.90625 C 241.332031 144.777344 242.023438 145.660156 242.695312 146.566406 C 243.363281 147.46875 244.011719 148.386719 244.636719 149.324219 C 245.261719 150.257812 245.863281 151.207031 246.441406 152.171875 C 247.019531 153.136719 247.574219 154.113281 248.101562 155.105469 C 248.632812 156.097656 249.140625 157.101562 249.621094 158.121094 C 250.101562 159.136719 250.554688 160.164062 250.988281 161.203125 C 251.417969 162.242188 251.820312 163.289062 252.199219 164.351562 C 252.578125 165.410156 252.933594 166.476562 253.257812 167.550781 C 253.585938 168.628906 253.882812 169.710938 254.15625 170.804688 C 254.429688 171.894531 254.675781 172.992188 254.898438 174.09375 C 255.117188 175.195312 255.308594 176.304688 255.472656 177.417969 C 255.636719 178.53125 255.777344 179.644531 255.886719 180.765625 C 255.996094 181.882812 256.078125 183.003906 256.132812 184.128906 C 256.191406 185.25 256.21875 186.375 256.21875 187.5 C 256.21875 188.625 256.191406 189.75 256.132812 190.871094 C 256.078125 191.996094 255.996094 193.117188 255.886719 194.234375 C 255.777344 195.355469 255.636719 196.46875 255.472656 197.582031 C 255.308594 198.695312 255.117188 199.804688 254.898438 200.90625 C 254.675781 202.007812 254.429688 203.105469 254.15625 204.195312 C 253.882812 205.289062 253.585938 206.371094 253.257812 207.449219 C 252.933594 208.523438 252.578125 209.589844 252.199219 210.648438 C 251.820312 211.707031 251.417969 212.757812 250.988281 213.796875 C 250.554688 214.835938 250.101562 215.863281 249.621094 216.878906 C 249.140625 217.898438 248.632812 218.902344 248.101562 219.894531 C 247.574219 220.886719 247.019531 221.863281 246.441406 222.828125 C 245.863281 223.792969 245.261719 224.742188 244.636719 225.675781 C 244.011719 226.613281 243.363281 227.53125 242.695312 228.433594 C 242.023438 229.339844 241.332031 230.222656 240.621094 231.09375 C 239.90625 231.964844 239.171875 232.8125 238.417969 233.648438 C 237.660156 234.480469 236.886719 235.296875 236.089844 236.089844 C 235.296875 236.886719 234.480469 237.660156 233.648438 238.417969 C 232.8125 239.171875 231.964844 239.90625 231.09375 240.621094 C 230.222656 241.332031 229.339844 242.023438 228.433594 242.695312 C 227.53125 243.363281 226.613281 244.011719 225.675781 244.636719 C 224.742188 245.261719 223.792969 245.863281 222.828125 246.441406 C 221.863281 247.019531 220.886719 247.574219 219.894531 248.101562 C 218.902344 248.632812 217.898438 249.140625 216.878906 249.621094 C 215.863281 250.101562 214.835938 250.554688 213.796875 250.988281 C 212.757812 251.417969 211.707031 251.820312 210.648438 252.199219 C 209.589844 252.578125 208.523438 252.933594 207.449219 253.257812 C 206.371094 253.585938 205.289062 253.882812 204.195312 254.15625 C 203.105469 254.429688 202.007812 254.675781 200.90625 254.898438 C 199.804688 255.117188 198.695312 255.308594 197.582031 255.472656 C 196.46875 255.636719 195.355469 255.777344 194.234375 255.886719 C 193.117188 255.996094 191.996094 256.078125 190.871094 256.132812 C 189.75 256.191406 188.625 256.21875 187.5 256.21875 C 186.375 256.21875 185.25 256.191406 184.128906 256.132812 C 183.003906 256.078125 181.882812 255.996094 180.765625 255.886719 C 179.644531 255.777344 178.53125 255.636719 177.417969 255.472656 C 176.304688 255.308594 175.195312 255.117188 174.09375 254.898438 C 172.992188 254.675781 171.894531 254.429688 170.804688 254.15625 C 169.710938 253.882812 168.628906 253.585938 167.550781 253.257812 C 166.476562 252.933594 165.410156 252.578125 164.351562 252.199219 C 163.289062 251.820312 162.242188 251.417969 161.203125 250.988281 C 160.164062 250.554688 159.136719 250.101562 158.121094 249.621094 C 157.101562 249.140625 156.097656 248.632812 155.105469 248.101562 C 154.113281 247.574219 153.136719 247.019531 152.171875 246.441406 C 151.207031 245.863281 150.257812 245.261719 149.324219 244.636719 C 148.386719 244.011719 147.46875 243.363281 146.566406 242.695312 C 145.660156 242.023438 144.777344 241.332031 143.90625 240.621094 C 143.035156 239.90625 142.1875 239.171875 141.351562 238.417969 C 140.519531 237.660156 139.703125 236.886719 138.910156 236.089844 C 138.113281 235.296875 137.339844 234.480469 136.582031 233.648438 C 135.828125 232.8125 135.09375 231.964844 134.378906 231.09375 C 133.667969 230.222656 132.976562 229.339844 132.304688 228.433594 C 131.636719 227.53125 130.988281 226.613281 130.363281 225.675781 C 129.738281 224.742188 129.136719 223.792969 128.558594 222.828125 C 127.980469 221.863281 127.425781 220.886719 126.898438 219.894531 C 126.367188 218.902344 125.859375 217.898438 125.378906 216.878906 C 124.898438 215.863281 124.445312 214.835938 124.011719 213.796875 C 123.582031 212.757812 123.179688 211.707031 122.800781 210.648438 C 122.421875 209.589844 122.066406 208.523438 121.742188 207.449219 C 121.414062 206.371094 121.117188 205.289062 120.84375 204.195312 C 120.570312 203.105469 120.324219 202.007812 120.101562 200.90625 C 119.882812 199.804688 119.691406 198.695312 119.527344 197.582031 C 119.363281 196.46875 119.222656 195.355469 119.113281 194.234375 C 119.003906 193.117188 118.921875 191.996094 118.867188 190.871094 C 118.808594 189.75 118.78125 188.625 118.78125 187.5 C 118.785156 186.375 118.8125 185.253906 118.871094 184.128906 C 118.925781 183.007812 119.007812 181.886719 119.121094 180.765625 C 119.230469 179.648438 119.371094 178.53125 119.535156 177.421875 C 119.703125 176.308594 119.894531 175.203125 120.117188 174.097656 C 120.335938 172.996094 120.582031 171.902344 120.859375 170.808594 C 121.132812 169.71875 121.433594 168.636719 121.757812 167.5625 C 122.085938 166.484375 122.441406 165.417969 122.820312 164.359375 C 123.199219 163.300781 123.605469 162.253906 124.035156 161.214844 C 124.464844 160.175781 124.921875 159.148438 125.402344 158.132812 C 125.882812 157.117188 126.390625 156.113281 126.917969 155.121094 C 127.449219 154.132812 128.003906 153.152344 128.582031 152.1875 C 129.160156 151.226562 129.761719 150.277344 130.386719 149.339844 C 131.011719 148.40625 131.660156 147.488281 132.328125 146.585938 C 133 145.683594 133.691406 144.796875 134.40625 143.925781 C 135.117188 143.058594 135.851562 142.207031 136.609375 141.375 C 137.363281 140.542969 138.136719 139.726562 138.933594 138.933594 C 139.726562 138.136719 140.542969 137.363281 141.375 136.609375 C 142.207031 135.851562 143.058594 135.117188 143.925781 134.40625 C 144.796875 133.691406 145.683594 133 146.585938 132.328125 C 147.488281 131.660156 148.40625 131.011719 149.339844 130.386719 C 150.277344 129.761719 151.226562 129.160156 152.1875 128.582031 C 153.152344 128.003906 154.132812 127.449219 155.121094 126.917969 C 156.113281 126.390625 157.117188 125.882812 158.132812 125.402344 C 159.148438 124.921875 160.175781 124.464844 161.214844 124.035156 C 162.253906 123.605469 163.300781 123.199219 164.359375 122.820312 C 165.417969 122.441406 166.484375 122.085938 167.5625 121.757812 C 168.636719 121.433594 169.71875 121.132812 170.808594 120.859375 C 171.902344 120.582031 172.996094 120.335938 174.097656 120.117188 C 175.203125 119.894531 176.308594 119.703125 177.421875 119.535156 C 178.53125 119.371094 179.648438 119.230469 180.765625 119.121094 C 181.886719 119.007812 183.007812 118.925781 184.128906 118.871094 C 185.253906 118.8125 186.375 118.785156 187.5 118.78125 M 187.5 105.695312 C 186.160156 105.695312 184.824219 105.726562 183.484375 105.792969 C 182.148438 105.859375 180.8125 105.957031 179.480469 106.085938 C 178.148438 106.21875 176.820312 106.382812 175.496094 106.578125 C 174.171875 106.777344 172.851562 107.003906 171.539062 107.265625 C 170.226562 107.527344 168.921875 107.820312 167.621094 108.144531 C 166.324219 108.46875 165.035156 108.828125 163.753906 109.214844 C 162.472656 109.605469 161.199219 110.023438 159.941406 110.476562 C 158.679688 110.925781 157.429688 111.410156 156.195312 111.921875 C 154.957031 112.433594 153.734375 112.976562 152.523438 113.546875 C 151.3125 114.121094 150.117188 114.722656 148.9375 115.351562 C 147.757812 115.984375 146.589844 116.644531 145.441406 117.332031 C 144.292969 118.019531 143.164062 118.738281 142.050781 119.480469 C 140.9375 120.222656 139.84375 120.996094 138.769531 121.792969 C 137.691406 122.589844 136.636719 123.414062 135.601562 124.261719 C 134.566406 125.113281 133.554688 125.988281 132.5625 126.886719 C 131.570312 127.785156 130.601562 128.707031 129.652344 129.652344 C 128.707031 130.601562 127.785156 131.570312 126.886719 132.5625 C 125.988281 133.554688 125.113281 134.566406 124.261719 135.601562 C 123.414062 136.636719 122.589844 137.691406 121.792969 138.769531 C 120.996094 139.84375 120.222656 140.9375 119.480469 142.050781 C 118.738281 143.164062 118.019531 144.292969 117.332031 145.441406 C 116.644531 146.589844 115.984375 147.757812 115.351562 148.9375 C 114.722656 150.117188 114.121094 151.3125 113.546875 152.523438 C 112.976562 153.734375 112.433594 154.957031 111.921875 156.195312 C 111.410156 157.429688 110.925781 158.679688 110.476562 159.941406 C 110.023438 161.199219 109.605469 162.472656 109.214844 163.753906 C 108.828125 165.035156 108.46875 166.324219 108.144531 167.621094 C 107.820312 168.921875 107.527344 170.226562 107.265625 171.539062 C 107.003906 172.851562 106.777344 174.171875 106.578125 175.496094 C 106.382812 176.820312 106.21875 178.148438 106.085938 179.480469 C 105.957031 180.8125 105.859375 182.148438 105.792969 183.484375 C 105.726562 184.824219 105.695312 186.160156 105.695312 187.5 C 105.695312 188.839844 105.726562 190.175781 105.792969 191.515625 C 105.859375 192.851562 105.957031 194.1875 106.085938 195.519531 C 106.21875 196.851562 106.382812 198.179688 106.578125 199.503906 C 106.777344 200.828125 107.003906 202.148438 107.265625 203.460938 C 107.527344 204.773438 107.820312 206.078125 108.144531 207.378906 C 108.46875 208.675781 108.828125 209.964844 109.214844 211.246094 C 109.605469 212.527344 110.023438 213.800781 110.476562 215.058594 C 110.925781 216.320312 111.410156 217.570312 111.921875 218.804688 C 112.433594 220.042969 112.976562 221.265625 113.546875 222.476562 C 114.121094 223.6875 114.722656 224.882812 115.351562 226.0625 C 115.984375 227.242188 116.644531 228.410156 117.332031 229.558594 C 118.019531 230.707031 118.738281 231.835938 119.480469 232.949219 C 120.222656 234.0625 120.996094 235.15625 121.792969 236.230469 C 122.589844 237.308594 123.414062 238.363281 124.261719 239.398438 C 125.113281 240.433594 125.988281 241.445312 126.886719 242.4375 C 127.785156 243.429688 128.707031 244.398438 129.652344 245.347656 C 130.601562 246.292969 131.570312 247.214844 132.5625 248.113281 C 133.554688 249.011719 134.566406 249.886719 135.601562 250.738281 C 136.636719 251.585938 137.691406 252.410156 138.769531 253.207031 C 139.84375 254.003906 140.9375 254.777344 142.050781 255.519531 C 143.164062 256.261719 144.292969 256.980469 145.441406 257.667969 C 146.589844 258.355469 147.757812 259.015625 148.9375 259.648438 C 150.117188 260.277344 151.3125 260.878906 152.523438 261.453125 C 153.734375 262.023438 154.957031 262.566406 156.195312 263.078125 C 157.429688 263.589844 158.679688 264.074219 159.941406 264.523438 C 161.199219 264.976562 162.472656 265.394531 163.753906 265.785156 C 165.035156 266.171875 166.324219 266.53125 167.621094 266.855469 C 168.921875 267.179688 170.226562 267.472656 171.539062 267.734375 C 172.851562 267.996094 174.171875 268.222656 175.496094 268.421875 C 176.820312 268.617188 178.148438 268.78125 179.480469 268.914062 C 180.8125 269.042969 182.148438 269.140625 183.484375 269.207031 C 184.824219 269.273438 186.160156 269.304688 187.5 269.304688 C 188.839844 269.304688 190.175781 269.273438 191.515625 269.207031 C 192.851562 269.140625 194.1875 269.042969 195.519531 268.914062 C 196.851562 268.78125 198.179688 268.617188 199.503906 268.421875 C 200.828125 268.222656 202.148438 267.996094 203.460938 267.734375 C 204.773438 267.472656 206.078125 267.179688 207.378906 266.855469 C 208.675781 266.53125 209.964844 266.171875 211.246094 265.785156 C 212.527344 265.394531 213.800781 264.976562 215.058594 264.523438 C 216.320312 264.074219 217.570312 263.589844 218.804688 263.078125 C 220.042969 262.566406 221.265625 262.023438 222.476562 261.453125 C 223.6875 260.878906 224.882812 260.277344 226.0625 259.648438 C 227.242188 259.015625 228.410156 258.355469 229.558594 257.667969 C 230.707031 256.980469 231.835938 256.261719 232.949219 255.519531 C 234.0625 254.777344 235.15625 254.003906 236.230469 253.207031 C 237.308594 252.410156 238.363281 251.585938 239.398438 250.738281 C 240.433594 249.886719 241.445312 249.011719 242.4375 248.113281 C 243.429688 247.214844 244.398438 246.292969 245.347656 245.347656 C 246.292969 244.398438 247.214844 243.429688 248.113281 242.4375 C 249.011719 241.445312 249.886719 240.433594 250.738281 239.398438 C 251.585938 238.363281 252.410156 237.308594 253.207031 236.230469 C 254.003906 235.15625 254.777344 234.0625 255.519531 232.949219 C 256.261719 231.835938 256.980469 230.707031 257.667969 229.558594 C 258.355469 228.410156 259.015625 227.242188 259.648438 226.0625 C 260.277344 224.882812 260.878906 223.6875 261.453125 222.476562 C 262.023438 221.265625 262.566406 220.042969 263.078125 218.804688 C 263.589844 217.570312 264.074219 216.320312 264.523438 215.058594 C 264.976562 213.800781 265.394531 212.527344 265.785156 211.246094 C 266.171875 209.964844 266.53125 208.675781 266.855469 207.378906 C 267.179688 206.078125 267.472656 204.773438 267.734375 203.460938 C 267.996094 202.148438 268.222656 200.828125 268.421875 199.503906 C 268.617188 198.179688 268.78125 196.851562 268.914062 195.519531 C 269.042969 194.1875 269.140625 192.851562 269.207031 191.515625 C 269.273438 190.175781 269.304688 188.839844 269.304688 187.5 C 269.304688 186.160156 269.273438 184.824219 269.207031 183.484375 C 269.140625 182.148438 269.042969 180.8125 268.914062 179.480469 C 268.78125 178.148438 268.617188 176.820312 268.421875 175.496094 C 268.222656 174.171875 267.996094 172.851562 267.734375 171.539062 C 267.472656 170.226562 267.179688 168.921875 266.855469 167.621094 C 266.53125 166.324219 266.171875 165.035156 265.785156 163.753906 C 265.394531 162.472656 264.976562 161.199219 264.523438 159.941406 C 264.074219 158.679688 263.589844 157.429688 263.078125 156.195312 C 262.566406 154.957031 262.023438 153.734375 261.453125 152.523438 C 260.878906 151.3125 260.277344 150.117188 259.648438 148.9375 C 259.015625 147.757812 258.355469 146.589844 257.667969 145.441406 C 256.980469 144.292969 256.261719 143.164062 255.519531 142.050781 C 254.777344 140.9375 254.003906 139.84375 253.207031 138.769531 C 252.410156 137.691406 251.585938 136.636719 250.738281 135.601562 C 249.886719 134.566406 249.011719 133.554688 248.113281 132.5625 C 247.214844 131.570312 246.292969 130.601562 245.347656 129.652344 C 244.398438 128.707031 243.429688 127.785156 242.4375 126.886719 C 241.445312 125.988281 240.433594 125.113281 239.398438 124.261719 C 238.363281 123.414062 237.308594 122.589844 236.230469 121.792969 C 235.15625 120.996094 234.0625 120.222656 232.949219 119.480469 C 231.835938 118.738281 230.707031 118.019531 229.558594 117.332031 C 228.410156 116.644531 227.242188 115.984375 226.0625 115.351562 C 224.882812 114.722656 223.6875 114.121094 222.476562 113.546875 C 221.265625 112.976562 220.042969 112.433594 218.804688 111.921875 C 217.570312 111.410156 216.320312 110.925781 215.058594 110.476562 C 213.800781 110.023438 212.527344 109.605469 211.246094 109.214844 C 209.964844 108.828125 208.675781 108.46875 207.378906 108.144531 C 206.078125 107.820312 204.773438 107.527344 203.460938 107.265625 C 202.148438 107.003906 200.828125 106.777344 199.503906 106.578125 C 198.179688 106.382812 196.851562 106.21875 195.519531 106.085938 C 194.1875 105.957031 192.851562 105.859375 191.515625 105.792969 C 190.175781 105.726562 188.839844 105.695312 187.5 105.695312 Z M 187.5 105.695312"/></svg>