<svg xmlns="http://www.w3.org/2000/svg" xmlns:xlink="http://www.w3.org/1999/xlink" width="375" viewBox="0 0 375 375" height="375" version="1.0"><defs><clipPath id="a"><path d="M 7 7 L 368 7 L 368 368 L 7 368 Z M 7 7"/></clipPath><clipPath id="b"><path d="M 59.882812 7.527344 L 315.117188 7.527344 C 316.832031 7.527344 318.542969 7.609375 320.25 7.777344 C 321.957031 7.945312 323.648438 8.199219 325.332031 8.53125 C 327.015625 8.867188 328.675781 9.28125 330.316406 9.78125 C 331.957031 10.277344 333.570312 10.855469 335.152344 11.511719 C 336.738281 12.167969 338.285156 12.898438 339.796875 13.707031 C 341.308594 14.515625 342.78125 15.398438 344.207031 16.351562 C 345.632812 17.300781 347.007812 18.324219 348.332031 19.410156 C 349.65625 20.5 350.925781 21.648438 352.140625 22.859375 C 353.351562 24.074219 354.5 25.34375 355.589844 26.667969 C 356.675781 27.992188 357.699219 29.367188 358.648438 30.792969 C 359.601562 32.21875 360.484375 33.691406 361.292969 35.203125 C 362.101562 36.714844 362.832031 38.261719 363.488281 39.847656 C 364.144531 41.429688 364.722656 43.042969 365.21875 44.683594 C 365.71875 46.324219 366.132812 47.984375 366.46875 49.667969 C 366.800781 51.351562 367.054688 53.042969 367.222656 54.75 C 367.390625 56.457031 367.472656 58.167969 367.472656 59.882812 L 367.472656 315.117188 C 367.472656 316.832031 367.390625 318.542969 367.222656 320.25 C 367.054688 321.957031 366.800781 323.648438 366.46875 325.332031 C 366.132812 327.015625 365.71875 328.675781 365.21875 330.316406 C 364.722656 331.957031 364.144531 333.570312 363.488281 335.152344 C 362.832031 336.738281 362.101562 338.285156 361.292969 339.796875 C 360.484375 341.308594 359.601562 342.78125 358.648438 344.207031 C 357.699219 345.632812 356.675781 347.007812 355.589844 348.332031 C 354.5 349.65625 353.351562 350.925781 352.140625 352.140625 C 350.925781 353.351562 349.65625 354.5 348.332031 355.589844 C 347.007812 356.675781 345.632812 357.699219 344.207031 358.648438 C 342.78125 359.601562 341.308594 360.484375 339.796875 361.292969 C 338.285156 362.101562 336.738281 362.832031 335.152344 363.488281 C 333.570312 364.144531 331.957031 364.722656 330.316406 365.21875 C 328.675781 365.71875 327.015625 366.132812 325.332031 366.46875 C 323.648438 366.800781 321.957031 367.054688 320.25 367.222656 C 318.542969 367.390625 316.832031 367.472656 315.117188 367.472656 L 59.882812 367.472656 C 58.167969 367.472656 56.457031 367.390625 54.75 367.222656 C 53.042969 367.054688 51.351562 366.800781 49.667969 366.46875 C 47.984375 366.132812 46.324219 365.71875 44.683594 365.21875 C 43.042969 364.722656 41.429688 364.144531 39.847656 363.488281 C 38.261719 362.832031 36.714844 362.101562 35.203125 361.292969 C 33.691406 360.484375 32.21875 359.601562 30.792969 358.648438 C 29.367188 357.699219 27.992188 356.675781 26.667969 355.589844 C 25.34375 354.5 24.074219 353.351562 22.859375 352.140625 C 21.648438 350.925781 20.5 349.65625 19.410156 348.332031 C 18.324219 347.007812 17.300781 345.632812 16.351562 344.207031 C 15.398438 342.78125 14.515625 341.308594 13.707031 339.796875 C 12.898438 338.285156 12.167969 336.738281 11.511719 335.152344 C 10.855469 333.570312 10.277344 331.957031 9.78125 330.316406 C 9.28125 328.675781 8.867188 327.015625 8.53125 325.332031 C 8.199219 323.648438 7.945312 321.957031 7.777344 320.25 C 7.609375 318.542969 7.527344 316.832031 7.527344 315.117188 L 7.527344 59.882812 C 7.527344 58.167969 7.609375 56.457031 7.777344 54.75 C 7.945312 53.042969 8.199219 51.351562 8.53125 49.667969 C 8.867188 47.984375 9.28125 46.324219 9.78125 44.683594 C 10.277344 43.042969 10.855469 41.429688 11.511719 39.847656 C 12.167969 38.261719 12.898438 36.714844 13.707031 35.203125 C 14.515625 33.691406 15.398438 32.21875 16.351562 30.792969 C 17.300781 29.367188 18.324219 27.992188 19.410156 26.667969 C 20.5 25.34375 21.648438 24.074219 22.859375 22.859375 C 24.074219 21.648438 25.34375 20.5 26.667969 19.410156 C 27.992188 18.324219 29.367188 17.300781 30.792969 16.351562 C 32.21875 15.398438 33.691406 14.515625 35.203125 13.707031 C 36.714844 12.898438 38.261719 12.167969 39.847656 11.511719 C 41.429688 10.855469 43.042969 10.277344 44.683594 9.78125 C 46.324219 9.28125 47.984375 8.867188 49.667969 8.53125 C 51.351562 8.199219 53.042969 7.945312 54.75 7.777344 C 56.457031 7.609375 58.167969 7.527344 59.882812 7.527344 Z M 59.882812 7.527344"/></clipPath><clipPath id="d"><path d="M 30 29 L 345 29 L 345 344 L 30 344 Z M 30 29"/></clipPath><clipPath id="e"><path d="M 63.15625 29.121094 L 311.84375 29.121094 C 312.917969 29.121094 313.988281 29.175781 315.054688 29.28125 C 316.121094 29.386719 317.179688 29.542969 318.230469 29.75 C 319.28125 29.960938 320.320312 30.222656 321.34375 30.53125 C 322.371094 30.84375 323.378906 31.203125 324.367188 31.613281 C 325.359375 32.023438 326.324219 32.480469 327.269531 32.988281 C 328.214844 33.492188 329.132812 34.042969 330.023438 34.636719 C 330.917969 35.234375 331.777344 35.871094 332.605469 36.550781 C 333.433594 37.230469 334.226562 37.949219 334.984375 38.707031 C 335.742188 39.464844 336.460938 40.257812 337.140625 41.085938 C 337.820312 41.914062 338.457031 42.773438 339.054688 43.664062 C 339.648438 44.558594 340.199219 45.476562 340.703125 46.421875 C 341.210938 47.367188 341.667969 48.332031 342.078125 49.324219 C 342.488281 50.3125 342.847656 51.320312 343.160156 52.347656 C 343.46875 53.371094 343.730469 54.410156 343.9375 55.460938 C 344.148438 56.511719 344.304688 57.570312 344.410156 58.636719 C 344.515625 59.703125 344.566406 60.773438 344.566406 61.84375 L 344.566406 310.535156 C 344.566406 311.609375 344.515625 312.675781 344.410156 313.742188 C 344.304688 314.8125 344.148438 315.871094 343.9375 316.921875 C 343.730469 317.972656 343.46875 319.011719 343.160156 320.035156 C 342.847656 321.0625 342.488281 322.070312 342.078125 323.058594 C 341.667969 324.050781 341.210938 325.015625 340.703125 325.960938 C 340.199219 326.90625 339.648438 327.824219 339.054688 328.714844 C 338.457031 329.605469 337.820312 330.46875 337.140625 331.296875 C 336.460938 332.125 335.742188 332.917969 334.984375 333.675781 C 334.226562 334.433594 333.433594 335.152344 332.605469 335.832031 C 331.777344 336.511719 330.917969 337.148438 330.023438 337.746094 C 329.132812 338.339844 328.214844 338.890625 327.269531 339.394531 C 326.324219 339.902344 325.359375 340.359375 324.367188 340.769531 C 323.378906 341.179688 322.371094 341.539062 321.34375 341.851562 C 320.320312 342.160156 319.28125 342.421875 318.230469 342.628906 C 317.179688 342.839844 316.121094 342.996094 315.054688 343.101562 C 313.988281 343.207031 312.917969 343.257812 311.84375 343.257812 L 63.15625 343.257812 C 62.082031 343.257812 61.011719 343.207031 59.945312 343.101562 C 58.878906 342.996094 57.820312 342.839844 56.769531 342.628906 C 55.71875 342.421875 54.679688 342.160156 53.65625 341.851562 C 52.628906 341.539062 51.621094 341.179688 50.632812 340.769531 C 49.640625 340.359375 48.675781 339.902344 47.730469 339.394531 C 46.785156 338.890625 45.867188 338.339844 44.976562 337.746094 C 44.082031 337.148438 43.222656 336.511719 42.394531 335.832031 C 41.566406 335.152344 40.773438 334.433594 40.015625 333.675781 C 39.257812 332.917969 38.539062 332.125 37.859375 331.296875 C 37.179688 330.46875 36.542969 329.605469 35.945312 328.714844 C 35.351562 327.824219 34.800781 326.90625 34.296875 325.960938 C 33.789062 325.015625 33.332031 324.050781 32.921875 323.058594 C 32.511719 322.070312 32.152344 321.0625 31.839844 320.035156 C 31.53125 319.011719 31.269531 317.972656 31.0625 316.921875 C 30.851562 315.871094 30.695312 314.8125 30.589844 313.742188 C 30.484375 312.675781 30.433594 311.609375 30.433594 310.535156 L 30.433594 61.84375 C 30.433594 60.773438 30.484375 59.703125 30.589844 58.636719 C 30.695312 57.570312 30.851562 56.511719 31.0625 55.460938 C 31.269531 54.410156 31.53125 53.371094 31.839844 52.347656 C 32.152344 51.320312 32.511719 50.3125 32.921875 49.324219 C 33.332031 48.332031 33.789062 47.367188 34.296875 46.421875 C 34.800781 45.476562 35.351562 44.558594 35.945312 43.664062 C 36.542969 42.773438 37.179688 41.914062 37.859375 41.085938 C 38.539062 40.257812 39.257812 39.464844 40.015625 38.707031 C 40.773438 37.949219 41.566406 37.230469 42.394531 36.550781 C 43.222656 35.871094 44.082031 35.234375 44.976562 34.636719 C 45.867188 34.042969 46.785156 33.492188 47.730469 32.988281 C 48.675781 32.480469 49.640625 32.023438 50.632812 31.613281 C 51.621094 31.203125 52.628906 30.84375 53.65625 30.53125 C 54.679688 30.222656 55.71875 29.960938 56.769531 29.75 C 57.820312 29.542969 58.878906 29.386719 59.945312 29.28125 C 61.011719 29.175781 62.082031 29.121094 63.15625 29.121094 Z M 63.15625 29.121094"/></clipPath><linearGradient x1="286.5" gradientTransform="scale(.65445)" y1="11.5" x2="286.5" gradientUnits="userSpaceOnUse" y2="561.5" xlink:type="simple" xlink:actuate="onLoad" id="c" xlink:show="other"><stop stop-color="#A7A9AC" offset="0"/><stop stop-color="#A8AAAD" offset=".004"/><stop stop-color="#A9ABAE" offset=".008"/><stop stop-color="#A9ABAE" offset=".012"/><stop stop-color="#AAACAF" offset=".016"/><stop stop-color="#ABADB0" offset=".02"/><stop stop-color="#ACAEB1" offset=".023"/><stop stop-color="#ACAEB1" offset=".027"/><stop stop-color="#ADAFB2" offset=".031"/><stop stop-color="#AEB0B3" offset=".035"/><stop stop-color="#AFB1B4" offset=".039"/><stop stop-color="#AFB1B4" offset=".043"/><stop stop-color="#B0B2B5" offset=".047"/><stop stop-color="#B1B3B6" offset=".051"/><stop stop-color="#B2B3B6" offset=".055"/><stop stop-color="#B2B4B7" offset=".059"/><stop stop-color="#B3B5B8" offset=".063"/><stop stop-color="#B4B6B8" offset=".066"/><stop stop-color="#B4B6B9" offset=".07"/><stop stop-color="#B5B7BA" offset=".074"/><stop stop-color="#B6B8BA" offset=".078"/><stop stop-color="#B7B8BB" offset=".082"/><stop stop-color="#B7B9BC" offset=".086"/><stop stop-color="#B8BABC" offset=".09"/><stop stop-color="#B9BBBD" offset=".094"/><stop stop-color="#BABBBE" offset=".098"/><stop stop-color="#BABCBF" offset=".102"/><stop stop-color="#BBBDBF" offset=".105"/><stop stop-color="#BCBDC0" offset=".109"/><stop stop-color="#BDBEC1" offset=".113"/><stop stop-color="#BDBFC1" offset=".117"/><stop stop-color="#BEBFC2" offset=".121"/><stop stop-color="#BFC0C3" offset=".125"/><stop stop-color="#BFC1C3" offset=".129"/><stop stop-color="#C0C2C4" offset=".133"/><stop stop-color="#C1C2C5" offset=".137"/><stop stop-color="#C2C3C5" offset=".141"/><stop stop-color="#C2C4C6" offset=".145"/><stop stop-color="#C3C4C7" offset=".148"/><stop stop-color="#C4C5C7" offset=".152"/><stop stop-color="#C5C6C8" offset=".156"/><stop stop-color="#C5C7C9" offset=".16"/><stop stop-color="#C6C7C9" offset=".164"/><stop stop-color="#C7C8CA" offset=".168"/><stop stop-color="#C8C9CB" offset=".172"/><stop stop-color="#C8C9CC" offset=".176"/><stop stop-color="#C9CACC" offset=".18"/><stop stop-color="#CACBCD" offset=".184"/><stop stop-color="#CBCCCE" offset=".188"/><stop stop-color="#CBCCCE" offset=".191"/><stop stop-color="#CCCDCF" offset=".195"/><stop stop-color="#CCCDCF" offset=".199"/><stop stop-color="#CDCED0" offset=".203"/><stop stop-color="#CDCED0" offset=".207"/><stop stop-color="#CECFD1" offset=".211"/><stop stop-color="#CECFD1" offset=".215"/><stop stop-color="#CFD0D2" offset=".219"/><stop stop-color="#CFD0D2" offset=".223"/><stop stop-color="#D0D1D3" offset=".227"/><stop stop-color="#D0D1D3" offset=".23"/><stop stop-color="#D1D2D4" offset=".234"/><stop stop-color="#D1D3D4" offset=".238"/><stop stop-color="#D2D3D5" offset=".242"/><stop stop-color="#D3D4D5" offset=".246"/><stop stop-color="#D3D4D6" offset=".25"/><stop stop-color="#D4D5D6" offset=".254"/><stop stop-color="#D4D5D7" offset=".258"/><stop stop-color="#D5D6D7" offset=".262"/><stop stop-color="#D5D6D8" offset=".266"/><stop stop-color="#D6D7D8" offset=".27"/><stop stop-color="#D6D7D9" offset=".273"/><stop stop-color="#D7D8D9" offset=".277"/><stop stop-color="#D7D8DA" offset=".281"/><stop stop-color="#D8D9DA" offset=".285"/><stop stop-color="#D8D9DB" offset=".289"/><stop stop-color="#D9DADB" offset=".293"/><stop stop-color="#D9DADC" offset=".297"/><stop stop-color="#DADBDC" offset=".301"/><stop stop-color="#DADBDD" offset=".305"/><stop stop-color="#DBDCDD" offset=".309"/><stop stop-color="#DCDDDE" offset=".313"/><stop stop-color="#DCDDDE" offset=".316"/><stop stop-color="#DDDEDF" offset=".32"/><stop stop-color="#DDDEDF" offset=".324"/><stop stop-color="#DEDFE0" offset=".328"/><stop stop-color="#DEDFE0" offset=".332"/><stop stop-color="#DFE0E1" offset=".336"/><stop stop-color="#DFE0E1" offset=".34"/><stop stop-color="#E0E1E2" offset=".344"/><stop stop-color="#E0E1E2" offset=".348"/><stop stop-color="#E1E2E3" offset=".352"/><stop stop-color="#E1E2E3" offset=".355"/><stop stop-color="#E2E3E4" offset=".359"/><stop stop-color="#E2E3E4" offset=".367"/><stop stop-color="#E3E4E5" offset=".375"/><stop stop-color="#E4E5E6" offset=".383"/><stop stop-color="#E4E5E6" offset=".391"/><stop stop-color="#E5E6E7" offset=".398"/><stop stop-color="#E6E7E8" offset=".406"/><stop stop-color="#E6E7E8" offset=".414"/><stop stop-color="#E7E8E9" offset=".422"/><stop stop-color="#E8E9E9" offset=".43"/><stop stop-color="#E8EAEA" offset=".438"/><stop stop-color="#E9EAEB" offset=".445"/><stop stop-color="#EAEBEB" offset=".453"/><stop stop-color="#EBECEC" offset=".461"/><stop stop-color="#EBECED" offset=".469"/><stop stop-color="#ECEDED" offset=".477"/><stop stop-color="#EDEEEE" offset=".484"/><stop stop-color="#EDEEEF" offset=".492"/><stop stop-color="#EEEFEF" offset=".5"/><stop stop-color="#EFF0F0" offset=".508"/><stop stop-color="#EFF0F1" offset=".516"/><stop stop-color="#F0F1F1" offset=".523"/><stop stop-color="#F1F2F2" offset=".531"/><stop stop-color="#F2F3F3" offset=".539"/><stop stop-color="#F2F3F3" offset=".547"/><stop stop-color="#F3F4F4" offset=".563"/><stop stop-color="#F3F4F4" offset=".578"/><stop stop-color="#F4F5F5" offset=".594"/><stop stop-color="#F5F6F6" offset=".609"/><stop stop-color="#F6F6F6" offset=".625"/><stop stop-color="#F7F7F7" offset=".641"/><stop stop-color="#F7F8F8" offset=".656"/><stop stop-color="#F8F9F9" offset=".672"/><stop stop-color="#F9F9F9" offset=".688"/><stop stop-color="#FAFAFA" offset=".703"/><stop stop-color="#FAFBFB" offset=".719"/><stop stop-color="#FBFBFB" offset=".734"/><stop stop-color="#FCFCFC" offset=".75"/><stop stop-color="#FCFCFC" offset=".813"/><stop stop-color="#FDFDFD" offset=".875"/><stop stop-color="#FEFEFE" offset=".938"/><stop stop-color="#FFF" offset="1"/></linearGradient><linearGradient x1="286.5" gradientTransform="scale(.65445)" y1="44.5" x2="286.5" gradientUnits="userSpaceOnUse" y2="524.5" xlink:type="simple" xlink:actuate="onLoad" id="f" xlink:show="other"><stop stop-color="#FFF" offset="0"/><stop stop-color="#FFF" offset=".063"/><stop stop-color="#FEFEFE" offset=".125"/><stop stop-color="#FDFDFD" offset=".188"/><stop stop-color="#FDFDFD" offset=".25"/><stop stop-color="#FCFCFC" offset=".313"/><stop stop-color="#FBFBFB" offset=".328"/><stop stop-color="#FBFBFB" offset=".344"/><stop stop-color="#FAFAFA" offset=".359"/><stop stop-color="#FAFAFA" offset=".375"/><stop stop-color="#F9F9F9" offset=".391"/><stop stop-color="#F8F8F8" offset=".406"/><stop stop-color="#F8F8F8" offset=".422"/><stop stop-color="#F7F7F7" offset=".438"/><stop stop-color="#F6F6F6" offset=".453"/><stop stop-color="#F6F6F6" offset=".469"/><stop stop-color="#F5F5F5" offset=".484"/><stop stop-color="#F4F4F4" offset=".5"/><stop stop-color="#F4F4F4" offset=".516"/><stop stop-color="#F3F3F3" offset=".523"/><stop stop-color="#F2F2F2" offset=".531"/><stop stop-color="#F2F2F2" offset=".539"/><stop stop-color="#F1F1F1" offset=".547"/><stop stop-color="#F0F0F0" offset=".555"/><stop stop-color="#F0F0F0" offset=".563"/><stop stop-color="#EFEFEF" offset=".57"/><stop stop-color="#EEE" offset=".578"/><stop stop-color="#EEE" offset=".586"/><stop stop-color="#EDEDED" offset=".594"/><stop stop-color="#ECECEC" offset=".602"/><stop stop-color="#EBEBEB" offset=".609"/><stop stop-color="#EBEBEB" offset=".617"/><stop stop-color="#EAEAEA" offset=".625"/><stop stop-color="#E9E9E9" offset=".633"/><stop stop-color="#E9E9E9" offset=".641"/><stop stop-color="#E8E8E8" offset=".648"/><stop stop-color="#E7E7E7" offset=".656"/><stop stop-color="#E7E7E7" offset=".664"/><stop stop-color="#E6E6E6" offset=".672"/><stop stop-color="#E5E5E5" offset=".68"/><stop stop-color="#E5E5E5" offset=".688"/><stop stop-color="#E4E4E4" offset=".695"/><stop stop-color="#E3E3E3" offset=".699"/><stop stop-color="#E2E2E2" offset=".703"/><stop stop-color="#E2E2E2" offset=".707"/><stop stop-color="#E1E1E1" offset=".711"/><stop stop-color="#E1E1E1" offset=".715"/><stop stop-color="#E0E0E0" offset=".719"/><stop stop-color="#E0E0E0" offset=".723"/><stop stop-color="#DFDFDF" offset=".727"/><stop stop-color="#DFDFDF" offset=".73"/><stop stop-color="#DEDEDE" offset=".734"/><stop stop-color="#DEDEDE" offset=".738"/><stop stop-color="#DDD" offset=".742"/><stop stop-color="#DDD" offset=".746"/><stop stop-color="#DCDCDC" offset=".75"/><stop stop-color="#DCDCDC" offset=".754"/><stop stop-color="#DBDBDB" offset=".758"/><stop stop-color="#DBDBDB" offset=".762"/><stop stop-color="#DADADA" offset=".766"/><stop stop-color="#DADADA" offset=".77"/><stop stop-color="#D9D9D9" offset=".773"/><stop stop-color="#D9D9D9" offset=".777"/><stop stop-color="#D8D8D8" offset=".781"/><stop stop-color="#D8D8D8" offset=".785"/><stop stop-color="#D7D7D7" offset=".789"/><stop stop-color="#D7D7D7" offset=".793"/><stop stop-color="#D6D6D6" offset=".797"/><stop stop-color="#D5D5D5" offset=".801"/><stop stop-color="#D5D5D5" offset=".805"/><stop stop-color="#D4D4D4" offset=".809"/><stop stop-color="#D4D4D4" offset=".813"/><stop stop-color="#D3D3D3" offset=".816"/><stop stop-color="#D3D3D3" offset=".82"/><stop stop-color="#D2D2D2" offset=".824"/><stop stop-color="#D2D2D2" offset=".828"/><stop stop-color="#D1D1D1" offset=".832"/><stop stop-color="#D1D1D1" offset=".836"/><stop stop-color="#D0D0D0" offset=".84"/><stop stop-color="#D0D0D0" offset=".844"/><stop stop-color="#CFCFCF" offset=".848"/><stop stop-color="#CFCFCF" offset=".852"/><stop stop-color="#CECECE" offset=".855"/><stop stop-color="#CDCDCD" offset=".859"/><stop stop-color="#CCC" offset=".863"/><stop stop-color="#CCC" offset=".867"/><stop stop-color="#CBCBCB" offset=".871"/><stop stop-color="#CACACA" offset=".875"/><stop stop-color="#C9C9C9" offset=".879"/><stop stop-color="#C9C9C9" offset=".883"/><stop stop-color="#C8C8C8" offset=".887"/><stop stop-color="#C7C7C7" offset=".891"/><stop stop-color="#C6C6C6" offset=".895"/><stop stop-color="#C6C6C6" offset=".898"/><stop stop-color="#C5C5C5" offset=".902"/><stop stop-color="#C4C4C4" offset=".906"/><stop stop-color="#C3C3C3" offset=".91"/><stop stop-color="#C3C3C3" offset=".914"/><stop stop-color="#C2C2C2" offset=".918"/><stop stop-color="#C1C1C1" offset=".922"/><stop stop-color="#C0C0C0" offset=".926"/><stop stop-color="#C0C0C0" offset=".93"/><stop stop-color="#BFBFBF" offset=".934"/><stop stop-color="#BEBEBE" offset=".938"/><stop stop-color="#BDBDBD" offset=".941"/><stop stop-color="#BDBDBD" offset=".945"/><stop stop-color="#BCBCBC" offset=".949"/><stop stop-color="#BBB" offset=".953"/><stop stop-color="#BABABA" offset=".957"/><stop stop-color="#BABABA" offset=".961"/><stop stop-color="#B9B9B9" offset=".965"/><stop stop-color="#B8B8B8" offset=".969"/><stop stop-color="#B7B7B7" offset=".973"/><stop stop-color="#B7B7B7" offset=".977"/><stop stop-color="#B6B6B6" offset=".98"/><stop stop-color="#B5B5B5" offset=".984"/><stop stop-color="#B4B4B4" offset=".988"/><stop stop-color="#B4B4B4" offset=".992"/><stop stop-color="#B3B3B3" offset="1"/></linearGradient></defs><g clip-path="url(#a)"><g clip-path="url(#b)"><path fill="url(#c)" d="M 7.527344 7.527344 L 7.527344 367.472656 L 367.472656 367.472656 L 367.472656 7.527344 Z M 7.527344 7.527344"/></g></g><path transform="scale(.65445)" fill="none" d="M 91.50093 11.501781 L 481.49905 11.501781 C 484.119332 11.501781 486.733644 11.627125 489.341988 11.883781 C 491.950331 12.140437 494.5348 12.528406 497.107331 13.03575 C 499.679863 13.549062 502.216581 14.18175 504.723456 14.94575 C 507.230331 15.703781 509.695425 16.587156 512.112769 17.589906 C 514.536081 18.592656 516.899706 19.708812 519.209612 20.944344 C 521.519519 22.179875 523.769737 23.528812 525.948331 24.985187 C 528.126925 26.435593 530.227925 27.999406 532.251331 29.658718 C 534.274737 31.324 536.214581 33.078812 538.070862 34.929125 C 539.921175 36.785406 541.675987 38.72525 543.341268 40.748656 C 545.000581 42.772062 546.564393 44.873062 548.0148 47.051656 C 549.471175 49.230249 550.820112 51.480468 552.055643 53.790374 C 553.291174 56.100281 554.407331 58.463906 555.410081 60.887218 C 556.412831 63.304562 557.296206 65.769656 558.054237 68.27653 C 558.818237 70.783405 559.450924 73.320124 559.964237 75.892655 C 560.471581 78.465187 560.859549 81.049655 561.116206 83.657999 C 561.372862 86.266343 561.498206 88.880655 561.498206 91.500936 L 561.498206 481.499057 C 561.498206 484.119338 561.372862 486.733651 561.116206 489.341995 C 560.859549 491.950338 560.471581 494.534807 559.964237 497.107338 C 559.450924 499.679869 558.818237 502.216588 558.054237 504.723463 C 557.296206 507.230338 556.412831 509.695432 555.410081 512.112776 C 554.407331 514.536088 553.291174 516.899713 552.055643 519.209619 C 550.820112 521.519525 549.471175 523.769744 548.0148 525.948338 C 546.564393 528.126932 545.000581 530.227932 543.341268 532.251338 C 541.675987 534.274744 539.921175 536.214588 538.070862 538.070869 C 536.214581 539.921182 534.274737 541.675994 532.251331 543.341275 C 530.227925 545.000588 528.126925 546.5644 525.948331 548.014806 C 523.769737 549.471181 521.519519 550.820119 519.209612 552.05565 C 516.899706 553.291181 514.536081 554.407338 512.112769 555.410088 C 509.695425 556.412838 507.230331 557.296213 504.723456 558.054244 C 502.216581 558.818244 499.679863 559.450931 497.107331 559.964244 C 494.5348 560.471588 491.950331 560.859556 489.341988 561.116213 C 486.733644 561.372869 484.119332 561.498213 481.49905 561.498213 L 91.50093 561.498213 C 88.880648 561.498213 86.266336 561.372869 83.657992 561.116213 C 81.049648 560.859556 78.46518 560.471588 75.892649 559.964244 C 73.320117 559.450931 70.783399 558.818244 68.276524 558.054244 C 65.769649 557.296213 63.304555 556.412838 60.887211 555.410088 C 58.463899 554.407338 56.100274 553.291181 53.790368 552.05565 C 51.480461 550.820119 49.230243 549.471181 47.051649 548.014806 C 44.873055 546.5644 42.772055 545.000588 40.748649 543.341275 C 38.725243 541.675994 36.785399 539.921182 34.929118 538.070869 C 33.078805 536.214588 31.323993 534.274744 29.658712 532.251338 C 27.999399 530.227932 26.435587 528.126932 24.98518 525.948338 C 23.528805 523.769744 22.179868 521.519525 20.944337 519.209619 C 19.708805 516.899713 18.592649 514.536088 17.589899 512.112776 C 16.587149 509.695432 15.703774 507.230338 14.945743 504.723463 C 14.181743 502.216588 13.549055 499.679869 13.035743 497.107338 C 12.528399 494.534807 12.14043 491.950338 11.883774 489.341995 C 11.627118 486.733651 11.501774 484.119338 11.501774 481.499057 L 11.501774 91.500936 C 11.501774 88.880655 11.627118 86.266343 11.883774 83.657999 C 12.14043 81.049655 12.528399 78.465187 13.035743 75.892655 C 13.549055 73.320124 14.181743 70.783405 14.945743 68.27653 C 15.703774 65.769656 16.587149 63.304562 17.589899 60.887218 C 18.592649 58.463906 19.708805 56.100281 20.944337 53.790374 C 22.179868 51.480468 23.528805 49.230249 24.98518 47.051656 C 26.435587 44.873062 27.999399 42.772062 29.658712 40.748656 C 31.323993 38.72525 33.078805 36.785406 34.929118 34.929125 C 36.785399 33.078812 38.725243 31.324 40.748649 29.658718 C 42.772055 27.999406 44.873055 26.435593 47.051649 24.985187 C 49.230243 23.528812 51.480461 22.179875 53.790368 20.944344 C 56.100274 19.708812 58.463899 18.592656 60.887211 17.589906 C 63.304555 16.587156 65.769649 15.703781 68.276524 14.94575 C 70.783399 14.18175 73.320117 13.549062 75.892649 13.03575 C 78.46518 12.528406 81.049648 12.140437 83.657992 11.883781 C 86.266336 11.627125 88.880648 11.501781 91.50093 11.501781 Z M 91.50093 11.501781" stroke="#808080" stroke-width="23" stroke-miterlimit="10"/><g clip-path="url(#d)"><g clip-path="url(#e)"><path fill="url(#f)" d="M 30.433594 29.121094 L 30.433594 343.257812 L 344.566406 343.257812 L 344.566406 29.121094 Z M 30.433594 29.121094"/></g></g><path transform="scale(.65445)" fill="none" d="M 64.731086 226.627466 L 510.692206 226.627466 L 510.692206 342.289902 L 64.731086 342.289902 Z M 64.731086 226.627466" stroke="#000" stroke-width="8" stroke-miterlimit="10"/><path d="M 125.445312 187.769531 C 125.445312 183.226562 125.914062 179.570312 126.851562 176.800781 C 127.617188 174.257812 129.003906 172.125 131.015625 170.394531 C 132.003906 169.621094 133.097656 169.039062 134.292969 168.652344 C 135.488281 168.265625 136.714844 168.09375 137.972656 168.140625 C 139.882812 168.097656 141.691406 168.511719 143.398438 169.386719 C 144.996094 170.246094 146.28125 171.441406 147.25 172.976562 C 148.355469 174.75 149.148438 176.652344 149.632812 178.683594 C 150.289062 181.675781 150.574219 184.707031 150.496094 187.769531 C 150.496094 192.269531 150.035156 195.90625 149.109375 198.679688 C 148.347656 201.222656 146.964844 203.363281 144.953125 205.097656 C 143.960938 205.878906 142.867188 206.464844 141.664062 206.855469 C 140.464844 207.246094 139.234375 207.417969 137.972656 207.367188 C 134.265625 207.367188 131.359375 206.039062 129.246094 203.382812 C 126.71875 200.210938 125.449219 195.007812 125.445312 187.769531 Z M 130.292969 187.769531 C 130.292969 194.070312 131.035156 198.265625 132.511719 200.359375 C 133.992188 202.453125 135.8125 203.496094 137.972656 203.488281 C 140.152344 203.488281 141.972656 202.441406 143.4375 200.347656 C 144.898438 198.253906 145.636719 194.058594 145.648438 187.769531 C 145.648438 181.4375 144.910156 177.234375 143.4375 175.164062 C 141.960938 173.089844 140.121094 172.050781 137.917969 172.042969 C 136.875 172.023438 135.890625 172.257812 134.96875 172.746094 C 134.046875 173.238281 133.304688 173.921875 132.734375 174.796875 C 131.109375 177.15625 130.292969 181.480469 130.292969 187.769531 Z M 130.292969 187.769531"/><path d="M 157.9375 201.339844 L 163.285156 201.339844 L 163.285156 206.714844 L 157.9375 206.714844 Z M 157.9375 201.339844"/><path d="M 194.992188 202.179688 L 194.992188 206.714844 L 169.601562 206.714844 C 169.566406 205.585938 169.75 204.496094 170.152344 203.441406 C 170.890625 201.558594 171.925781 199.855469 173.257812 198.332031 C 175.144531 196.210938 177.203125 194.273438 179.429688 192.511719 C 183.601562 189.09375 186.421875 186.382812 187.894531 184.378906 C 189.363281 182.375 190.097656 180.484375 190.089844 178.703125 C 190.109375 177.808594 189.941406 176.953125 189.59375 176.128906 C 189.246094 175.304688 188.742188 174.589844 188.089844 173.980469 C 187.382812 173.320312 186.574219 172.820312 185.664062 172.484375 C 184.757812 172.152344 183.820312 172.003906 182.851562 172.046875 C 181.84375 172 180.863281 172.152344 179.917969 172.507812 C 178.96875 172.867188 178.128906 173.394531 177.402344 174.097656 C 176.039062 175.457031 175.351562 177.34375 175.332031 179.757812 L 170.484375 179.253906 C 170.816406 175.640625 172.066406 172.886719 174.234375 170.988281 C 176.402344 169.089844 179.3125 168.144531 182.957031 168.148438 C 186.640625 168.148438 189.558594 169.167969 191.707031 171.210938 C 192.765625 172.1875 193.574219 173.339844 194.136719 174.664062 C 194.699219 175.988281 194.964844 177.371094 194.933594 178.808594 C 194.929688 180.386719 194.617188 181.898438 193.992188 183.34375 C 193.203125 185.078125 192.15625 186.640625 190.855469 188.035156 C 188.574219 190.445312 186.148438 192.699219 183.574219 194.789062 C 180.746094 197.164062 178.929688 198.777344 178.121094 199.628906 C 177.378906 200.410156 176.722656 201.261719 176.160156 202.179688 Z M 194.992188 202.179688"/><path d="M 224.601562 206.714844 L 239.351562 168.296875 L 244.828125 168.296875 L 260.535156 206.714844 L 254.746094 206.714844 L 250.261719 195.078125 L 234.222656 195.078125 L 230 206.714844 Z M 235.6875 190.9375 L 248.710938 190.9375 L 244.699219 180.300781 C 243.472656 177.066406 242.566406 174.410156 241.976562 172.328125 C 241.476562 174.820312 240.785156 177.261719 239.910156 179.648438 Z M 235.6875 190.9375"/><path d="M 291.261719 206.714844 L 291.261719 168.296875 L 305.660156 168.296875 C 308.09375 168.203125 310.449219 168.59375 312.722656 169.464844 C 314.492188 170.21875 315.882812 171.417969 316.890625 173.054688 C 317.882812 174.597656 318.386719 176.289062 318.398438 178.121094 C 318.40625 179.792969 317.96875 181.339844 317.085938 182.761719 C 316.085938 184.324219 314.738281 185.496094 313.050781 186.269531 C 315.226562 186.835938 317.011719 187.996094 318.410156 189.757812 C 319.039062 190.59375 319.515625 191.511719 319.839844 192.507812 C 320.160156 193.503906 320.308594 194.527344 320.289062 195.574219 C 320.300781 197.339844 319.917969 199.011719 319.144531 200.59375 C 318.492188 202.011719 317.554688 203.203125 316.328125 204.167969 C 315.050781 205.082031 313.648438 205.71875 312.121094 206.074219 C 310.082031 206.542969 308.015625 206.761719 305.921875 206.726562 Z M 296.347656 184.464844 L 304.648438 184.464844 C 306.28125 184.53125 307.898438 184.382812 309.496094 184.019531 C 310.6875 183.714844 311.660156 183.074219 312.414062 182.105469 C 313.117188 181.097656 313.445312 179.976562 313.398438 178.75 C 313.421875 177.539062 313.117188 176.417969 312.480469 175.386719 C 311.855469 174.402344 310.984375 173.746094 309.863281 173.421875 C 307.9375 172.976562 305.992188 172.796875 304.019531 172.878906 L 296.347656 172.878906 Z M 296.347656 202.207031 L 305.910156 202.207031 C 307.070312 202.234375 308.222656 202.175781 309.371094 202.023438 C 310.414062 201.859375 311.390625 201.507812 312.304688 200.976562 C 313.148438 200.4375 313.804688 199.722656 314.265625 198.835938 C 314.796875 197.824219 315.050781 196.746094 315.027344 195.601562 C 315.058594 194.238281 314.691406 192.992188 313.925781 191.863281 C 313.160156 190.773438 312.144531 190.03125 310.871094 189.640625 C 309.03125 189.140625 307.15625 188.921875 305.25 188.984375 L 296.347656 188.984375 Z M 296.347656 202.207031"/><path transform="scale(.65445)" fill="none" d="M 151.630116 309.061872 L 80.028992 309.061872" stroke="#000" stroke-width="8" stroke-miterlimit="10"/><path transform="scale(.65445)" fill="none" d="M 115.829554 309.061872 L 115.829554 254.692528" stroke="#000" stroke-width="8" stroke-miterlimit="10"/><path transform="scale(.65445)" fill="none" d="M 169.94821 337.867059 L 169.94821 225.887341" stroke="#000" stroke-width="8" stroke-miterlimit="10"/><path transform="scale(.65445)" fill="none" d="M 322.730302 338.547496 L 322.730302 226.567779" stroke="#000" stroke-width="8" stroke-miterlimit="10"/><path transform="scale(.65445)" fill="none" d="M 419.632957 337.867059 L 419.632957 225.887341" stroke="#000" stroke-width="8" stroke-miterlimit="10"/></svg>