<svg xmlns="http://www.w3.org/2000/svg" xmlns:xlink="http://www.w3.org/1999/xlink" width="375" viewBox="0 0 375 375" height="375" version="1.0"><defs><clipPath id="a"><path d="M 7 7 L 368 7 L 368 368 L 7 368 Z M 7 7"/></clipPath><clipPath id="b"><path d="M 59.882812 7.527344 L 315.117188 7.527344 C 316.832031 7.527344 318.542969 7.609375 320.25 7.777344 C 321.957031 7.945312 323.648438 8.199219 325.332031 8.53125 C 327.015625 8.867188 328.675781 9.28125 330.316406 9.78125 C 331.957031 10.277344 333.570312 10.855469 335.152344 11.511719 C 336.738281 12.167969 338.285156 12.898438 339.796875 13.707031 C 341.308594 14.515625 342.78125 15.398438 344.207031 16.351562 C 345.632812 17.300781 347.007812 18.324219 348.332031 19.410156 C 349.65625 20.5 350.925781 21.648438 352.140625 22.859375 C 353.351562 24.074219 354.5 25.34375 355.589844 26.667969 C 356.675781 27.992188 357.699219 29.367188 358.648438 30.792969 C 359.601562 32.21875 360.484375 33.691406 361.292969 35.203125 C 362.101562 36.714844 362.832031 38.261719 363.488281 39.847656 C 364.144531 41.429688 364.722656 43.042969 365.21875 44.683594 C 365.71875 46.324219 366.132812 47.984375 366.46875 49.667969 C 366.800781 51.351562 367.054688 53.042969 367.222656 54.75 C 367.390625 56.457031 367.472656 58.167969 367.472656 59.882812 L 367.472656 315.117188 C 367.472656 316.832031 367.390625 318.542969 367.222656 320.25 C 367.054688 321.957031 366.800781 323.648438 366.46875 325.332031 C 366.132812 327.015625 365.71875 328.675781 365.21875 330.316406 C 364.722656 331.957031 364.144531 333.570312 363.488281 335.152344 C 362.832031 336.738281 362.101562 338.285156 361.292969 339.796875 C 360.484375 341.308594 359.601562 342.78125 358.648438 344.207031 C 357.699219 345.632812 356.675781 347.007812 355.589844 348.332031 C 354.5 349.65625 353.351562 350.925781 352.140625 352.140625 C 350.925781 353.351562 349.65625 354.5 348.332031 355.589844 C 347.007812 356.675781 345.632812 357.699219 344.207031 358.648438 C 342.78125 359.601562 341.308594 360.484375 339.796875 361.292969 C 338.285156 362.101562 336.738281 362.832031 335.152344 363.488281 C 333.570312 364.144531 331.957031 364.722656 330.316406 365.21875 C 328.675781 365.71875 327.015625 366.132812 325.332031 366.46875 C 323.648438 366.800781 321.957031 367.054688 320.25 367.222656 C 318.542969 367.390625 316.832031 367.472656 315.117188 367.472656 L 59.882812 367.472656 C 58.167969 367.472656 56.457031 367.390625 54.75 367.222656 C 53.042969 367.054688 51.351562 366.800781 49.667969 366.46875 C 47.984375 366.132812 46.324219 365.71875 44.683594 365.21875 C 43.042969 364.722656 41.429688 364.144531 39.847656 363.488281 C 38.261719 362.832031 36.714844 362.101562 35.203125 361.292969 C 33.691406 360.484375 32.21875 359.601562 30.792969 358.648438 C 29.367188 357.699219 27.992188 356.675781 26.667969 355.589844 C 25.34375 354.5 24.074219 353.351562 22.859375 352.140625 C 21.648438 350.925781 20.5 349.65625 19.410156 348.332031 C 18.324219 347.007812 17.300781 345.632812 16.351562 344.207031 C 15.398438 342.78125 14.515625 341.308594 13.707031 339.796875 C 12.898438 338.285156 12.167969 336.738281 11.511719 335.152344 C 10.855469 333.570312 10.277344 331.957031 9.78125 330.316406 C 9.28125 328.675781 8.867188 327.015625 8.53125 325.332031 C 8.199219 323.648438 7.945312 321.957031 7.777344 320.25 C 7.609375 318.542969 7.527344 316.832031 7.527344 315.117188 L 7.527344 59.882812 C 7.527344 58.167969 7.609375 56.457031 7.777344 54.75 C 7.945312 53.042969 8.199219 51.351562 8.53125 49.667969 C 8.867188 47.984375 9.28125 46.324219 9.78125 44.683594 C 10.277344 43.042969 10.855469 41.429688 11.511719 39.847656 C 12.167969 38.261719 12.898438 36.714844 13.707031 35.203125 C 14.515625 33.691406 15.398438 32.21875 16.351562 30.792969 C 17.300781 29.367188 18.324219 27.992188 19.410156 26.667969 C 20.5 25.34375 21.648438 24.074219 22.859375 22.859375 C 24.074219 21.648438 25.34375 20.5 26.667969 19.410156 C 27.992188 18.324219 29.367188 17.300781 30.792969 16.351562 C 32.21875 15.398438 33.691406 14.515625 35.203125 13.707031 C 36.714844 12.898438 38.261719 12.167969 39.847656 11.511719 C 41.429688 10.855469 43.042969 10.277344 44.683594 9.78125 C 46.324219 9.28125 47.984375 8.867188 49.667969 8.53125 C 51.351562 8.199219 53.042969 7.945312 54.75 7.777344 C 56.457031 7.609375 58.167969 7.527344 59.882812 7.527344 Z M 59.882812 7.527344"/></clipPath><clipPath id="d"><path d="M 30 30 L 345 30 L 345 345 L 30 345 Z M 30 30"/></clipPath><clipPath id="e"><path d="M 63.15625 30.433594 L 311.84375 30.433594 C 312.917969 30.433594 313.988281 30.484375 315.054688 30.589844 C 316.121094 30.695312 317.179688 30.851562 318.230469 31.0625 C 319.28125 31.269531 320.320312 31.53125 321.34375 31.839844 C 322.371094 32.152344 323.378906 32.511719 324.367188 32.921875 C 325.359375 33.332031 326.324219 33.789062 327.269531 34.296875 C 328.214844 34.800781 329.132812 35.351562 330.023438 35.945312 C 330.917969 36.542969 331.777344 37.179688 332.605469 37.859375 C 333.433594 38.539062 334.226562 39.257812 334.984375 40.015625 C 335.742188 40.773438 336.460938 41.566406 337.140625 42.394531 C 337.820312 43.222656 338.457031 44.082031 339.054688 44.976562 C 339.648438 45.867188 340.199219 46.785156 340.703125 47.730469 C 341.210938 48.675781 341.667969 49.640625 342.078125 50.632812 C 342.488281 51.621094 342.847656 52.628906 343.160156 53.65625 C 343.46875 54.679688 343.730469 55.71875 343.9375 56.769531 C 344.148438 57.820312 344.304688 58.878906 344.410156 59.945312 C 344.515625 61.011719 344.566406 62.082031 344.566406 63.15625 L 344.566406 311.84375 C 344.566406 312.917969 344.515625 313.988281 344.410156 315.054688 C 344.304688 316.121094 344.148438 317.179688 343.9375 318.230469 C 343.730469 319.28125 343.46875 320.320312 343.160156 321.34375 C 342.847656 322.371094 342.488281 323.378906 342.078125 324.367188 C 341.667969 325.359375 341.210938 326.324219 340.703125 327.269531 C 340.199219 328.214844 339.648438 329.132812 339.054688 330.023438 C 338.457031 330.917969 337.820312 331.777344 337.140625 332.605469 C 336.460938 333.433594 335.742188 334.226562 334.984375 334.984375 C 334.226562 335.742188 333.433594 336.460938 332.605469 337.140625 C 331.777344 337.820312 330.917969 338.457031 330.023438 339.054688 C 329.132812 339.648438 328.214844 340.199219 327.269531 340.703125 C 326.324219 341.210938 325.359375 341.667969 324.367188 342.078125 C 323.378906 342.488281 322.371094 342.847656 321.34375 343.160156 C 320.320312 343.46875 319.28125 343.730469 318.230469 343.9375 C 317.179688 344.148438 316.121094 344.304688 315.054688 344.410156 C 313.988281 344.515625 312.917969 344.566406 311.84375 344.566406 L 63.15625 344.566406 C 62.082031 344.566406 61.011719 344.515625 59.945312 344.410156 C 58.878906 344.304688 57.820312 344.148438 56.769531 343.9375 C 55.71875 343.730469 54.679688 343.46875 53.65625 343.160156 C 52.628906 342.847656 51.621094 342.488281 50.632812 342.078125 C 49.640625 341.667969 48.675781 341.210938 47.730469 340.703125 C 46.785156 340.199219 45.867188 339.648438 44.976562 339.054688 C 44.082031 338.457031 43.222656 337.820312 42.394531 337.140625 C 41.566406 336.460938 40.773438 335.742188 40.015625 334.984375 C 39.257812 334.226562 38.539062 333.433594 37.859375 332.605469 C 37.179688 331.777344 36.542969 330.917969 35.945312 330.023438 C 35.351562 329.132812 34.800781 328.214844 34.296875 327.269531 C 33.789062 326.324219 33.332031 325.359375 32.921875 324.367188 C 32.511719 323.378906 32.152344 322.371094 31.839844 321.34375 C 31.53125 320.320312 31.269531 319.28125 31.0625 318.230469 C 30.851562 317.179688 30.695312 316.121094 30.589844 315.054688 C 30.484375 313.988281 30.433594 312.917969 30.433594 311.84375 L 30.433594 63.15625 C 30.433594 62.082031 30.484375 61.011719 30.589844 59.945312 C 30.695312 58.878906 30.851562 57.820312 31.0625 56.769531 C 31.269531 55.71875 31.53125 54.679688 31.839844 53.65625 C 32.152344 52.628906 32.511719 51.621094 32.921875 50.632812 C 33.332031 49.640625 33.789062 48.675781 34.296875 47.730469 C 34.800781 46.785156 35.351562 45.867188 35.945312 44.976562 C 36.542969 44.082031 37.179688 43.222656 37.859375 42.394531 C 38.539062 41.566406 39.257812 40.773438 40.015625 40.015625 C 40.773438 39.257812 41.566406 38.539062 42.394531 37.859375 C 43.222656 37.179688 44.082031 36.542969 44.976562 35.945312 C 45.867188 35.351562 46.785156 34.800781 47.730469 34.296875 C 48.675781 33.789062 49.640625 33.332031 50.632812 32.921875 C 51.621094 32.511719 52.628906 32.152344 53.65625 31.839844 C 54.679688 31.53125 55.71875 31.269531 56.769531 31.0625 C 57.820312 30.851562 58.878906 30.695312 59.945312 30.589844 C 61.011719 30.484375 62.082031 30.433594 63.15625 30.433594 Z M 63.15625 30.433594"/></clipPath><clipPath id="g"><path d="M 88 111 L 132 111 L 132 174 L 88 174 Z M 88 111"/></clipPath><clipPath id="h"><path d="M 131.675781 172.449219 C 131.679688 172.679688 131.628906 172.894531 131.523438 173.101562 C 131.363281 173.339844 131.148438 173.5 130.871094 173.578125 C 130.410156 173.734375 129.941406 173.832031 129.457031 173.867188 C 128.652344 173.941406 127.847656 173.976562 127.042969 173.964844 C 126.328125 173.972656 125.613281 173.941406 124.902344 173.867188 C 124.453125 173.824219 124.015625 173.722656 123.59375 173.558594 C 123.277344 173.433594 123.015625 173.230469 122.8125 172.957031 C 122.605469 172.664062 122.445312 172.34375 122.335938 172.003906 L 116.316406 157.394531 C 115.609375 155.734375 114.878906 154.207031 114.121094 152.8125 C 113.410156 151.476562 112.511719 150.28125 111.425781 149.222656 C 110.359375 148.195312 109.136719 147.410156 107.753906 146.871094 C 106.109375 146.273438 104.414062 145.992188 102.664062 146.035156 L 96.871094 146.035156 L 96.871094 172.449219 C 96.875 172.691406 96.800781 172.910156 96.648438 173.101562 C 96.457031 173.324219 96.222656 173.476562 95.941406 173.558594 C 95.515625 173.695312 95.078125 173.789062 94.632812 173.847656 C 93.238281 174.003906 91.84375 174.003906 90.453125 173.847656 C 90.007812 173.785156 89.570312 173.6875 89.144531 173.558594 C 88.859375 173.484375 88.625 173.332031 88.441406 173.101562 C 88.304688 172.90625 88.234375 172.6875 88.238281 172.449219 L 88.238281 114.988281 C 88.238281 113.742188 88.578125 112.871094 89.273438 112.367188 C 89.917969 111.878906 90.648438 111.628906 91.460938 111.621094 L 105.3125 111.621094 C 106.957031 111.621094 108.324219 111.667969 109.417969 111.746094 C 110.511719 111.824219 111.484375 111.910156 112.363281 112.007812 C 114.671875 112.363281 116.894531 113.019531 119.03125 113.972656 C 120.867188 114.796875 122.488281 115.933594 123.894531 117.375 C 125.203125 118.746094 126.1875 120.320312 126.839844 122.101562 C 127.519531 124.003906 127.847656 125.96875 127.820312 127.992188 C 127.847656 129.902344 127.554688 131.761719 126.945312 133.574219 C 126.375 135.191406 125.527344 136.644531 124.398438 137.9375 C 123.246094 139.238281 121.917969 140.332031 120.417969 141.210938 C 118.777344 142.1875 117.046875 142.96875 115.230469 143.558594 C 116.28125 143.996094 117.257812 144.5625 118.15625 145.261719 C 119.066406 145.988281 119.878906 146.8125 120.59375 147.734375 C 121.402344 148.777344 122.117188 149.878906 122.734375 151.039062 C 123.390625 152.285156 124.078125 153.691406 124.75 155.253906 L 130.5625 168.914062 C 131.027344 170.066406 131.328125 170.878906 131.464844 171.335938 C 131.585938 171.695312 131.652344 172.066406 131.675781 172.449219 Z M 118.632812 128.875 C 118.703125 126.644531 118.132812 124.589844 116.917969 122.714844 C 115.777344 121.03125 113.867188 119.824219 111.179688 119.097656 C 110.242188 118.855469 109.292969 118.695312 108.332031 118.613281 C 107.269531 118.519531 105.890625 118.46875 104.175781 118.46875 L 96.871094 118.46875 L 96.871094 139.371094 L 105.332031 139.371094 C 107.335938 139.410156 109.300781 139.144531 111.222656 138.578125 C 112.757812 138.125 114.144531 137.390625 115.378906 136.375 C 116.472656 135.46875 117.285156 134.355469 117.820312 133.042969 C 118.371094 131.695312 118.640625 130.296875 118.632812 128.839844 Z M 118.632812 128.875"/></clipPath><clipPath id="j"><path d="M 144 111 L 194 111 L 194 175 L 144 175 Z M 144 111"/></clipPath><clipPath id="k"><path d="M 193.214844 150.746094 C 193.273438 154.21875 192.695312 157.582031 191.480469 160.835938 C 190.386719 163.707031 188.730469 166.207031 186.519531 168.335938 C 184.246094 170.46875 181.625 172.015625 178.664062 172.984375 C 175.242188 174.097656 171.734375 174.625 168.136719 174.566406 C 164.78125 174.609375 161.507812 174.113281 158.316406 173.082031 C 155.46875 172.164062 152.933594 170.703125 150.714844 168.699219 C 148.511719 166.660156 146.882812 164.238281 145.824219 161.433594 C 144.621094 158.1875 144.050781 154.832031 144.117188 151.367188 L 144.117188 112.894531 C 144.117188 112.65625 144.183594 112.4375 144.3125 112.238281 C 144.5 112.011719 144.734375 111.863281 145.019531 111.785156 C 145.449219 111.652344 145.882812 111.558594 146.328125 111.5 C 147.03125 111.40625 147.734375 111.367188 148.441406 111.375 C 149.132812 111.371094 149.824219 111.410156 150.511719 111.5 C 150.957031 111.554688 151.390625 111.648438 151.820312 111.785156 C 152.082031 111.871094 152.300781 112.023438 152.472656 112.238281 C 152.605469 112.4375 152.671875 112.65625 152.671875 112.894531 L 152.671875 150.371094 C 152.621094 152.945312 152.992188 155.453125 153.78125 157.898438 C 154.441406 159.921875 155.507812 161.707031 156.976562 163.246094 C 158.414062 164.699219 160.09375 165.769531 162.015625 166.460938 C 164.160156 167.210938 166.367188 167.566406 168.640625 167.53125 C 170.941406 167.574219 173.179688 167.222656 175.359375 166.480469 C 177.273438 165.820312 178.933594 164.765625 180.347656 163.316406 C 181.777344 161.804688 182.816406 160.058594 183.46875 158.082031 C 184.238281 155.714844 184.601562 153.28125 184.554688 150.792969 L 184.554688 112.894531 C 184.554688 112.65625 184.621094 112.4375 184.75 112.238281 C 184.9375 112.011719 185.175781 111.863281 185.457031 111.785156 C 185.886719 111.652344 186.324219 111.558594 186.765625 111.5 C 187.460938 111.410156 188.15625 111.367188 188.855469 111.375 C 189.539062 111.367188 190.21875 111.410156 190.898438 111.5 C 191.34375 111.554688 191.777344 111.648438 192.207031 111.785156 C 192.484375 111.867188 192.71875 112.019531 192.914062 112.238281 C 193.0625 112.429688 193.136719 112.648438 193.136719 112.894531 Z M 193.214844 150.746094"/></clipPath><clipPath id="m"><path d="M 210 111 L 245 111 L 245 174 L 210 174 Z M 210 111"/></clipPath><clipPath id="n"><path d="M 244.183594 170.066406 C 244.1875 170.601562 244.15625 171.136719 244.082031 171.667969 C 244.027344 172.050781 243.917969 172.417969 243.757812 172.769531 C 243.628906 173.035156 243.445312 173.253906 243.199219 173.421875 C 242.960938 173.574219 242.703125 173.648438 242.421875 173.640625 L 213.625 173.640625 C 212.8125 173.632812 212.082031 173.382812 211.433594 172.894531 C 210.746094 172.402344 210.40625 171.53125 210.40625 170.273438 L 210.40625 112.894531 C 210.40625 112.65625 210.472656 112.4375 210.601562 112.238281 C 210.789062 112.011719 211.023438 111.863281 211.308594 111.785156 C 211.753906 111.652344 212.207031 111.554688 212.671875 111.5 C 214.054688 111.332031 215.441406 111.332031 216.824219 111.5 C 217.269531 111.558594 217.707031 111.65625 218.136719 111.785156 C 218.417969 111.859375 218.652344 112.007812 218.835938 112.238281 C 218.972656 112.433594 219.039062 112.652344 219.039062 112.894531 L 219.039062 166.558594 L 242.410156 166.558594 C 242.691406 166.550781 242.949219 166.621094 243.1875 166.773438 C 243.429688 166.945312 243.613281 167.164062 243.742188 167.429688 C 243.914062 167.769531 244.023438 168.128906 244.070312 168.507812 C 244.144531 169.023438 244.179688 169.542969 244.183594 170.066406 Z M 244.183594 170.066406"/></clipPath><clipPath id="p"><path d="M 253 111 L 291 111 L 291 174 L 253 174 Z M 253 111"/></clipPath><clipPath id="q"><path d="M 290.011719 170.253906 C 290.015625 170.761719 289.980469 171.265625 289.910156 171.765625 C 289.859375 172.148438 289.742188 172.503906 289.554688 172.839844 C 289.421875 173.109375 289.230469 173.328125 288.980469 173.496094 C 288.75 173.621094 288.507812 173.6875 288.246094 173.683594 L 256.976562 173.683594 C 256.164062 173.679688 255.433594 173.429688 254.785156 172.9375 C 254.097656 172.449219 253.75 171.578125 253.75 170.320312 L 253.75 114.988281 C 253.75 113.742188 254.097656 112.871094 254.785156 112.367188 C 255.433594 111.878906 256.164062 111.628906 256.976562 111.621094 L 287.898438 111.621094 C 288.160156 111.621094 288.402344 111.6875 288.625 111.820312 C 288.867188 111.972656 289.042969 112.179688 289.15625 112.441406 C 289.304688 112.789062 289.414062 113.148438 289.484375 113.519531 C 289.574219 114.050781 289.617188 114.585938 289.605469 115.125 C 289.613281 115.632812 289.574219 116.136719 289.484375 116.636719 C 289.417969 117 289.308594 117.351562 289.15625 117.691406 C 289.042969 117.933594 288.875 118.128906 288.644531 118.273438 C 288.417969 118.417969 288.167969 118.488281 287.898438 118.480469 L 262.414062 118.480469 L 262.414062 137.9375 L 284.265625 137.9375 C 284.535156 137.9375 284.777344 138.007812 285 138.15625 C 285.230469 138.3125 285.417969 138.511719 285.554688 138.757812 C 285.730469 139.089844 285.839844 139.4375 285.882812 139.808594 C 285.953125 140.335938 285.988281 140.863281 285.980469 141.394531 C 285.988281 141.890625 285.953125 142.386719 285.882812 142.878906 C 285.832031 143.234375 285.726562 143.570312 285.554688 143.886719 C 285.425781 144.125 285.238281 144.308594 285 144.4375 C 284.769531 144.550781 284.523438 144.605469 284.265625 144.601562 L 262.414062 144.601562 L 262.414062 166.800781 L 288.246094 166.800781 C 288.507812 166.792969 288.753906 166.859375 288.980469 166.988281 C 289.222656 167.140625 289.414062 167.335938 289.554688 167.585938 C 289.746094 167.914062 289.863281 168.269531 289.910156 168.644531 C 289.984375 169.179688 290.019531 169.714844 290.011719 170.253906 Z M 290.011719 170.253906"/></clipPath><clipPath id="s"><path d="M 137 205 L 186 205 L 186 269 L 137 269 Z M 137 205"/></clipPath><clipPath id="t"><path d="M 185.183594 225.457031 C 185.191406 225.925781 185.148438 226.386719 185.058594 226.84375 C 184.996094 227.175781 184.875 227.488281 184.707031 227.78125 C 184.570312 228.011719 184.386719 228.183594 184.148438 228.304688 C 183.945312 228.414062 183.726562 228.472656 183.496094 228.476562 L 176.871094 228.476562 L 174.863281 244.390625 L 180.699219 244.390625 C 181.25 244.394531 181.664062 244.632812 181.9375 245.109375 C 182.316406 245.847656 182.476562 246.632812 182.414062 247.460938 C 182.421875 247.929688 182.371094 248.390625 182.265625 248.847656 C 182.183594 249.171875 182.066406 249.484375 181.910156 249.785156 C 181.785156 250.011719 181.609375 250.183594 181.382812 250.308594 C 181.175781 250.414062 180.957031 250.472656 180.726562 250.476562 L 174.003906 250.476562 L 171.890625 266.871094 C 171.859375 267.082031 171.789062 267.28125 171.6875 267.46875 C 171.550781 267.671875 171.367188 267.816406 171.132812 267.898438 C 170.773438 268.035156 170.40625 268.113281 170.027344 268.140625 C 169.554688 268.1875 168.933594 268.214844 168.160156 268.214844 C 167.390625 268.214844 166.753906 268.214844 166.25 268.140625 C 165.851562 268.117188 165.464844 268.035156 165.089844 267.898438 C 164.855469 267.820312 164.671875 267.675781 164.535156 267.46875 C 164.429688 267.28125 164.398438 267.082031 164.4375 266.871094 L 166.558594 250.453125 L 152.550781 250.453125 L 150.433594 266.84375 C 150.371094 267.050781 150.296875 267.246094 150.210938 267.441406 C 150.09375 267.648438 149.925781 267.789062 149.707031 267.871094 C 149.355469 268.007812 148.992188 268.089844 148.617188 268.113281 C 148.148438 268.160156 147.527344 268.1875 146.761719 268.1875 C 145.996094 268.1875 145.292969 268.1875 144.796875 268.113281 C 144.398438 268.089844 144.011719 268.011719 143.640625 267.871094 C 143.40625 267.792969 143.222656 267.648438 143.089844 267.441406 C 142.980469 267.253906 142.945312 267.058594 142.984375 266.84375 L 145.050781 250.453125 L 139.203125 250.453125 C 138.660156 250.453125 138.25 250.222656 137.972656 249.757812 C 137.585938 249.03125 137.425781 248.253906 137.492188 247.433594 C 137.484375 246.964844 137.53125 246.5 137.644531 246.039062 C 137.722656 245.714844 137.839844 245.402344 137.996094 245.105469 C 138.117188 244.878906 138.285156 244.695312 138.5 244.554688 C 138.714844 244.425781 138.949219 244.359375 139.203125 244.363281 L 145.949219 244.363281 L 148.015625 228.449219 L 141.925781 228.449219 C 141.375 228.445312 140.960938 228.207031 140.6875 227.730469 C 140.308594 227.023438 140.152344 226.273438 140.210938 225.476562 C 140.140625 224.632812 140.300781 223.835938 140.6875 223.082031 C 140.960938 222.609375 141.375 222.367188 141.925781 222.363281 L 148.769531 222.363281 L 150.851562 206.976562 C 150.878906 206.757812 150.953125 206.558594 151.074219 206.375 C 151.234375 206.171875 151.4375 206.027344 151.683594 205.941406 C 152.066406 205.808594 152.460938 205.722656 152.867188 205.679688 C 153.5 205.609375 154.136719 205.574219 154.777344 205.582031 C 155.417969 205.574219 156.058594 205.605469 156.695312 205.679688 C 157.066406 205.722656 157.425781 205.808594 157.773438 205.941406 C 157.992188 206.023438 158.148438 206.167969 158.253906 206.375 C 158.320312 206.554688 158.351562 206.738281 158.351562 206.929688 L 156.238281 222.363281 L 170.242188 222.363281 L 172.207031 206.976562 C 172.238281 206.753906 172.320312 206.554688 172.453125 206.375 C 172.621094 206.179688 172.820312 206.035156 173.054688 205.941406 C 173.433594 205.808594 173.816406 205.71875 174.214844 205.679688 C 174.867188 205.605469 175.523438 205.574219 176.179688 205.582031 C 176.808594 205.574219 177.4375 205.605469 178.0625 205.679688 C 178.4375 205.714844 178.800781 205.804688 179.148438 205.941406 C 179.355469 206.035156 179.515625 206.179688 179.628906 206.375 C 179.707031 206.550781 179.730469 206.738281 179.699219 206.929688 L 177.683594 222.363281 L 183.476562 222.363281 C 184.03125 222.371094 184.441406 222.617188 184.710938 223.101562 C 185.089844 223.84375 185.25 224.628906 185.183594 225.457031 Z M 155.433594 228.449219 L 153.417969 244.363281 L 167.367188 244.363281 L 169.484375 228.449219 Z M 155.433594 228.449219"/></clipPath><clipPath id="v"><path d="M 195 205 L 234 205 L 234 268 L 195 268 Z M 195 205"/></clipPath><clipPath id="w"><path d="M 233.730469 264.640625 C 233.742188 265.15625 233.691406 265.667969 233.578125 266.171875 C 233.503906 266.53125 233.371094 266.867188 233.179688 267.179688 C 233.035156 267.414062 232.839844 267.597656 232.597656 267.730469 C 232.394531 267.835938 232.175781 267.894531 231.945312 267.898438 L 197.914062 267.898438 C 197.679688 267.902344 197.460938 267.84375 197.257812 267.730469 C 197.023438 267.589844 196.832031 267.40625 196.683594 267.179688 C 196.472656 266.871094 196.328125 266.535156 196.25 266.171875 C 196.140625 265.667969 196.089844 265.15625 196.097656 264.640625 C 196.09375 264.140625 196.140625 263.644531 196.25 263.15625 C 196.332031 262.792969 196.460938 262.449219 196.628906 262.121094 C 196.761719 261.867188 196.949219 261.660156 197.1875 261.5 C 197.40625 261.351562 197.648438 261.28125 197.914062 261.28125 L 211.511719 261.28125 L 211.511719 214.117188 L 198.921875 221.257812 C 198.4375 221.523438 197.921875 221.714844 197.382812 221.832031 C 197.035156 221.917969 196.726562 221.84375 196.453125 221.617188 C 196.175781 221.328125 196.015625 220.988281 195.976562 220.589844 C 195.882812 219.984375 195.839844 219.378906 195.851562 218.769531 C 195.847656 218.304688 195.871094 217.839844 195.921875 217.375 C 195.960938 217.046875 196.035156 216.730469 196.152344 216.421875 C 196.25 216.175781 196.394531 215.957031 196.578125 215.765625 C 196.800781 215.546875 197.042969 215.355469 197.308594 215.191406 L 212.316406 206.027344 C 212.472656 205.925781 212.640625 205.847656 212.820312 205.792969 C 213.070312 205.714844 213.324219 205.648438 213.578125 205.59375 C 213.929688 205.53125 214.28125 205.492188 214.632812 205.476562 C 215.039062 205.476562 215.542969 205.476562 216.144531 205.476562 C 216.820312 205.46875 217.492188 205.5 218.160156 205.570312 C 218.589844 205.609375 219.007812 205.699219 219.417969 205.832031 C 219.667969 205.90625 219.867188 206.050781 220.019531 206.261719 C 220.125 206.433594 220.175781 206.621094 220.175781 206.820312 L 220.175781 261.316406 L 231.957031 261.316406 C 232.230469 261.316406 232.484375 261.386719 232.714844 261.53125 C 232.960938 261.691406 233.152344 261.898438 233.292969 262.152344 C 233.460938 262.480469 233.578125 262.824219 233.644531 263.1875 C 233.722656 263.667969 233.75 264.152344 233.730469 264.640625 Z M 233.730469 264.640625"/></clipPath><linearGradient x1="286.5" gradientTransform="scale(.65445)" y1="11.5" x2="286.5" gradientUnits="userSpaceOnUse" y2="561.5" xlink:type="simple" xlink:actuate="onLoad" id="c" xlink:show="other"><stop stop-color="#A7A9AC" offset="0"/><stop stop-color="#A8AAAD" offset=".004"/><stop stop-color="#A9ABAE" offset=".008"/><stop stop-color="#A9ABAE" offset=".012"/><stop stop-color="#AAACAF" offset=".016"/><stop stop-color="#ABADB0" offset=".02"/><stop stop-color="#ACAEB1" offset=".023"/><stop stop-color="#ACAEB1" offset=".027"/><stop stop-color="#ADAFB2" offset=".031"/><stop stop-color="#AEB0B3" offset=".035"/><stop stop-color="#AFB1B4" offset=".039"/><stop stop-color="#AFB1B4" offset=".043"/><stop stop-color="#B0B2B5" offset=".047"/><stop stop-color="#B1B3B6" offset=".051"/><stop stop-color="#B2B3B6" offset=".055"/><stop stop-color="#B2B4B7" offset=".059"/><stop stop-color="#B3B5B8" offset=".063"/><stop stop-color="#B4B6B8" offset=".066"/><stop stop-color="#B4B6B9" offset=".07"/><stop stop-color="#B5B7BA" offset=".074"/><stop stop-color="#B6B8BA" offset=".078"/><stop stop-color="#B7B8BB" offset=".082"/><stop stop-color="#B7B9BC" offset=".086"/><stop stop-color="#B8BABC" offset=".09"/><stop stop-color="#B9BBBD" offset=".094"/><stop stop-color="#BABBBE" offset=".098"/><stop stop-color="#BABCBF" offset=".102"/><stop stop-color="#BBBDBF" offset=".105"/><stop stop-color="#BCBDC0" offset=".109"/><stop stop-color="#BDBEC1" offset=".113"/><stop stop-color="#BDBFC1" offset=".117"/><stop stop-color="#BEBFC2" offset=".121"/><stop stop-color="#BFC0C3" offset=".125"/><stop stop-color="#BFC1C3" offset=".129"/><stop stop-color="#C0C2C4" offset=".133"/><stop stop-color="#C1C2C5" offset=".137"/><stop stop-color="#C2C3C5" offset=".141"/><stop stop-color="#C2C4C6" offset=".145"/><stop stop-color="#C3C4C7" offset=".148"/><stop stop-color="#C4C5C7" offset=".152"/><stop stop-color="#C5C6C8" offset=".156"/><stop stop-color="#C5C7C9" offset=".16"/><stop stop-color="#C6C7C9" offset=".164"/><stop stop-color="#C7C8CA" offset=".168"/><stop stop-color="#C8C9CB" offset=".172"/><stop stop-color="#C8C9CC" offset=".176"/><stop stop-color="#C9CACC" offset=".18"/><stop stop-color="#CACBCD" offset=".184"/><stop stop-color="#CBCCCE" offset=".188"/><stop stop-color="#CBCCCE" offset=".191"/><stop stop-color="#CCCDCF" offset=".195"/><stop stop-color="#CCCDCF" offset=".199"/><stop stop-color="#CDCED0" offset=".203"/><stop stop-color="#CDCED0" offset=".207"/><stop stop-color="#CECFD1" offset=".211"/><stop stop-color="#CECFD1" offset=".215"/><stop stop-color="#CFD0D2" offset=".219"/><stop stop-color="#CFD0D2" offset=".223"/><stop stop-color="#D0D1D3" offset=".227"/><stop stop-color="#D0D1D3" offset=".23"/><stop stop-color="#D1D2D4" offset=".234"/><stop stop-color="#D1D3D4" offset=".238"/><stop stop-color="#D2D3D5" offset=".242"/><stop stop-color="#D3D4D5" offset=".246"/><stop stop-color="#D3D4D6" offset=".25"/><stop stop-color="#D4D5D6" offset=".254"/><stop stop-color="#D4D5D7" offset=".258"/><stop stop-color="#D5D6D7" offset=".262"/><stop stop-color="#D5D6D8" offset=".266"/><stop stop-color="#D6D7D8" offset=".27"/><stop stop-color="#D6D7D9" offset=".273"/><stop stop-color="#D7D8D9" offset=".277"/><stop stop-color="#D7D8DA" offset=".281"/><stop stop-color="#D8D9DA" offset=".285"/><stop stop-color="#D8D9DB" offset=".289"/><stop stop-color="#D9DADB" offset=".293"/><stop stop-color="#D9DADC" offset=".297"/><stop stop-color="#DADBDC" offset=".301"/><stop stop-color="#DADBDD" offset=".305"/><stop stop-color="#DBDCDD" offset=".309"/><stop stop-color="#DCDDDE" offset=".313"/><stop stop-color="#DCDDDE" offset=".316"/><stop stop-color="#DDDEDF" offset=".32"/><stop stop-color="#DDDEDF" offset=".324"/><stop stop-color="#DEDFE0" offset=".328"/><stop stop-color="#DEDFE0" offset=".332"/><stop stop-color="#DFE0E1" offset=".336"/><stop stop-color="#DFE0E1" offset=".34"/><stop stop-color="#E0E1E2" offset=".344"/><stop stop-color="#E0E1E2" offset=".348"/><stop stop-color="#E1E2E3" offset=".352"/><stop stop-color="#E1E2E3" offset=".355"/><stop stop-color="#E2E3E4" offset=".359"/><stop stop-color="#E2E3E4" offset=".367"/><stop stop-color="#E3E4E5" offset=".375"/><stop stop-color="#E4E5E6" offset=".383"/><stop stop-color="#E4E5E6" offset=".391"/><stop stop-color="#E5E6E7" offset=".398"/><stop stop-color="#E6E7E8" offset=".406"/><stop stop-color="#E6E7E8" offset=".414"/><stop stop-color="#E7E8E9" offset=".422"/><stop stop-color="#E8E9E9" offset=".43"/><stop stop-color="#E8EAEA" offset=".438"/><stop stop-color="#E9EAEB" offset=".445"/><stop stop-color="#EAEBEB" offset=".453"/><stop stop-color="#EBECEC" offset=".461"/><stop stop-color="#EBECED" offset=".469"/><stop stop-color="#ECEDED" offset=".477"/><stop stop-color="#EDEEEE" offset=".484"/><stop stop-color="#EDEEEF" offset=".492"/><stop stop-color="#EEEFEF" offset=".5"/><stop stop-color="#EFF0F0" offset=".508"/><stop stop-color="#EFF0F1" offset=".516"/><stop stop-color="#F0F1F1" offset=".523"/><stop stop-color="#F1F2F2" offset=".531"/><stop stop-color="#F2F3F3" offset=".539"/><stop stop-color="#F2F3F3" offset=".547"/><stop stop-color="#F3F4F4" offset=".563"/><stop stop-color="#F3F4F4" offset=".578"/><stop stop-color="#F4F5F5" offset=".594"/><stop stop-color="#F5F6F6" offset=".609"/><stop stop-color="#F6F6F6" offset=".625"/><stop stop-color="#F7F7F7" offset=".641"/><stop stop-color="#F7F8F8" offset=".656"/><stop stop-color="#F8F9F9" offset=".672"/><stop stop-color="#F9F9F9" offset=".688"/><stop stop-color="#FAFAFA" offset=".703"/><stop stop-color="#FAFBFB" offset=".719"/><stop stop-color="#FBFBFB" offset=".734"/><stop stop-color="#FCFCFC" offset=".75"/><stop stop-color="#FCFCFC" offset=".813"/><stop stop-color="#FDFDFD" offset=".875"/><stop stop-color="#FEFEFE" offset=".938"/><stop stop-color="#FFF" offset="1"/></linearGradient><linearGradient x1="286.5" gradientTransform="scale(.65445)" y1="46.5" x2="286.5" gradientUnits="userSpaceOnUse" y2="526.5" xlink:type="simple" xlink:actuate="onLoad" id="f" xlink:show="other"><stop stop-color="#FFF" offset="0"/><stop stop-color="#FFF" offset=".063"/><stop stop-color="#FEFEFE" offset=".125"/><stop stop-color="#FDFDFD" offset=".188"/><stop stop-color="#FDFDFD" offset=".25"/><stop stop-color="#FCFCFC" offset=".313"/><stop stop-color="#FBFBFB" offset=".328"/><stop stop-color="#FBFBFB" offset=".344"/><stop stop-color="#FAFAFA" offset=".359"/><stop stop-color="#FAFAFA" offset=".375"/><stop stop-color="#F9F9F9" offset=".391"/><stop stop-color="#F8F8F8" offset=".406"/><stop stop-color="#F8F8F8" offset=".422"/><stop stop-color="#F7F7F7" offset=".438"/><stop stop-color="#F6F6F6" offset=".453"/><stop stop-color="#F6F6F6" offset=".469"/><stop stop-color="#F5F5F5" offset=".484"/><stop stop-color="#F4F4F4" offset=".5"/><stop stop-color="#F4F4F4" offset=".516"/><stop stop-color="#F3F3F3" offset=".523"/><stop stop-color="#F2F2F2" offset=".531"/><stop stop-color="#F2F2F2" offset=".539"/><stop stop-color="#F1F1F1" offset=".547"/><stop stop-color="#F0F0F0" offset=".555"/><stop stop-color="#F0F0F0" offset=".563"/><stop stop-color="#EFEFEF" offset=".57"/><stop stop-color="#EEE" offset=".578"/><stop stop-color="#EEE" offset=".586"/><stop stop-color="#EDEDED" offset=".594"/><stop stop-color="#ECECEC" offset=".602"/><stop stop-color="#EBEBEB" offset=".609"/><stop stop-color="#EBEBEB" offset=".617"/><stop stop-color="#EAEAEA" offset=".625"/><stop stop-color="#E9E9E9" offset=".633"/><stop stop-color="#E9E9E9" offset=".641"/><stop stop-color="#E8E8E8" offset=".648"/><stop stop-color="#E7E7E7" offset=".656"/><stop stop-color="#E7E7E7" offset=".664"/><stop stop-color="#E6E6E6" offset=".672"/><stop stop-color="#E5E5E5" offset=".68"/><stop stop-color="#E5E5E5" offset=".688"/><stop stop-color="#E4E4E4" offset=".695"/><stop stop-color="#E3E3E3" offset=".699"/><stop stop-color="#E2E2E2" offset=".703"/><stop stop-color="#E2E2E2" offset=".707"/><stop stop-color="#E1E1E1" offset=".711"/><stop stop-color="#E1E1E1" offset=".715"/><stop stop-color="#E0E0E0" offset=".719"/><stop stop-color="#E0E0E0" offset=".723"/><stop stop-color="#DFDFDF" offset=".727"/><stop stop-color="#DFDFDF" offset=".73"/><stop stop-color="#DEDEDE" offset=".734"/><stop stop-color="#DEDEDE" offset=".738"/><stop stop-color="#DDD" offset=".742"/><stop stop-color="#DDD" offset=".746"/><stop stop-color="#DCDCDC" offset=".75"/><stop stop-color="#DCDCDC" offset=".754"/><stop stop-color="#DBDBDB" offset=".758"/><stop stop-color="#DBDBDB" offset=".762"/><stop stop-color="#DADADA" offset=".766"/><stop stop-color="#DADADA" offset=".77"/><stop stop-color="#D9D9D9" offset=".773"/><stop stop-color="#D9D9D9" offset=".777"/><stop stop-color="#D8D8D8" offset=".781"/><stop stop-color="#D8D8D8" offset=".785"/><stop stop-color="#D7D7D7" offset=".789"/><stop stop-color="#D7D7D7" offset=".793"/><stop stop-color="#D6D6D6" offset=".797"/><stop stop-color="#D5D5D5" offset=".801"/><stop stop-color="#D5D5D5" offset=".805"/><stop stop-color="#D4D4D4" offset=".809"/><stop stop-color="#D4D4D4" offset=".813"/><stop stop-color="#D3D3D3" offset=".816"/><stop stop-color="#D3D3D3" offset=".82"/><stop stop-color="#D2D2D2" offset=".824"/><stop stop-color="#D2D2D2" offset=".828"/><stop stop-color="#D1D1D1" offset=".832"/><stop stop-color="#D1D1D1" offset=".836"/><stop stop-color="#D0D0D0" offset=".84"/><stop stop-color="#D0D0D0" offset=".844"/><stop stop-color="#CFCFCF" offset=".848"/><stop stop-color="#CFCFCF" offset=".852"/><stop stop-color="#CECECE" offset=".855"/><stop stop-color="#CDCDCD" offset=".859"/><stop stop-color="#CCC" offset=".863"/><stop stop-color="#CCC" offset=".867"/><stop stop-color="#CBCBCB" offset=".871"/><stop stop-color="#CACACA" offset=".875"/><stop stop-color="#C9C9C9" offset=".879"/><stop stop-color="#C9C9C9" offset=".883"/><stop stop-color="#C8C8C8" offset=".887"/><stop stop-color="#C7C7C7" offset=".891"/><stop stop-color="#C6C6C6" offset=".895"/><stop stop-color="#C6C6C6" offset=".898"/><stop stop-color="#C5C5C5" offset=".902"/><stop stop-color="#C4C4C4" offset=".906"/><stop stop-color="#C3C3C3" offset=".91"/><stop stop-color="#C3C3C3" offset=".914"/><stop stop-color="#C2C2C2" offset=".918"/><stop stop-color="#C1C1C1" offset=".922"/><stop stop-color="#C0C0C0" offset=".926"/><stop stop-color="#C0C0C0" offset=".93"/><stop stop-color="#BFBFBF" offset=".934"/><stop stop-color="#BEBEBE" offset=".938"/><stop stop-color="#BDBDBD" offset=".941"/><stop stop-color="#BDBDBD" offset=".945"/><stop stop-color="#BCBCBC" offset=".949"/><stop stop-color="#BBB" offset=".953"/><stop stop-color="#BABABA" offset=".957"/><stop stop-color="#BABABA" offset=".961"/><stop stop-color="#B9B9B9" offset=".965"/><stop stop-color="#B8B8B8" offset=".969"/><stop stop-color="#B7B7B7" offset=".973"/><stop stop-color="#B7B7B7" offset=".977"/><stop stop-color="#B6B6B6" offset=".98"/><stop stop-color="#B5B5B5" offset=".984"/><stop stop-color="#B4B4B4" offset=".988"/><stop stop-color="#B4B4B4" offset=".992"/><stop stop-color="#B3B3B3" offset="1"/></linearGradient><linearGradient x1="148.325" gradientTransform="translate(-8.835 -8.835) scale(.65445)" y1="300" x2="214.704" gradientUnits="userSpaceOnUse" y2="300" xlink:type="simple" xlink:actuate="onLoad" id="i" xlink:show="other"><stop stop-color="#C2C4C6" offset="0"/><stop stop-color="#C3C4C6" offset=".125"/><stop stop-color="#C4C5C7" offset=".25"/><stop stop-color="#C5C6C8" offset=".375"/><stop stop-color="#C5C7C9" offset=".5"/><stop stop-color="#C6C7C9" offset="1"/></linearGradient><linearGradient x1="233.611" gradientTransform="translate(-8.835 -8.835) scale(.65445)" y1="300" x2="308.821" gradientUnits="userSpaceOnUse" y2="300" xlink:type="simple" xlink:actuate="onLoad" id="l" xlink:show="other"><stop stop-color="#C7C8CA" offset="0"/><stop stop-color="#C8C9CB" offset=".25"/><stop stop-color="#C8C9CB" offset=".5"/><stop stop-color="#C9CACC" offset="1"/></linearGradient><linearGradient x1="335" gradientTransform="translate(-8.835 -8.835) scale(.65445)" y1="300" x2="386.62" gradientUnits="userSpaceOnUse" y2="300" xlink:type="simple" xlink:actuate="onLoad" id="o" xlink:show="other"><stop stop-color="#CACBCD" offset="0"/><stop stop-color="#CACBCD" offset=".5"/><stop stop-color="#CACBCD" offset="1"/></linearGradient><linearGradient x1="401.23" gradientTransform="translate(-8.835 -8.835) scale(.65445)" y1="300" x2="456.648" gradientUnits="userSpaceOnUse" y2="300" xlink:type="simple" xlink:actuate="onLoad" id="r" xlink:show="other"><stop stop-color="#CBCCCE" offset="0"/><stop stop-color="#CBCCCE" offset=".5"/><stop stop-color="#CBCCCE" offset="1"/></linearGradient><linearGradient x1="223.487" gradientTransform="translate(-8.835 -8.835) scale(.65445)" y1="300" x2="296.56" gradientUnits="userSpaceOnUse" y2="300" xlink:type="simple" xlink:actuate="onLoad" id="u" xlink:show="other"><stop stop-color="#C7C8CA" offset="0"/><stop stop-color="#C8C9CB" offset=".5"/><stop stop-color="#C8CACC" offset="1"/></linearGradient><linearGradient x1="312.744" gradientTransform="translate(-8.835 -8.835) scale(.65445)" y1="300" x2="370.669" gradientUnits="userSpaceOnUse" y2="300" xlink:type="simple" xlink:actuate="onLoad" id="x" xlink:show="other"><stop stop-color="#C9CACC" offset="0"/><stop stop-color="#C9CACD" offset=".5"/><stop stop-color="#CACBCD" offset="1"/></linearGradient></defs><g clip-path="url(#a)"><g clip-path="url(#b)"><path fill="url(#c)" d="M 7.527344 7.527344 L 7.527344 367.472656 L 367.472656 367.472656 L 367.472656 7.527344 Z M 7.527344 7.527344"/></g></g><path transform="scale(.65445)" fill="none" d="M 91.50093 11.501781 L 481.49905 11.501781 C 484.119332 11.501781 486.733644 11.627125 489.341988 11.883781 C 491.950331 12.140437 494.5348 12.528406 497.107331 13.03575 C 499.679863 13.549062 502.216581 14.18175 504.723456 14.94575 C 507.230331 15.703781 509.695425 16.587156 512.112769 17.589906 C 514.536081 18.592656 516.899706 19.708812 519.209612 20.944344 C 521.519519 22.179875 523.769737 23.528812 525.948331 24.985187 C 528.126925 26.435593 530.227925 27.999406 532.251331 29.658718 C 534.274737 31.324 536.214581 33.078812 538.070862 34.929125 C 539.921175 36.785406 541.675987 38.72525 543.341268 40.748656 C 545.000581 42.772062 546.564393 44.873062 548.0148 47.051656 C 549.471175 49.230249 550.820112 51.480468 552.055643 53.790374 C 553.291174 56.100281 554.407331 58.463906 555.410081 60.887218 C 556.412831 63.304562 557.296206 65.769656 558.054237 68.27653 C 558.818237 70.783405 559.450924 73.320124 559.964237 75.892655 C 560.471581 78.465187 560.859549 81.049655 561.116206 83.657999 C 561.372862 86.266343 561.498206 88.880655 561.498206 91.500936 L 561.498206 481.499057 C 561.498206 484.119338 561.372862 486.733651 561.116206 489.341995 C 560.859549 491.950338 560.471581 494.534807 559.964237 497.107338 C 559.450924 499.679869 558.818237 502.216588 558.054237 504.723463 C 557.296206 507.230338 556.412831 509.695432 555.410081 512.112776 C 554.407331 514.536088 553.291174 516.899713 552.055643 519.209619 C 550.820112 521.519525 549.471175 523.769744 548.0148 525.948338 C 546.564393 528.126932 545.000581 530.227932 543.341268 532.251338 C 541.675987 534.274744 539.921175 536.214588 538.070862 538.070869 C 536.214581 539.921182 534.274737 541.675994 532.251331 543.341275 C 530.227925 545.000588 528.126925 546.5644 525.948331 548.014806 C 523.769737 549.471181 521.519519 550.820119 519.209612 552.05565 C 516.899706 553.291181 514.536081 554.407338 512.112769 555.410088 C 509.695425 556.412838 507.230331 557.296213 504.723456 558.054244 C 502.216581 558.818244 499.679863 559.450931 497.107331 559.964244 C 494.5348 560.471588 491.950331 560.859556 489.341988 561.116213 C 486.733644 561.372869 484.119332 561.498213 481.49905 561.498213 L 91.50093 561.498213 C 88.880648 561.498213 86.266336 561.372869 83.657992 561.116213 C 81.049648 560.859556 78.46518 560.471588 75.892649 559.964244 C 73.320117 559.450931 70.783399 558.818244 68.276524 558.054244 C 65.769649 557.296213 63.304555 556.412838 60.887211 555.410088 C 58.463899 554.407338 56.100274 553.291181 53.790368 552.05565 C 51.480461 550.820119 49.230243 549.471181 47.051649 548.014806 C 44.873055 546.5644 42.772055 545.000588 40.748649 543.341275 C 38.725243 541.675994 36.785399 539.921182 34.929118 538.070869 C 33.078805 536.214588 31.323993 534.274744 29.658712 532.251338 C 27.999399 530.227932 26.435587 528.126932 24.98518 525.948338 C 23.528805 523.769744 22.179868 521.519525 20.944337 519.209619 C 19.708805 516.899713 18.592649 514.536088 17.589899 512.112776 C 16.587149 509.695432 15.703774 507.230338 14.945743 504.723463 C 14.181743 502.216588 13.549055 499.679869 13.035743 497.107338 C 12.528399 494.534807 12.14043 491.950338 11.883774 489.341995 C 11.627118 486.733651 11.501774 484.119338 11.501774 481.499057 L 11.501774 91.500936 C 11.501774 88.880655 11.627118 86.266343 11.883774 83.657999 C 12.14043 81.049655 12.528399 78.465187 13.035743 75.892655 C 13.549055 73.320124 14.181743 70.783405 14.945743 68.27653 C 15.703774 65.769656 16.587149 63.304562 17.589899 60.887218 C 18.592649 58.463906 19.708805 56.100281 20.944337 53.790374 C 22.179868 51.480468 23.528805 49.230249 24.98518 47.051656 C 26.435587 44.873062 27.999399 42.772062 29.658712 40.748656 C 31.323993 38.72525 33.078805 36.785406 34.929118 34.929125 C 36.785399 33.078812 38.725243 31.324 40.748649 29.658718 C 42.772055 27.999406 44.873055 26.435593 47.051649 24.985187 C 49.230243 23.528812 51.480461 22.179875 53.790368 20.944344 C 56.100274 19.708812 58.463899 18.592656 60.887211 17.589906 C 63.304555 16.587156 65.769649 15.703781 68.276524 14.94575 C 70.783399 14.18175 73.320117 13.549062 75.892649 13.03575 C 78.46518 12.528406 81.049648 12.140437 83.657992 11.883781 C 86.266336 11.627125 88.880648 11.501781 91.50093 11.501781 Z M 91.50093 11.501781" stroke="#808080" stroke-width="23" stroke-miterlimit="10"/><g clip-path="url(#d)"><g clip-path="url(#e)"><path fill="url(#f)" d="M 30.433594 30.433594 L 30.433594 344.566406 L 344.566406 344.566406 L 344.566406 30.433594 Z M 30.433594 30.433594"/></g></g><g clip-path="url(#g)"><g clip-path="url(#h)"><path fill="url(#i)" d="M 88.234375 111.621094 L 88.234375 174.003906 L 131.679688 174.003906 L 131.679688 111.621094 Z M 88.234375 111.621094"/></g></g><g clip-path="url(#j)"><g clip-path="url(#k)"><path fill="url(#l)" d="M 144.050781 111.367188 L 144.050781 174.625 L 193.273438 174.625 L 193.273438 111.367188 Z M 144.050781 111.367188"/></g></g><g clip-path="url(#m)"><g clip-path="url(#n)"><path fill="url(#o)" d="M 210.40625 111.332031 L 210.40625 173.648438 L 244.1875 173.648438 L 244.1875 111.332031 Z M 210.40625 111.332031"/></g></g><g clip-path="url(#p)"><g clip-path="url(#q)"><path fill="url(#r)" d="M 253.75 111.621094 L 253.75 173.6875 L 290.019531 173.6875 L 290.019531 111.621094 Z M 253.75 111.621094"/></g></g><g clip-path="url(#s)"><g clip-path="url(#t)"><path fill="url(#u)" d="M 137.425781 205.574219 L 137.425781 268.214844 L 185.25 268.214844 L 185.25 205.574219 Z M 137.425781 205.574219"/></g></g><g clip-path="url(#v)"><g clip-path="url(#w)"><path fill="url(#x)" d="M 195.839844 205.46875 L 195.839844 267.902344 L 233.75 267.902344 L 233.75 205.46875 Z M 195.839844 205.46875"/></g></g><path d="M 131.675781 172.449219 C 131.679688 172.679688 131.628906 172.894531 131.523438 173.101562 C 131.363281 173.339844 131.148438 173.5 130.871094 173.578125 C 130.410156 173.734375 129.941406 173.832031 129.457031 173.867188 C 128.652344 173.941406 127.847656 173.976562 127.042969 173.964844 C 126.328125 173.972656 125.613281 173.941406 124.902344 173.867188 C 124.453125 173.824219 124.015625 173.722656 123.59375 173.558594 C 123.277344 173.433594 123.015625 173.230469 122.8125 172.957031 C 122.605469 172.664062 122.445312 172.34375 122.335938 172.003906 L 116.316406 157.394531 C 115.609375 155.734375 114.878906 154.207031 114.121094 152.8125 C 113.410156 151.476562 112.511719 150.28125 111.425781 149.222656 C 110.359375 148.195312 109.136719 147.410156 107.753906 146.871094 C 106.109375 146.273438 104.414062 145.992188 102.664062 146.035156 L 96.871094 146.035156 L 96.871094 172.449219 C 96.875 172.691406 96.800781 172.910156 96.648438 173.101562 C 96.457031 173.324219 96.222656 173.476562 95.941406 173.558594 C 95.515625 173.695312 95.078125 173.789062 94.632812 173.847656 C 93.238281 174.003906 91.84375 174.003906 90.453125 173.847656 C 90.007812 173.785156 89.570312 173.6875 89.144531 173.558594 C 88.859375 173.484375 88.625 173.332031 88.441406 173.101562 C 88.304688 172.90625 88.234375 172.6875 88.238281 172.449219 L 88.238281 114.988281 C 88.238281 113.742188 88.578125 112.871094 89.273438 112.367188 C 89.917969 111.878906 90.648438 111.628906 91.460938 111.621094 L 105.3125 111.621094 C 106.957031 111.621094 108.324219 111.667969 109.417969 111.746094 C 110.511719 111.824219 111.484375 111.910156 112.363281 112.007812 C 114.671875 112.363281 116.894531 113.019531 119.03125 113.972656 C 120.867188 114.796875 122.488281 115.933594 123.894531 117.375 C 125.203125 118.746094 126.1875 120.320312 126.839844 122.101562 C 127.519531 124.003906 127.847656 125.96875 127.820312 127.992188 C 127.847656 129.902344 127.554688 131.761719 126.945312 133.574219 C 126.375 135.191406 125.527344 136.644531 124.398438 137.9375 C 123.246094 139.238281 121.917969 140.332031 120.417969 141.210938 C 118.777344 142.1875 117.046875 142.96875 115.230469 143.558594 C 116.28125 143.996094 117.257812 144.5625 118.15625 145.261719 C 119.066406 145.988281 119.878906 146.8125 120.59375 147.734375 C 121.402344 148.777344 122.117188 149.878906 122.734375 151.039062 C 123.390625 152.285156 124.078125 153.691406 124.75 155.253906 L 130.5625 168.914062 C 131.027344 170.066406 131.328125 170.878906 131.464844 171.335938 C 131.585938 171.695312 131.652344 172.066406 131.675781 172.449219 Z M 118.632812 128.875 C 118.703125 126.644531 118.132812 124.589844 116.917969 122.714844 C 115.777344 121.03125 113.867188 119.824219 111.179688 119.097656 C 110.242188 118.855469 109.292969 118.695312 108.332031 118.613281 C 107.269531 118.519531 105.890625 118.46875 104.175781 118.46875 L 96.871094 118.46875 L 96.871094 139.371094 L 105.332031 139.371094 C 107.335938 139.410156 109.300781 139.144531 111.222656 138.578125 C 112.757812 138.125 114.144531 137.390625 115.378906 136.375 C 116.472656 135.46875 117.285156 134.355469 117.820312 133.042969 C 118.371094 131.695312 118.640625 130.296875 118.632812 128.839844 Z M 118.632812 128.875"/><path d="M 193.214844 150.746094 C 193.273438 154.21875 192.695312 157.582031 191.480469 160.835938 C 190.386719 163.707031 188.730469 166.207031 186.519531 168.335938 C 184.246094 170.46875 181.625 172.015625 178.664062 172.984375 C 175.242188 174.097656 171.734375 174.625 168.136719 174.566406 C 164.78125 174.609375 161.507812 174.113281 158.316406 173.082031 C 155.46875 172.164062 152.933594 170.703125 150.714844 168.699219 C 148.511719 166.660156 146.882812 164.238281 145.824219 161.433594 C 144.621094 158.1875 144.050781 154.832031 144.117188 151.367188 L 144.117188 112.894531 C 144.117188 112.65625 144.183594 112.4375 144.3125 112.238281 C 144.5 112.011719 144.734375 111.863281 145.019531 111.785156 C 145.449219 111.652344 145.882812 111.558594 146.328125 111.5 C 147.03125 111.40625 147.734375 111.367188 148.441406 111.375 C 149.132812 111.371094 149.824219 111.410156 150.511719 111.5 C 150.957031 111.554688 151.390625 111.648438 151.820312 111.785156 C 152.082031 111.871094 152.300781 112.023438 152.472656 112.238281 C 152.605469 112.4375 152.671875 112.65625 152.671875 112.894531 L 152.671875 150.371094 C 152.621094 152.945312 152.992188 155.453125 153.78125 157.898438 C 154.441406 159.921875 155.507812 161.707031 156.976562 163.246094 C 158.414062 164.699219 160.09375 165.769531 162.015625 166.460938 C 164.160156 167.210938 166.367188 167.566406 168.640625 167.53125 C 170.941406 167.574219 173.179688 167.222656 175.359375 166.480469 C 177.273438 165.820312 178.933594 164.765625 180.347656 163.316406 C 181.777344 161.804688 182.816406 160.058594 183.46875 158.082031 C 184.238281 155.714844 184.601562 153.28125 184.554688 150.792969 L 184.554688 112.894531 C 184.554688 112.65625 184.621094 112.4375 184.75 112.238281 C 184.9375 112.011719 185.175781 111.863281 185.457031 111.785156 C 185.886719 111.652344 186.324219 111.558594 186.765625 111.5 C 187.460938 111.410156 188.15625 111.367188 188.855469 111.375 C 189.539062 111.367188 190.21875 111.410156 190.898438 111.5 C 191.34375 111.554688 191.777344 111.648438 192.207031 111.785156 C 192.484375 111.867188 192.71875 112.019531 192.914062 112.238281 C 193.0625 112.429688 193.136719 112.648438 193.136719 112.894531 Z M 193.214844 150.746094"/><path d="M 244.183594 170.066406 C 244.1875 170.601562 244.15625 171.136719 244.082031 171.667969 C 244.027344 172.050781 243.917969 172.417969 243.757812 172.769531 C 243.628906 173.035156 243.445312 173.253906 243.199219 173.421875 C 242.960938 173.574219 242.703125 173.648438 242.421875 173.640625 L 213.625 173.640625 C 212.8125 173.632812 212.082031 173.382812 211.433594 172.894531 C 210.746094 172.402344 210.40625 171.53125 210.40625 170.273438 L 210.40625 112.894531 C 210.40625 112.65625 210.472656 112.4375 210.601562 112.238281 C 210.789062 112.011719 211.023438 111.863281 211.308594 111.785156 C 211.753906 111.652344 212.207031 111.554688 212.671875 111.5 C 214.054688 111.332031 215.441406 111.332031 216.824219 111.5 C 217.269531 111.558594 217.707031 111.65625 218.136719 111.785156 C 218.417969 111.859375 218.652344 112.007812 218.835938 112.238281 C 218.972656 112.433594 219.039062 112.652344 219.039062 112.894531 L 219.039062 166.558594 L 242.410156 166.558594 C 242.691406 166.550781 242.949219 166.621094 243.1875 166.773438 C 243.429688 166.945312 243.613281 167.164062 243.742188 167.429688 C 243.914062 167.769531 244.023438 168.128906 244.070312 168.507812 C 244.144531 169.023438 244.179688 169.542969 244.183594 170.066406 Z M 244.183594 170.066406"/><path d="M 290.011719 170.253906 C 290.015625 170.761719 289.980469 171.265625 289.910156 171.765625 C 289.859375 172.148438 289.742188 172.503906 289.554688 172.839844 C 289.421875 173.109375 289.230469 173.328125 288.980469 173.496094 C 288.75 173.621094 288.507812 173.6875 288.246094 173.683594 L 256.976562 173.683594 C 256.164062 173.679688 255.433594 173.429688 254.785156 172.9375 C 254.097656 172.449219 253.75 171.578125 253.75 170.320312 L 253.75 114.988281 C 253.75 113.742188 254.097656 112.871094 254.785156 112.367188 C 255.433594 111.878906 256.164062 111.628906 256.976562 111.621094 L 287.898438 111.621094 C 288.160156 111.621094 288.402344 111.6875 288.625 111.820312 C 288.867188 111.972656 289.042969 112.179688 289.15625 112.441406 C 289.304688 112.789062 289.414062 113.148438 289.484375 113.519531 C 289.574219 114.050781 289.617188 114.585938 289.605469 115.125 C 289.613281 115.632812 289.574219 116.136719 289.484375 116.636719 C 289.417969 117 289.308594 117.351562 289.15625 117.691406 C 289.042969 117.933594 288.875 118.128906 288.644531 118.273438 C 288.417969 118.417969 288.167969 118.488281 287.898438 118.480469 L 262.414062 118.480469 L 262.414062 137.9375 L 284.265625 137.9375 C 284.535156 137.9375 284.777344 138.007812 285 138.15625 C 285.230469 138.3125 285.417969 138.511719 285.554688 138.757812 C 285.730469 139.089844 285.839844 139.4375 285.882812 139.808594 C 285.953125 140.335938 285.988281 140.863281 285.980469 141.394531 C 285.988281 141.890625 285.953125 142.386719 285.882812 142.878906 C 285.832031 143.234375 285.726562 143.570312 285.554688 143.886719 C 285.425781 144.125 285.238281 144.308594 285 144.4375 C 284.769531 144.550781 284.523438 144.605469 284.265625 144.601562 L 262.414062 144.601562 L 262.414062 166.800781 L 288.246094 166.800781 C 288.507812 166.792969 288.753906 166.859375 288.980469 166.988281 C 289.222656 167.140625 289.414062 167.335938 289.554688 167.585938 C 289.746094 167.914062 289.863281 168.269531 289.910156 168.644531 C 289.984375 169.179688 290.019531 169.714844 290.011719 170.253906 Z M 290.011719 170.253906"/><path d="M 185.183594 225.457031 C 185.191406 225.925781 185.148438 226.386719 185.058594 226.84375 C 184.996094 227.175781 184.875 227.488281 184.707031 227.78125 C 184.570312 228.011719 184.386719 228.183594 184.148438 228.304688 C 183.945312 228.414062 183.726562 228.472656 183.496094 228.476562 L 176.871094 228.476562 L 174.863281 244.390625 L 180.699219 244.390625 C 181.25 244.394531 181.664062 244.632812 181.9375 245.109375 C 182.316406 245.847656 182.476562 246.632812 182.414062 247.460938 C 182.421875 247.929688 182.371094 248.390625 182.265625 248.847656 C 182.183594 249.171875 182.066406 249.484375 181.910156 249.785156 C 181.785156 250.011719 181.609375 250.183594 181.382812 250.308594 C 181.175781 250.414062 180.957031 250.472656 180.726562 250.476562 L 174.003906 250.476562 L 171.890625 266.871094 C 171.859375 267.082031 171.789062 267.28125 171.6875 267.46875 C 171.550781 267.671875 171.367188 267.816406 171.132812 267.898438 C 170.773438 268.035156 170.40625 268.113281 170.027344 268.140625 C 169.554688 268.1875 168.933594 268.214844 168.160156 268.214844 C 167.390625 268.214844 166.753906 268.214844 166.25 268.140625 C 165.851562 268.117188 165.464844 268.035156 165.089844 267.898438 C 164.855469 267.820312 164.671875 267.675781 164.535156 267.46875 C 164.429688 267.28125 164.398438 267.082031 164.4375 266.871094 L 166.558594 250.453125 L 152.550781 250.453125 L 150.433594 266.84375 C 150.371094 267.050781 150.296875 267.246094 150.210938 267.441406 C 150.09375 267.648438 149.925781 267.789062 149.707031 267.871094 C 149.355469 268.007812 148.992188 268.089844 148.617188 268.113281 C 148.148438 268.160156 147.527344 268.1875 146.761719 268.1875 C 145.996094 268.1875 145.292969 268.1875 144.796875 268.113281 C 144.398438 268.089844 144.011719 268.011719 143.640625 267.871094 C 143.40625 267.792969 143.222656 267.648438 143.089844 267.441406 C 142.980469 267.253906 142.945312 267.058594 142.984375 266.84375 L 145.050781 250.453125 L 139.203125 250.453125 C 138.660156 250.453125 138.25 250.222656 137.972656 249.757812 C 137.585938 249.03125 137.425781 248.253906 137.492188 247.433594 C 137.484375 246.964844 137.53125 246.5 137.644531 246.039062 C 137.722656 245.714844 137.839844 245.402344 137.996094 245.105469 C 138.117188 244.878906 138.285156 244.695312 138.5 244.554688 C 138.714844 244.425781 138.949219 244.359375 139.203125 244.363281 L 145.949219 244.363281 L 148.015625 228.449219 L 141.925781 228.449219 C 141.375 228.445312 140.960938 228.207031 140.6875 227.730469 C 140.308594 227.023438 140.152344 226.273438 140.210938 225.476562 C 140.140625 224.632812 140.300781 223.835938 140.6875 223.082031 C 140.960938 222.609375 141.375 222.367188 141.925781 222.363281 L 148.769531 222.363281 L 150.851562 206.976562 C 150.878906 206.757812 150.953125 206.558594 151.074219 206.375 C 151.234375 206.171875 151.4375 206.027344 151.683594 205.941406 C 152.066406 205.808594 152.460938 205.722656 152.867188 205.679688 C 153.5 205.609375 154.136719 205.574219 154.777344 205.582031 C 155.417969 205.574219 156.058594 205.605469 156.695312 205.679688 C 157.066406 205.722656 157.425781 205.808594 157.773438 205.941406 C 157.992188 206.023438 158.148438 206.167969 158.253906 206.375 C 158.320312 206.554688 158.351562 206.738281 158.351562 206.929688 L 156.238281 222.363281 L 170.242188 222.363281 L 172.207031 206.976562 C 172.238281 206.753906 172.320312 206.554688 172.453125 206.375 C 172.621094 206.179688 172.820312 206.035156 173.054688 205.941406 C 173.433594 205.808594 173.816406 205.71875 174.214844 205.679688 C 174.867188 205.605469 175.523438 205.574219 176.179688 205.582031 C 176.808594 205.574219 177.4375 205.605469 178.0625 205.679688 C 178.4375 205.714844 178.800781 205.804688 179.148438 205.941406 C 179.355469 206.035156 179.515625 206.179688 179.628906 206.375 C 179.707031 206.550781 179.730469 206.738281 179.699219 206.929688 L 177.683594 222.363281 L 183.476562 222.363281 C 184.03125 222.371094 184.441406 222.617188 184.710938 223.101562 C 185.089844 223.84375 185.25 224.628906 185.183594 225.457031 Z M 155.433594 228.449219 L 153.417969 244.363281 L 167.367188 244.363281 L 169.484375 228.449219 Z M 155.433594 228.449219"/><path d="M 233.730469 264.640625 C 233.742188 265.15625 233.691406 265.667969 233.578125 266.171875 C 233.503906 266.53125 233.371094 266.867188 233.179688 267.179688 C 233.035156 267.414062 232.839844 267.597656 232.597656 267.730469 C 232.394531 267.835938 232.175781 267.894531 231.945312 267.898438 L 197.914062 267.898438 C 197.679688 267.902344 197.460938 267.84375 197.257812 267.730469 C 197.023438 267.589844 196.832031 267.40625 196.683594 267.179688 C 196.472656 266.871094 196.328125 266.535156 196.25 266.171875 C 196.140625 265.667969 196.089844 265.15625 196.097656 264.640625 C 196.09375 264.140625 196.140625 263.644531 196.25 263.15625 C 196.332031 262.792969 196.460938 262.449219 196.628906 262.121094 C 196.761719 261.867188 196.949219 261.660156 197.1875 261.5 C 197.40625 261.351562 197.648438 261.28125 197.914062 261.28125 L 211.511719 261.28125 L 211.511719 214.117188 L 198.921875 221.257812 C 198.4375 221.523438 197.921875 221.714844 197.382812 221.832031 C 197.035156 221.917969 196.726562 221.84375 196.453125 221.617188 C 196.175781 221.328125 196.015625 220.988281 195.976562 220.589844 C 195.882812 219.984375 195.839844 219.378906 195.851562 218.769531 C 195.847656 218.304688 195.871094 217.839844 195.921875 217.375 C 195.960938 217.046875 196.035156 216.730469 196.152344 216.421875 C 196.25 216.175781 196.394531 215.957031 196.578125 215.765625 C 196.800781 215.546875 197.042969 215.355469 197.308594 215.191406 L 212.316406 206.027344 C 212.472656 205.925781 212.640625 205.847656 212.820312 205.792969 C 213.070312 205.714844 213.324219 205.648438 213.578125 205.59375 C 213.929688 205.53125 214.28125 205.492188 214.632812 205.476562 C 215.039062 205.476562 215.542969 205.476562 216.144531 205.476562 C 216.820312 205.46875 217.492188 205.5 218.160156 205.570312 C 218.589844 205.609375 219.007812 205.699219 219.417969 205.832031 C 219.667969 205.90625 219.867188 206.050781 220.019531 206.261719 C 220.125 206.433594 220.175781 206.621094 220.175781 206.820312 L 220.175781 261.316406 L 231.957031 261.316406 C 232.230469 261.316406 232.484375 261.386719 232.714844 261.53125 C 232.960938 261.691406 233.152344 261.898438 233.292969 262.152344 C 233.460938 262.480469 233.578125 262.824219 233.644531 263.1875 C 233.722656 263.667969 233.75 264.152344 233.730469 264.640625 Z M 233.730469 264.640625"/></svg>